<svg xmlns="http://www.w3.org/2000/svg" viewBox="0 0 1920 1080">
  <title>A1</title>
  <path d="M50.32,2C22.53,2,0,20.58,0,43.5S22.53,85,50.32,85s50.32-18.59,50.32-41.51S78.11,2,50.32,2ZM31.59,56.73c-4.26,0-7.72-5.76-7.72-12.86S27.33,31,31.59,31s7.71,5.75,7.71,12.85S35.85,56.73,31.59,56.73Zm35.26,0c-4.26,0-7.72-5.76-7.72-12.86S62.59,31,66.85,31s7.71,5.75,7.71,12.85S71.11,56.73,66.85,56.73Z"/>
  <g>
    <path d="M.3,44.49s21.58,7.61,35,0c10.29-5.84,15-11,15-20,0-12-11-19-21-21,0,0,41.81-9.83,40,21-.62,10.5,4-1,4-1s3.15,3.15-1.64,13.1c-2.36,4.9-5.56,6.36-6.36,7.9s2.3.21,1.32,1.68C45.36,78.14,0,50.49,0,50.49Z"/>
    <path d="M.3,113.49s21.58,7.61,35,0c10.29-5.84,15-11,15-20,0-12-11-19-21-21,0,0,41.81-9.83,40,21-.62,10.5,4-1,4-1s3.15,3.15-1.64,13.1c-2.36,4.9-5.56,6.36-6.36,7.9s2.3.21,1.32,1.68C45.36,147.14,0,119.49,0,119.49Z"/>
    <path d="M70.3,44.49s21.58,7.61,35,0c10.29-5.84,15-11,15-20,0-12-11-19-21-21,0,0,41.81-9.83,40,21-.62,10.5,4-1,4-1s3.15,3.15-1.64,13.1c-2.36,4.9-5.56,6.36-6.36,7.9s2.3.21,1.32,1.68C115.36,78.14,70,50.49,70,50.49Z"/>
    <path d="M70.3,113.49s21.58,7.61,35,0c10.29-5.84,15-11,15-20,0-12-11-19-21-21,0,0,41.81-9.83,40,21-.62,10.5,4-1,4-1s3.15,3.15-1.64,13.1c-2.36,4.9-5.56,6.36-6.36,7.9s2.3.21,1.32,1.68c-21.26,32-66.62,4.32-66.62,4.32Z"/>
  </g>
  <g>
    <path d="M97.2,151.36c-7.42,11.09-15.33-1.13-30.69-11.41S37.68,128.49,45.1,117.41c4.63-6.93,11.77-6.33,21.67-6.48,12-.19,13.06-11.34,23.78-4.17,9.45,6.33.47,11.32,3.74,21.67C97.22,137.69,101.9,144.34,97.2,151.36Z"/>
    <ellipse cx="83.95" cy="89.23" rx="11.03" ry="8.18" transform="translate(-36.9 109.37) rotate(-56.21)"/>
    <ellipse cx="61.23" cy="93.19" rx="11.03" ry="8.18" transform="translate(-50.27 92.24) rotate(-56.21)"/>
    <ellipse cx="111.65" cy="126.93" rx="11.03" ry="8.18" transform="translate(-55.94 149.12) rotate(-56.21)"/>
    <ellipse cx="106.64" cy="104.42" rx="11.03" ry="8.18" transform="translate(-39.45 134.96) rotate(-56.21)"/>
    <path d="M54.2,74.36C46.78,85.45,38.87,73.23,23.51,63S-5.32,51.49,2.1,40.41c4.63-6.93,11.77-6.33,21.67-6.48,12-.19,13.06-11.34,23.78-4.17C57,36.09,48,41.08,51.29,51.43,54.22,60.69,58.9,67.34,54.2,74.36Z"/>
    <ellipse cx="40.95" cy="12.23" rx="11.03" ry="8.18" transform="translate(8.01 39.46) rotate(-56.21)"/>
    <ellipse cx="18.23" cy="16.19" rx="11.03" ry="8.18" transform="translate(-5.36 22.33) rotate(-56.21)"/>
    <ellipse cx="68.65" cy="49.93" rx="11.03" ry="8.18" transform="translate(-11.03 79.21) rotate(-56.21)"/>
    <ellipse cx="63.64" cy="27.42" rx="11.03" ry="8.18" transform="translate(5.46 65.06) rotate(-56.21)"/>
  </g>
</svg>
