<svg xmlns="http://www.w3.org/2000/svg" viewBox="0 0 1920 1080">
  <defs>
    <style>
      
    </style>
  </defs>
  <title>B4</title>
  <g>
    <path class="a" d="M27.744,68.7s6.822-19.878-7.8-31.8.975-34.455,2.924-37.1c0,0-7.8,13.252,10.721,30.479S27.744,68.7,27.744,68.7Z"/>
    <path class="a" d="M14.3,80.282s6.822-19.878-7.8-31.8.975-34.455,2.924-37.106c0,0-7.8,13.252,10.72,30.48S14.3,80.282,14.3,80.282Z"/>
    <path class="a" d="M30.744,139.7s6.822-19.878-7.8-31.8.975-34.455,2.924-37.105c0,0-7.8,13.252,10.721,30.479S30.744,139.7,30.744,139.7Z"/>
    <path class="a" d="M17.3,151.282s6.822-19.878-7.8-31.8.975-34.455,2.924-37.106c0,0-7.8,13.252,10.72,30.48S17.3,151.282,17.3,151.282Z"/>
    <path class="a" d="M61.744,110.7s6.822-19.878-7.8-31.8.975-34.455,2.924-37.105c0,0-7.8,13.252,10.721,30.479S61.744,110.7,61.744,110.7Z"/>
    <path class="a" d="M48.3,122.282s6.822-19.878-7.8-31.8.975-34.455,2.924-37.106c0,0-7.8,13.252,10.72,30.48S48.3,122.282,48.3,122.282Z"/>
    <path class="a" d="M101.744,68.7s6.822-19.878-7.8-31.8.975-34.455,2.924-37.1c0,0-7.8,13.252,10.721,30.479S101.744,68.7,101.744,68.7Z"/>
    <path class="a" d="M88.3,80.282s6.822-19.878-7.8-31.8.975-34.455,2.924-37.106c0,0-7.8,13.252,10.72,30.48S88.3,80.282,88.3,80.282Z"/>
    <path class="a" d="M104.744,139.7s6.822-19.878-7.8-31.8.975-34.455,2.924-37.105c0,0-7.8,13.252,10.721,30.479S104.744,139.7,104.744,139.7Z"/>
    <path class="a" d="M91.3,151.282s6.822-19.878-7.8-31.8.975-34.455,2.924-37.106c0,0-7.8,13.252,10.72,30.48S91.3,151.282,91.3,151.282Z"/>
    <path class="a" d="M135.744,110.7s6.822-19.878-7.8-31.8.975-34.455,2.924-37.105c0,0-7.8,13.252,10.721,30.479S135.744,110.7,135.744,110.7Z"/>
    <path class="a" d="M122.3,122.282s6.822-19.878-7.8-31.8.975-34.455,2.924-37.106c0,0-7.8,13.252,10.72,30.48S122.3,122.282,122.3,122.282Z"/>
  </g>
  <g>
    <path class="a" d="M59.7,11.659s6.992,20.371-7.989,32.593,1,35.309,3,38.025c0,0-7.99-13.58,10.986-31.235S59.7,11.659,59.7,11.659Z"/>
    <path class="a" d="M45.929-.214s6.991,20.37-7.99,32.593,1,35.308,3,38.024c0,0-7.99-13.58,10.987-31.234S45.929-.214,45.929-.214Z"/>
    <path class="a" d="M53.019,82.317s6.991,20.371-7.99,32.593,1,35.309,3,38.025c0,0-7.99-13.58,10.986-31.235S53.019,82.317,53.019,82.317Z"/>
    <path class="a" d="M39.245,70.444s6.992,20.37-7.99,32.593,1,35.308,3,38.024c0,0-7.99-13.58,10.986-31.234S39.245,70.444,39.245,70.444Z"/>
    <path class="a" d="M21.334-.214s6.992,20.37-7.99,32.593,1,35.308,3,38.024c0,0-7.99-13.58,10.986-31.234S21.334-.214,21.334-.214Z"/>
    <path class="a" d="M14.651,70.444s6.991,20.37-7.99,32.593,1,35.308,3,38.024c0,0-7.99-13.58,10.986-31.234S14.651,70.444,14.651,70.444Z"/>
    <path class="a" d="M111.966,141.061s6.992-20.37-7.99-32.592,1-35.309,3-38.025c0,0-7.99,13.58,10.986,31.235S111.966,141.061,111.966,141.061Z"/>
    <path class="a" d="M98.193,152.935s6.991-20.371-7.99-32.593,1-35.309,3-38.025c0,0-7.99,13.581,10.986,31.235S98.193,152.935,98.193,152.935Z"/>
    <path class="a" d="M105.282,70.4s6.992-20.37-7.989-32.592,1-35.309,3-38.025c0,0-7.99,13.58,10.986,31.235S105.282,70.4,105.282,70.4Z"/>
    <path class="a" d="M137.586,141.061s6.991-20.37-7.99-32.592,1-35.309,3-38.025c0,0-7.99,13.58,10.986,31.235S137.586,141.061,137.586,141.061Z"/>
    <path class="a" d="M130.9,70.4s6.991-20.37-7.99-32.592,1-35.309,3-38.025c0,0-7.99,13.58,10.986,31.235S130.9,70.4,130.9,70.4Z"/>
    <path class="a" d="M91.509,82.277s6.991-20.37-7.99-32.593,1-35.308,3-38.025c0,0-7.99,13.581,10.987,31.235S91.509,82.277,91.509,82.277Z"/>
  </g>
  <g>
    <path class="a" d="M34.266,11.372s6.823,19.878-7.8,31.805.974,34.455,2.923,37.1c0,0-7.8-13.252,10.721-30.479S34.266,11.372,34.266,11.372Z"/>
    <path class="a" d="M20.826-.214s6.822,19.878-7.8,31.8S14,66.045,15.953,68.7c0,0-7.8-13.252,10.721-30.48S20.826-.214,20.826-.214Z"/>
    <path class="a" d="M27.744,80.322s6.822,19.877-7.8,31.8.975,34.455,2.924,37.1c0,0-7.8-13.251,10.721-30.479S27.744,80.322,27.744,80.322Z"/>
    <path class="a" d="M14.3,68.735s6.822,19.878-7.8,31.805S7.482,135,9.431,137.645c0,0-7.8-13.252,10.72-30.479S14.3,68.735,14.3,68.735Z"/>
    <path class="a" d="M54.109,137.645s-6.822-19.878,7.8-31.805-.975-34.454-2.924-37.105c0,0,7.8,13.252-10.721,30.48S54.109,137.645,54.109,137.645Z"/>
    <path class="a" d="M67.549,149.231s-6.822-19.877,7.8-31.8-.975-34.455-2.924-37.105c0,0,7.8,13.251-10.721,30.479S67.549,149.231,67.549,149.231Z"/>
    <path class="a" d="M60.631,68.7s-6.822-19.878,7.8-31.8S67.453,2.436,65.5-.214c0,0,7.8,13.252-10.721,30.479S60.631,68.7,60.631,68.7Z"/>
    <path class="a" d="M74.071,80.282s-6.822-19.878,7.8-31.8-.975-34.455-2.924-37.106c0,0,7.8,13.252-10.72,30.48S74.071,80.282,74.071,80.282Z"/>
    <path class="a" d="M95.109,137.645s-6.822-19.878,7.8-31.805-.975-34.454-2.924-37.105c0,0,7.8,13.252-10.721,30.48S95.109,137.645,95.109,137.645Z"/>
    <path class="a" d="M108.549,149.231s-6.822-19.877,7.8-31.8-.975-34.455-2.924-37.105c0,0,7.8,13.251-10.721,30.479S108.549,149.231,108.549,149.231Z"/>
    <path class="a" d="M101.631,68.7s-6.822-19.878,7.8-31.8-.975-34.455-2.924-37.1c0,0,7.8,13.252-10.721,30.479S101.631,68.7,101.631,68.7Z"/>
    <path class="a" d="M115.071,80.282s-6.822-19.878,7.8-31.8-.975-34.455-2.924-37.106c0,0,7.8,13.252-10.72,30.48S115.071,80.282,115.071,80.282Z"/>
  </g>
  <g>
    <path class="a" d="M29.753,12.221s7.322,21.334-8.367,34.134,1.046,36.979,3.138,39.824c0,0-8.368-14.223,11.505-32.712S29.753,12.221,29.753,12.221Z"/>
    <path class="a" d="M15.329-.214S22.651,21.12,6.961,33.92,8.007,70.9,10.1,73.744c0,0-8.368-14.223,11.506-32.712S15.329-.214,15.329-.214Z"/>
    <path class="a" d="M44.384,79.279s7.322,21.334-8.368,34.134,1.046,36.979,3.138,39.824c0,0-8.368-14.223,11.506-32.713S44.384,79.279,44.384,79.279Z"/>
    <path class="a" d="M29.959,66.844s7.322,21.334-8.367,34.134,1.046,36.979,3.137,39.823c0,0-8.367-14.222,11.506-32.712S29.959,66.844,29.959,66.844Z"/>
    <path class="a" d="M76.344,12.221s7.322,21.334-8.368,34.134,1.046,36.979,3.138,39.824c0,0-8.368-14.223,11.506-32.712S76.344,12.221,76.344,12.221Z"/>
    <path class="a" d="M61.919-.214S69.241,21.12,53.551,33.92,54.6,70.9,56.689,73.744c0,0-8.368-14.223,11.506-32.712S61.919-.214,61.919-.214Z"/>
    <path class="a" d="M90.974,79.279s7.322,21.334-8.367,34.134,1.045,36.979,3.137,39.824c0,0-8.367-14.223,11.506-32.713S90.974,79.279,90.974,79.279Z"/>
    <path class="a" d="M76.55,66.844s7.321,21.334-8.368,34.134,1.046,36.979,3.138,39.823c0,0-8.368-14.222,11.506-32.712S76.55,66.844,76.55,66.844Z"/>
    <path class="a" d="M122.934,12.221s7.322,21.334-8.368,34.134,1.046,36.979,3.138,39.824c0,0-8.368-14.223,11.506-32.712S122.934,12.221,122.934,12.221Z"/>
    <path class="a" d="M108.509-.214s7.322,21.334-8.368,34.134,1.046,36.979,3.138,39.824c0,0-8.368-14.223,11.506-32.712S108.509-.214,108.509-.214Z"/>
    <path class="a" d="M137.565,79.279s7.321,21.334-8.368,34.134,1.046,36.979,3.138,39.824c0,0-8.368-14.223,11.5-32.713S137.565,79.279,137.565,79.279Z"/>
    <path class="a" d="M123.14,66.844s7.322,21.334-8.368,34.134,1.046,36.979,3.138,39.823c0,0-8.368-14.222,11.506-32.712S123.14,66.844,123.14,66.844Z"/>
  </g>
  <g>
    <path class="a" d="M69.5,21.534s6.684,19.475-7.639,31.16.955,33.757,2.864,36.354c0,0-7.638-12.983,10.5-29.862S69.5,21.534,69.5,21.534Z"/>
    <path class="a" d="M56.327,10.182s6.684,19.475-7.639,31.16S49.643,75.1,51.552,77.7c0,0-7.639-12.983,10.5-29.862S56.327,10.182,56.327,10.182Z"/>
    <path class="a" d="M43.332-.214s6.684,19.475-7.639,31.16S36.648,64.7,38.558,67.3c0,0-7.639-12.983,10.5-29.862S43.332-.214,43.332-.214Z"/>
    <path class="a" d="M40.183,72.828s6.684,19.476-7.638,31.161.954,33.757,2.864,36.354c0,0-7.639-12.984,10.5-29.862S40.183,72.828,40.183,72.828Z"/>
    <path class="a" d="M27.015,61.476S33.7,80.952,19.376,92.637s.955,33.757,2.865,36.354c0,0-7.639-12.984,10.5-29.862S27.015,61.476,27.015,61.476Z"/>
    <path class="a" d="M14.021,45.883s6.684,19.475-7.639,31.16S7.337,110.8,9.246,113.4c0,0-7.639-12.983,10.5-29.862S14.021,45.883,14.021,45.883Z"/>
    <path class="a" d="M129.63,38.447s6.684,19.475-7.639,31.16.955,33.757,2.865,36.354c0,0-7.639-12.983,10.5-29.862S129.63,38.447,129.63,38.447Z"/>
    <path class="a" d="M116.462,27.1s6.684,19.475-7.639,31.16.955,33.758,2.865,36.354c0,0-7.639-12.983,10.5-29.862S116.462,27.1,116.462,27.1Z"/>
    <path class="a" d="M103.467,16.7s6.684,19.475-7.639,31.161.955,33.757,2.865,36.354c0,0-7.639-12.984,10.5-29.863S103.467,16.7,103.467,16.7Z"/>
    <path class="a" d="M100.319,89.741S107,109.217,92.68,120.9s.955,33.757,2.865,36.354c0,0-7.639-12.984,10.5-29.862S100.319,89.741,100.319,89.741Z"/>
    <path class="a" d="M87.151,78.389s6.684,19.476-7.639,31.161.955,33.757,2.864,36.354c0,0-7.638-12.984,10.5-29.862S87.151,78.389,87.151,78.389Z"/>
    <path class="a" d="M74.156,62.8s6.684,19.475-7.639,31.16.955,33.758,2.865,36.354c0,0-7.639-12.983,10.5-29.862S74.156,62.8,74.156,62.8Z"/>
  </g>
  <g>
    <path class="a" d="M48.523,20.15s11.99,34.936-13.7,55.9,1.713,60.556,5.138,65.214c0,0-13.7-23.291,18.842-53.568S48.523,20.15,48.523,20.15Z"/>
    <path class="a" d="M24.9-.214s11.99,34.936-13.7,55.9,1.713,60.555,5.139,65.214c0,0-13.7-23.291,18.841-53.569S24.9-.214,24.9-.214Z"/>
    <path class="a" d="M91.523,20.15s11.99,34.936-13.7,55.9,1.713,60.556,5.138,65.214c0,0-13.7-23.291,18.842-53.568S91.523,20.15,91.523,20.15Z"/>
    <path class="a" d="M116.774,36.44s11.99,34.936-13.7,55.9,1.713,60.556,5.138,65.214c0,0-13.7-23.291,18.842-53.569S116.774,36.44,116.774,36.44Z"/>
  </g>
  <g>
    <path class="a" d="M30.5-.214s14.72,42.89-16.823,68.625,2.1,74.343,6.309,80.062c0,0-16.823-28.594,23.131-65.766S30.5-.214,30.5-.214Z"/>
    <path class="a" d="M76.447-.214s14.72,42.89-16.823,68.625,2.1,74.343,6.308,80.062c0,0-16.823-28.594,23.132-65.766S76.447-.214,76.447-.214Z"/>
    <path class="a" d="M122.394-.214s14.721,42.89-16.823,68.625,2.1,74.343,6.309,80.062c0,0-16.823-28.594,23.132-65.766S122.394-.214,122.394-.214Z"/>
  </g>
  <g>
    <path class="a" d="M19.311-.214S28.575,25.2,8.723,40.445s1.324,44.046,3.971,47.435c0,0-10.588-16.942,14.557-38.965S19.311-.214,19.311-.214Z"/>
    <path class="a" d="M48.227-.214S57.491,25.2,37.64,40.445s1.323,44.046,3.97,47.435c0,0-10.587-16.942,14.558-38.965S48.227-.214,48.227-.214Z"/>
    <path class="a" d="M77.144-.214S86.407,25.2,66.556,40.445s1.324,44.046,3.97,47.435c0,0-10.587-16.942,14.558-38.965S77.144-.214,77.144-.214Z"/>
    <path class="a" d="M107.711-.214S116.974,25.2,97.123,40.445s1.324,44.046,3.971,47.435c0,0-10.588-16.942,14.557-38.965S107.711-.214,107.711-.214Z"/>
    <path class="a" d="M136.627-.214S145.891,25.2,126.04,40.445s1.323,44.046,3.97,47.435c0,0-10.587-16.942,14.557-38.965S136.627-.214,136.627-.214Z"/>
    <path class="a" d="M19.311,62.786S28.575,88.2,8.723,103.445s1.324,44.046,3.971,47.435c0,0-10.588-16.942,14.557-38.965S19.311,62.786,19.311,62.786Z"/>
    <path class="a" d="M48.227,62.786S57.491,88.2,37.64,103.445s1.323,44.046,3.97,47.435c0,0-10.587-16.942,14.558-38.965S48.227,62.786,48.227,62.786Z"/>
    <path class="a" d="M77.144,62.786S86.407,88.2,66.556,103.445s1.324,44.046,3.97,47.435c0,0-10.587-16.942,14.558-38.965S77.144,62.786,77.144,62.786Z"/>
    <path class="a" d="M107.711,62.786s9.263,25.412-10.588,40.659,1.324,44.046,3.971,47.435c0,0-10.588-16.942,14.557-38.965S107.711,62.786,107.711,62.786Z"/>
    <path class="a" d="M136.627,62.786s9.264,25.412-10.587,40.659,1.323,44.046,3.97,47.435c0,0-10.587-16.942,14.557-38.965S136.627,62.786,136.627,62.786Z"/>
  </g>
  <g>
    <path class="a" d="M15.512-.214s7.411,21.594-8.47,34.551S8.1,71.767,10.218,74.646c0,0-8.47-14.4,11.646-33.111S15.512-.214,15.512-.214Z"/>
    <path class="a" d="M41.5,3.846S48.907,25.44,33.026,38.4s1.059,37.43,3.176,40.309c0,0-8.47-14.4,11.646-33.111S41.5,3.846,41.5,3.846Z"/>
    <path class="a" d="M25.92,44.721s-7.412,21.594,8.469,34.55-1.058,37.43-3.176,40.31c0,0,8.47-14.4-11.646-33.112S25.92,44.721,25.92,44.721Z"/>
    <path class="a" d="M79.173,38.762s-7.411,21.594,8.47,34.551-1.058,37.43-3.176,40.309c0,0,8.47-14.4-11.646-33.111S79.173,38.762,79.173,38.762Z"/>
    <path class="a" d="M53.189,42.822s-7.411,21.594,8.47,34.551S60.6,114.8,58.483,117.682c0,0,8.47-14.4-11.646-33.111S53.189,42.822,53.189,42.822Z"/>
    <path class="a" d="M68.766,83.7s7.411,21.6-8.47,34.551,1.058,37.43,3.176,40.31c0,0-8.47-14.4,11.646-33.112S68.766,83.7,68.766,83.7Z"/>
    <path class="a" d="M97.393-.214s7.412,21.594-8.47,34.551,1.059,37.43,3.177,40.309c0,0-8.47-14.4,11.646-33.111S97.393-.214,97.393-.214Z"/>
    <path class="a" d="M123.377,3.846s7.411,21.594-8.47,34.551,1.059,37.43,3.177,40.309c0,0-8.47-14.4,11.646-33.111S123.377,3.846,123.377,3.846Z"/>
    <path class="a" d="M107.8,44.721s-7.411,21.594,8.47,34.55-1.059,37.43-3.176,40.31c0,0,8.47-14.4-11.646-33.112S107.8,44.721,107.8,44.721Z"/>
  </g>
  <g>
    <path class="a" d="M17.286.252s8.277,24.116-9.459,38.585,1.183,41.8,3.548,45.017c0,0-9.46-16.077,13.006-36.978S17.286.252,17.286.252Z"/>
    <path class="a" d="M46.305,4.786S54.581,28.9,36.846,43.372s1.182,41.8,3.547,45.016c0,0-9.459-16.077,13.006-36.978S46.305,4.786,46.305,4.786Z"/>
    <path class="a" d="M77.305-.214S85.581,23.9,67.846,38.372s1.182,41.8,3.547,45.016c0,0-9.459-16.077,13.006-36.978S77.305-.214,77.305-.214Z"/>
    <path class="a" d="M28.91,50.434S20.633,74.55,38.369,89.019s-1.183,41.8-3.548,45.017c0,0,9.46-16.078-13.006-36.978S28.91,50.434,28.91,50.434Z"/>
    <path class="a" d="M88.382,43.779S80.105,67.9,97.841,82.365s-1.182,41.8-3.547,45.016c0,0,9.459-16.077-13.006-36.978S88.382,43.779,88.382,43.779Z"/>
    <path class="a" d="M59.364,48.313S51.087,72.429,68.823,86.9s-1.182,41.8-3.547,45.016c0,0,9.459-16.077-13.006-36.978S59.364,48.313,59.364,48.313Z"/>
    <path class="a" d="M108.73.252s8.277,24.116-9.459,38.585,1.182,41.8,3.547,45.017c0,0-9.459-16.077,13.006-36.978S108.73.252,108.73.252Z"/>
    <path class="a" d="M137.748,4.786s8.277,24.116-9.459,38.586,1.182,41.8,3.547,45.016c0,0-9.459-16.077,13.006-36.978S137.748,4.786,137.748,4.786Z"/>
    <path class="a" d="M120.353,50.434s-8.277,24.116,9.459,38.585-1.182,41.8-3.547,45.017c0,0,9.459-16.078-13.006-36.978S120.353,50.434,120.353,50.434Z"/>
  </g>
  <g>
    <path class="a" d="M30.24-.214s1.682,24.091-18.084,33S3.024,71.325,4.4,74.846c0,0-4.727-17.024,20.938-30.661S30.24-.214,30.24-.214Z"/>
    <path class="a" d="M31.776,38.548s1.681,24.091-18.084,33S4.56,110.088,5.938,113.608c0,0-4.727-17.024,20.938-30.66S31.776,38.548,31.776,38.548Z"/>
    <path class="a" d="M33.312,77.311s1.681,24.091-18.084,33S6.1,148.85,7.474,152.37c0,0-4.728-17.023,20.937-30.66S33.312,77.311,33.312,77.311Z"/>
    <path class="a" d="M74.666-.214s1.682,24.091-18.084,33S47.45,71.325,48.829,74.846c0,0-4.728-17.024,20.937-30.661S74.666-.214,74.666-.214Z"/>
    <path class="a" d="M76.2,38.548s1.682,24.091-18.084,33-9.132,38.541-7.754,42.061c0,0-4.727-17.024,20.938-30.66S76.2,38.548,76.2,38.548Z"/>
    <path class="a" d="M77.738,77.311s1.681,24.091-18.084,33S50.522,148.85,51.9,152.37c0,0-4.727-17.023,20.938-30.66S77.738,77.311,77.738,77.311Z"/>
    <path class="a" d="M119.093-.214s1.681,24.091-18.085,33-9.132,38.541-7.753,42.062c0,0-4.728-17.024,20.937-30.661S119.093-.214,119.093-.214Z"/>
    <path class="a" d="M120.628,38.548s1.682,24.091-18.084,33-9.132,38.541-7.753,42.061c0,0-4.728-17.024,20.937-30.66S120.628,38.548,120.628,38.548Z"/>
    <path class="a" d="M122.164,77.311s1.682,24.091-18.084,33-9.132,38.541-7.754,42.061c0,0-4.727-17.023,20.938-30.66S122.164,77.311,122.164,77.311Z"/>
  </g>
  <g>
    <path class="a" d="M19.03-.214S28.158,26.38,8.6,42.336s1.3,46.1,3.912,49.643c0,0-10.431-17.73,14.343-40.778S19.03-.214,19.03-.214Z"/>
    <path class="a" d="M31.848,54.124S22.721,80.718,42.279,96.675s-1.3,46.1-3.912,49.642c0,0,10.431-17.729-14.342-40.778S31.848,54.124,31.848,54.124Z"/>
    <path class="a" d="M51.03-.214S60.158,26.38,40.6,42.336s1.3,46.1,3.912,49.643c0,0-10.431-17.73,14.343-40.778S51.03-.214,51.03-.214Z"/>
    <path class="a" d="M63.848,54.124S54.721,80.718,74.279,96.675s-1.3,46.1-3.912,49.642c0,0,10.431-17.729-14.342-40.778S63.848,54.124,63.848,54.124Z"/>
    <path class="a" d="M83.03-.214S92.158,26.38,72.6,42.336s1.3,46.1,3.912,49.643c0,0-10.431-17.73,14.343-40.778S83.03-.214,83.03-.214Z"/>
    <path class="a" d="M95.848,54.124s-9.127,26.594,10.431,42.551-1.3,46.1-3.912,49.642c0,0,10.431-17.729-14.342-40.778S95.848,54.124,95.848,54.124Z"/>
    <path class="a" d="M115.03-.214s9.128,26.594-10.431,42.55,1.3,46.1,3.912,49.643c0,0-10.431-17.73,14.343-40.778S115.03-.214,115.03-.214Z"/>
    <path class="a" d="M127.848,54.124s-9.127,26.594,10.431,42.551-1.3,46.1-3.912,49.642c0,0,10.431-17.729-14.342-40.778S127.848,54.124,127.848,54.124Z"/>
  </g>
</svg>
