<svg xmlns="http://www.w3.org/2000/svg" viewBox="0 0 1920 1080">
  <defs>
    <style>
      
    </style>
  </defs>
  <title>B2</title>
  <g>
    <path class="a" d="M43.2,0S47.006,67.549.388,146.515h35.2S71.743,92.286,71.743,0Z"/>
    <path class="a" d="M85.062,0s3.806,67.549-42.813,146.515h35.2S113.6,92.286,113.6,0Z"/>
    <path class="a" d="M125.021,0s3.806,67.549-42.813,146.515h35.2S153.563,92.286,153.563,0Z"/>
  </g>
  <g>
    <path class="a" d="M19.388,0s27.618,68.034-19,147h35.2S71.743,92.77,71.743.485Z"/>
    <path class="a" d="M61.388,0s27.618,68.034-19,147h35.2S113.743,92.77,113.743.485Z"/>
    <path class="a" d="M103.388,0s27.618,68.034-19,147h35.2S155.743,92.77,155.743.485Z"/>
  </g>
  <g>
    <path class="a" d="M38.72,0S42.128,60.48.388,131.182H31.906S46.946,82.628,46.946,0Z"/>
    <path class="a" d="M76.2,0s3.407,60.48-38.332,131.182H69.386S81.865,82.628,81.865,0Z"/>
    <path class="a" d="M111.978,0s3.407,60.48-38.332,131.182h31.517S118.574,82.628,118.574,0Z"/>
    <path class="a" d="M147.792,0S151.2,60.48,109.46,131.182h31.517S154.388,82.628,154.388,0Z"/>
  </g>
  <g>
    <polygon class="a" points="77.005 0 50.635 0 0.388 143.298 26.757 143.298 77.005 0"/>
    <polygon class="a" points="108.642 0 82.273 0 32.025 143.298 58.395 143.298 108.642 0"/>
    <polygon class="a" points="140.279 0 113.91 0 63.662 143.298 90.032 143.298 140.279 0"/>
  </g>
  <g>
    <polygon class="a" points="61.215 0 49.755 0 0.388 140.788 11.848 140.788 61.215 0"/>
    <polygon class="a" points="106.533 0 65.297 0 15.93 140.788 57.165 140.788 106.533 0"/>
    <polygon class="a" points="137.829 0 111.921 0 62.554 140.788 88.462 140.788 137.829 0"/>
  </g>
  <g>
    <polygon class="a" points="60.809 0 51.77 0 0.388 146.534 9.426 146.534 60.809 0"/>
    <polygon class="a" points="93.539 0 67.898 0 16.516 146.534 42.157 146.534 93.539 0"/>
    <polygon class="a" points="143.439 0 101.717 0 50.335 146.534 92.056 146.534 143.439 0"/>
  </g>
  <g>
    <polygon class="a" points="85.51 0 49.811 0 0.388 140.948 36.087 140.948 85.51 0"/>
    <polygon class="a" points="99.241 0 89.167 0 39.743 140.948 49.818 140.948 99.241 0"/>
    <polygon class="a" points="137.985 0 103.394 0 53.97 140.948 88.561 140.948 137.985 0"/>
  </g>
  <g>
    <path class="a" d="M36.52,102.627a48.242,48.242,0,1,1,80.716,1.566l20.545,20.544a76.989,76.989,0,1,0-121.924-1.448Z"/>
    <path class="a" d="M104.233,117.087a48.227,48.227,0,0,1-55.207-1.07l-20.5,20.5a76.954,76.954,0,0,0,96.266,1.138Z"/>
  </g>
  <g>
    <rect class="a" x="0.388" width="64.941" height="64.941"/>
    <rect class="a" x="71.487" width="64.941" height="64.941"/>
    <rect class="a" x="71.487" y="71.423" width="64.941" height="64.941" transform="translate(207.915 207.787) rotate(-180)"/>
    <rect class="a" x="0.388" y="71.423" width="64.941" height="64.941" transform="translate(65.717 207.787) rotate(-180)"/>
  </g>
  <g>
    <rect class="a" x="0.388" y="0.106" width="30.47" height="98.647"/>
    <rect class="a" x="71.487" y="0.106" width="64.941" height="64.941"/>
    <rect class="a" x="39.858" y="71.53" width="96.57" height="64.941" transform="translate(176.286 208) rotate(-180)"/>
    <rect class="a" x="0.388" y="104" width="32.47" height="32.47" transform="translate(33.246 240.47) rotate(-180)"/>
    <rect class="a" x="36.388" width="32.47" height="32.47" transform="translate(105.246 32.47) rotate(-180)"/>
  </g>
  <g>
    <rect class="a" x="0.388" y="0.106" width="30.47" height="98.647"/>
    <rect class="a" x="77.858" y="0.106" width="58.57" height="98.647"/>
    <rect class="a" x="39.858" y="103.754" width="96.57" height="32.717" transform="translate(176.286 240.224) rotate(-180)"/>
    <rect class="a" x="0.388" y="104" width="30.47" height="32.47" transform="translate(31.246 240.47) rotate(-180)"/>
    <rect class="a" x="39.858" y="66" width="29" height="32.47" transform="translate(108.717 164.47) rotate(-180)"/>
    <rect class="a" x="39.858" width="29" height="32.47" transform="translate(108.717 32.47) rotate(-180)"/>
  </g>
  <g>
    <rect class="a" x="0.388" width="33.484" height="144.232"/>
    <rect class="a" x="46.794" width="46.411" height="144.232"/>
    <rect class="a" x="106.128" width="33.484" height="144.232"/>
  </g>
  <g>
    <rect class="a" x="0.388" width="33.484" height="144.232"/>
    <rect class="a" x="66.794" width="46.411" height="144.232"/>
    <rect class="a" x="123" width="16.612" height="144.232"/>
  </g>
  <g>
    <rect class="a" x="0.388" width="16.612" height="144.232"/>
    <rect class="a" x="21.388" width="16.612" height="144.232"/>
    <rect class="a" x="66.794" width="46.411" height="144.232"/>
    <rect class="a" x="123" width="16.612" height="144.232"/>
  </g>
  <g>
    <rect class="a" x="0.388" width="16.612" height="144.232"/>
    <rect class="a" x="21.388" width="38.612" height="144.232"/>
    <rect class="a" x="66.794" width="46.411" height="144.232"/>
    <rect class="a" x="123" width="16.612" height="144.232"/>
  </g>
  <g>
    <rect class="a" x="0.388" width="33.484" height="144.232"/>
    <rect class="a" x="39.467" width="61.067" height="144.232"/>
    <rect class="a" x="106.128" width="33.484" height="144.232"/>
  </g>
  <g>
    <rect class="a" x="0.388" width="33.484" height="144.232"/>
    <rect class="a" x="39.467" width="77.533" height="144.232"/>
    <rect class="a" x="123" width="16.612" height="144.232"/>
  </g>
  <polygon class="a" points="0.388 0 0.388 136 118.388 136 118.388 22 49.388 22 49.388 101 19.388 101 19.388 22 19.388 11 49.388 11 118.388 11 129.388 11 129.388 22 129.388 136 136.388 136 136.388 0 0.388 0"/>
  <g>
    <polygon class="a" points="104.388 22 104.388 61 35.388 61 35.388 22 21.388 22 21.388 136 118.388 136 118.388 22 104.388 22"/>
    <polygon class="a" points="0.388 0 0.388 136 10.388 136 10.388 11 19.388 11 21.388 11 118.388 11 129.388 11 129.388 22 129.388 136 136.388 136 136.388 0 0.388 0"/>
  </g>
  <polygon class="a" points="0.388 0 0.388 136 112.388 136 112.388 38 24.388 38 24.388 113 49.388 113 49.388 76 103.388 76 103.388 123 96.388 123 49.388 123 13.388 123 13.388 116.729 13.388 113 13.388 38 13.388 27 24.388 27 112.388 27 123.388 27 123.388 38 123.388 136 136.388 136 136.388 0 0.388 0"/>
  <g>
    <rect class="b" x="3.377" width="117.018" height="100"/>
    <polygon class="a" points="125.812 144 0.388 144 61.886 34.76 125.812 144"/>
  </g>
  <g>
    <polygon class="a" points="125.812 109.24 0.388 109.24 61.886 0 125.812 109.24"/>
    <circle class="b" cx="62.886" cy="103" r="39"/>
  </g>
  <g>
    <circle class="a" cx="74.251" cy="73.863" r="52.856"/>
    <path class="a" d="M74.251,0a73.864,73.864,0,1,0,73.864,73.863A73.864,73.864,0,0,0,74.251,0Zm0,134.839a60.976,60.976,0,1,1,60.976-60.976A60.975,60.975,0,0,1,74.251,134.839Z"/>
  </g>
  <path class="a" d="M106.485,52.972A53.049,53.049,0,1,0,5.156,75.023a53.048,53.048,0,1,0,96.624-.14A52.825,52.825,0,0,0,106.485,52.972ZM97.292,96.8A43.793,43.793,0,1,1,11.279,85.238a53.03,53.03,0,0,0,84.408-.123A43.777,43.777,0,0,1,97.292,96.8Z"/>
  <path class="a" d="M142.392,0,3.557,65.677S10.757,85.726.388,133.8H39.9v-58l5-3v61h43V44.625l5-3V133.8h53.591S151.287,66.178,142.392,0Z"/>
  <g>
    <path class="a" d="M.388,0V137.592h35.68a59.919,59.919,0,1,1,66.233,0H137.98V0Z"/>
    <path class="a" d="M119.973,86.9a50.789,50.789,0,1,0-78.859,42.324H97.255A50.735,50.735,0,0,0,119.973,86.9Z"/>
  </g>
  <g>
    <g>
      <polygon class="a" points="88.355 0.17 67.388 0 0.388 99 0.388 117 28.812 117 67.388 60 88.355 60.17 126.901 117 155.388 117 155.388 99 88.355 0.17"/>
      <polygon class="a" points="94.023 153 134.718 153 87.355 83.17 66.388 83 19.014 153 59.62 153 94.023 153"/>
    </g>
    <polygon class="a" points="0.388 4 0.388 83 55.388 5 0.388 4"/>
    <polygon class="a" points="0.388 83 0.388 4 55.388 5 0.388 83"/>
    <polygon class="a" points="155.388 83 155.388 4 100.388 5 155.388 83"/>
    <polygon class="a" points="27.388 122 0.388 122 0.388 148 8.388 148 27.388 122"/>
    <polygon class="a" points="127.388 122 154.388 122 154.388 148 146.388 148 127.388 122"/>
  </g>
  <g>
    <path class="b" d="M71.687,3.055.388,129.705H145.8Zm.675,49.079L110.906,118H35.282Z"/>
    <polygon class="b" points="0.88 0 0.88 105 62.88 0 0.88 0"/>
    <polygon class="b" points="142.88 0 142.88 105 80.88 0 142.88 0"/>
  </g>
</svg>
