<svg xmlns="http://www.w3.org/2000/svg" viewBox="0 0 1920 1080">
  <defs>
    <style>
      
    </style>
  </defs>
  <title>B3</title>
  <g>
    <polygon class="a" points="96 154.372 0 137.529 0 -0.299 96 16.544 96 154.372"/>
    <rect class="a" x="104" width="51" height="143"/>
  </g>
  <g>
    <polygon class="a" points="96 154.372 0 137.529 0 -0.299 96 16.544 96 154.372"/>
    <polygon class="a" points="155 154.901 104 146.058 104 -0.299 155 8.544 155 154.901"/>
  </g>
  <g>
    <polygon class="a" points="64 155.372 0 137.529 0 -0.299 64 17.544 64 155.372"/>
    <polygon class="a" points="155 155.372 91 137.529 91 -0.299 155 17.544 155 155.372"/>
  </g>
  <g>
    <polygon class="a" points="83 153.372 0 137.529 0 -0.299 83 15.544 83 153.372"/>
    <polygon class="a" points="155 155.372 91 137.529 91 -0.299 155 17.544 155 155.372"/>
  </g>
  <g>
    <rect class="a" y="-0.299" width="90" height="152"/>
    <rect class="a" x="96" y="-0.299" width="53" height="53"/>
    <rect class="a" x="96" y="59.701" width="53" height="91"/>
  </g>
  <g>
    <rect class="a" x="89.75" y="87.951" width="69.5" height="53" transform="translate(238.951 -10.049) rotate(90)"/>
    <rect class="a" x="10.75" y="68.951" width="69.5" height="91" transform="translate(159.951 68.951) rotate(90)"/>
    <rect class="a" x="87.5" y="10.701" width="75" height="53" transform="translate(162.201 -87.799) rotate(90)"/>
    <rect class="a" x="8.5" y="-8.299" width="75" height="91" transform="translate(83.201 -8.799) rotate(90)"/>
  </g>
  <g>
    <rect class="a" y="73.701" width="53" height="77" transform="translate(53 224.402) rotate(180)"/>
    <rect class="a" y="-0.299" width="53" height="71" transform="translate(53 70.402) rotate(180)"/>
    <rect class="a" x="59" y="73.701" width="32" height="77" transform="translate(150 224.402) rotate(180)"/>
    <rect class="a" x="59" y="-0.299" width="32" height="71" transform="translate(150 70.402) rotate(180)"/>
    <rect class="a" x="97" y="73.701" width="53" height="77" transform="translate(247 224.402) rotate(180)"/>
    <rect class="a" x="97" y="-0.299" width="53" height="71" transform="translate(247 70.402) rotate(180)"/>
  </g>
  <g>
    <rect class="a" x="90" y="-0.299" width="53" height="53"/>
    <rect class="a" x="90" y="59.701" width="53" height="91"/>
    <rect class="a" y="-0.299" width="84" height="53"/>
    <rect class="a" y="59.701" width="84" height="91"/>
  </g>
  <rect class="a" y="-0.299" width="93" height="99"/>
  <rect class="a" y="-0.299" width="93" height="48"/>
  <rect class="a" y="-0.299" width="53" height="99"/>
  <rect class="a" y="-0.299" width="53" height="48"/>
  <g>
    <rect class="a" x="55" y="-3.299" width="93" height="99" transform="translate(147.701 -55.299) rotate(90)"/>
    <rect class="a" x="-22.5" y="22.201" width="93" height="48" transform="translate(70.201 22.201) rotate(90)"/>
    <rect class="a" x="75" y="73.701" width="53" height="99" transform="translate(224.701 21.701) rotate(90)"/>
    <rect class="a" x="-2.5" y="99.201" width="53" height="48" transform="translate(147.201 99.201) rotate(90)"/>
  </g>
  <g>
    <rect class="a" y="-0.299" width="46" height="56"/>
    <rect class="a" y="59.701" width="46" height="39"/>
    <rect class="a" x="49" y="59.701" width="44" height="39"/>
    <rect class="a" x="49" y="-0.299" width="101" height="56"/>
    <rect class="a" y="102.701" width="93" height="48"/>
    <rect class="a" x="97" y="59.701" width="53" height="39"/>
    <rect class="a" x="97" y="102.701" width="53" height="48"/>
  </g>
  <g>
    <rect class="a" y="-0.299" width="46" height="99"/>
    <rect class="a" y="102.701" width="46" height="48"/>
    <rect class="a" x="97" y="-0.299" width="53" height="99"/>
    <rect class="a" x="97" y="102.701" width="53" height="48"/>
    <rect class="a" x="49" y="-0.299" width="44" height="151"/>
  </g>
  <g>
    <path class="a" d="M0-.3v148H141V-.3Zm123.261,129.38H17.739V18.32H123.261Z"/>
    <rect class="a" x="35" y="23.701" width="70" height="100"/>
  </g>
  <g>
    <path class="a" d="M0-.3v148H141V-.3Zm123.261,129.38H17.739V18.32H123.261Z"/>
    <rect class="a" x="24.306" y="86.869" width="91.389" height="35.664"/>
    <rect class="a" x="24.306" y="22.869" width="91.389" height="35.664"/>
  </g>
  <g>
    <path class="a" d="M0-.3v148H141V-.3Zm123.261,129.38H17.739V18.32H123.261Z"/>
    <rect class="a" x="26.221" y="23.701" width="40.779" height="100"/>
    <rect class="a" x="75.221" y="23.701" width="40.779" height="100"/>
  </g>
  <g>
    <path class="a" d="M0-.3v148H141V-.3Zm123.261,129.38H17.739V18.32H123.261Z"/>
    <rect class="a" x="35.221" y="52.778" width="69.558" height="41.845"/>
  </g>
  <g>
    <path class="a" d="M0-.3v148H148V-.3ZM129.235,128.936H18.765V18.465h110.47Z"/>
    <circle class="a" cx="75" cy="73.701" r="42"/>
  </g>
  <g>
    <path class="a" d="M0-.3v148H148V-.3ZM129.235,128.936H18.765V18.465h110.47Z"/>
    <circle class="a" cx="52" cy="47.701" r="23.574"/>
    <circle class="a" cx="100.5" cy="96.201" r="23.574"/>
  </g>
  <g>
    <path class="a" d="M0-.3v148H148V-.3ZM129.235,128.936H18.765V18.465h110.47Z"/>
    <circle class="a" cx="64" cy="60.701" r="36.882"/>
  </g>
  <g>
    <path class="a" d="M0-.3v148H148V-.3ZM129.235,128.936H18.765V18.465h110.47Z"/>
    <ellipse class="a" cx="75" cy="69.701" rx="48.834" ry="47.803"/>
  </g>
  <path class="a" d="M0-.3v148H148V-.3ZM63,128.258H14.442V19.143H63Zm68,0H82.442V19.143H131Z"/>
  <path class="a" d="M0-.3v148H148V-.3ZM90,128.258H14.442V19.143H90Zm41,0H115V19.143h16Z"/>
  <path class="a" d="M0-.3v148H148V-.3ZM34,128.258H14.442V19.143H34Zm97,0H115V19.143h16Z"/>
  <path class="a" d="M0-.3v148H148V-.3ZM63,128.258H14.442V19.143H63Zm68,0H82.442V19.143H131Z"/>
  <g>
    <rect class="a" y="-0.299" width="101" height="101"/>
    <rect class="a" x="109" y="41.701" width="42" height="111"/>
    <rect class="a" x="59" y="107.701" width="42" height="45"/>
  </g>
  <g>
    <rect class="a" x="51" y="-0.213" width="101" height="101"/>
    <rect class="a" x="54.5" y="52.287" width="42" height="151" transform="translate(203.287 52.287) rotate(90)"/>
    <rect class="a" x="0.053" y="-0.299" width="45.893" height="49.172"/>
  </g>
  <g>
    <rect class="a" y="-0.299" width="101" height="101"/>
    <rect class="a" x="109" y="-0.299" width="42" height="132"/>
    <rect class="a" x="23" y="107.701" width="78" height="45"/>
  </g>
  <g>
    <rect class="a" y="-0.299" width="101" height="101"/>
    <rect class="a" x="109" y="54.701" width="42" height="98"/>
    <rect class="a" y="107.701" width="101" height="45"/>
  </g>
</svg>
