<svg xmlns="http://www.w3.org/2000/svg" viewBox="0 0 1920 1080">
  <defs>
    <style>
      
    </style>
  </defs>
  <title>B4_画板 1 副本 5</title>
  <g>
    <rect class="a" width="7" height="154"/>
    <rect class="a" x="16" width="7" height="154"/>
    <rect class="a" x="32" width="7" height="154"/>
    <rect class="a" x="48" width="7" height="154"/>
    <rect class="a" x="64" width="7" height="154"/>
    <rect class="a" x="80" width="7" height="154"/>
    <rect class="a" x="96" width="7" height="154"/>
    <rect class="a" x="112" width="7" height="154"/>
    <rect class="a" x="128" width="7" height="154"/>
    <rect class="a" x="144" width="7" height="154"/>
  </g>
  <g>
    <rect class="a" width="7" height="154"/>
    <rect class="a" x="32" width="7" height="154"/>
    <rect class="a" x="64" width="7" height="154"/>
    <rect class="a" x="96" width="7" height="154"/>
    <rect class="a" x="128" width="7" height="154"/>
    <rect class="a" x="13.805" width="11.39" height="154"/>
    <rect class="a" x="45.805" width="11.39" height="154"/>
    <rect class="a" x="77.805" width="11.39" height="154"/>
    <rect class="a" x="109.805" width="11.39" height="154"/>
    <rect class="a" x="141.805" width="11.39" height="154"/>
  </g>
  <g>
    <rect class="a" width="6.5" height="154"/>
    <rect class="a" x="29.714" width="6.5" height="154"/>
    <rect class="a" x="9.576" width="17.063" height="154"/>
    <rect class="a" x="39.929" width="6.5" height="154"/>
    <rect class="a" x="69.643" width="6.5" height="154"/>
    <rect class="a" x="49.504" width="17.063" height="154"/>
    <rect class="a" x="79.857" width="6.5" height="154"/>
    <rect class="a" x="109.571" width="6.5" height="154"/>
    <rect class="a" x="89.433" width="17.063" height="154"/>
    <rect class="a" x="119.786" width="6.5" height="154"/>
    <rect class="a" x="149.5" width="6.5" height="154"/>
    <rect class="a" x="129.362" width="17.063" height="154"/>
  </g>
  <g>
    <rect class="a" width="3" height="154"/>
    <rect class="a" x="9" width="3" height="154"/>
    <rect class="a" x="18" width="3" height="154"/>
    <rect class="a" x="27" width="3" height="154"/>
    <rect class="a" x="36" width="3" height="154"/>
    <rect class="a" x="45" width="3" height="154"/>
    <rect class="a" x="54" width="3" height="154"/>
    <rect class="a" x="63" width="3" height="154"/>
    <rect class="a" x="72" width="3" height="154"/>
    <rect class="a" x="81" width="3" height="154"/>
    <rect class="a" x="90" width="3" height="154"/>
    <rect class="a" x="99" width="3" height="154"/>
    <rect class="a" x="108" width="3" height="154"/>
    <rect class="a" x="117" width="3" height="154"/>
    <rect class="a" x="126" width="3" height="154"/>
    <rect class="a" x="135" width="3" height="154"/>
    <rect class="a" x="144" width="3" height="154"/>
    <rect class="a" x="153" width="3" height="154"/>
  </g>
  <g>
    <rect class="a" x="73.5" y="-73.5" width="7" height="154" transform="translate(80.5 -73.5) rotate(90)"/>
    <rect class="a" x="73.5" y="-57.5" width="7" height="154" transform="translate(96.5 -57.5) rotate(90)"/>
    <rect class="a" x="73.5" y="-41.5" width="7" height="154" transform="translate(112.5 -41.5) rotate(90)"/>
    <rect class="a" x="73.5" y="-25.5" width="7" height="154" transform="translate(128.5 -25.5) rotate(90)"/>
    <rect class="a" x="73.5" y="-9.5" width="7" height="154" transform="translate(144.5 -9.5) rotate(90)"/>
    <rect class="a" x="73.5" y="6.5" width="7" height="154" transform="translate(160.5 6.5) rotate(90)"/>
    <rect class="a" x="73.5" y="22.5" width="7" height="154" transform="translate(176.5 22.5) rotate(90)"/>
    <rect class="a" x="73.5" y="38.5" width="7" height="154" transform="translate(192.5 38.5) rotate(90)"/>
    <rect class="a" x="73.5" y="54.5" width="7" height="154" transform="translate(208.5 54.5) rotate(90)"/>
    <rect class="a" x="73.5" y="70.5" width="7" height="154" transform="translate(224.5 70.5) rotate(90)"/>
  </g>
  <g>
    <rect class="a" x="73.5" y="-73.5" width="7" height="154" transform="translate(80.5 -73.5) rotate(90)"/>
    <rect class="a" x="73.5" y="-41.5" width="7" height="154" transform="translate(112.5 -41.5) rotate(90)"/>
    <rect class="a" x="73.5" y="-9.5" width="7" height="154" transform="translate(144.5 -9.5) rotate(90)"/>
    <rect class="a" x="73.5" y="22.5" width="7" height="154" transform="translate(176.5 22.5) rotate(90)"/>
    <rect class="a" x="73.5" y="54.5" width="7" height="154" transform="translate(208.5 54.5) rotate(90)"/>
    <rect class="a" x="71.305" y="-57.5" width="11.39" height="154" transform="translate(96.5 -57.5) rotate(90)"/>
    <rect class="a" x="71.305" y="-25.5" width="11.39" height="154" transform="translate(128.5 -25.5) rotate(90)"/>
    <rect class="a" x="71.305" y="6.5" width="11.39" height="154" transform="translate(160.5 6.5) rotate(90)"/>
    <rect class="a" x="71.305" y="38.5" width="11.39" height="154" transform="translate(192.5 38.5) rotate(90)"/>
    <rect class="a" x="71.305" y="70.5" width="11.39" height="154" transform="translate(224.5 70.5) rotate(90)"/>
  </g>
  <g>
    <rect class="a" x="73.75" y="-73.75" width="6.5" height="154" transform="translate(80.25 -73.75) rotate(90)"/>
    <rect class="a" x="73.75" y="-44.036" width="6.5" height="154" transform="translate(109.964 -44.036) rotate(90)"/>
    <rect class="a" x="68.469" y="-58.893" width="17.063" height="154" transform="translate(95.107 -58.893) rotate(90)"/>
    <rect class="a" x="73.75" y="-33.821" width="6.5" height="154" transform="translate(120.179 -33.821) rotate(90)"/>
    <rect class="a" x="73.75" y="-4.107" width="6.5" height="154" transform="translate(149.893 -4.107) rotate(90)"/>
    <rect class="a" x="68.469" y="-18.964" width="17.063" height="154" transform="translate(135.036 -18.964) rotate(90)"/>
    <rect class="a" x="73.75" y="6.107" width="6.5" height="154" transform="translate(160.107 6.107) rotate(90)"/>
    <rect class="a" x="73.75" y="35.821" width="6.5" height="154" transform="translate(189.821 35.821) rotate(90)"/>
    <rect class="a" x="68.469" y="20.964" width="17.063" height="154" transform="translate(174.964 20.964) rotate(90)"/>
    <rect class="a" x="73.75" y="46.036" width="6.5" height="154" transform="translate(200.036 46.036) rotate(90)"/>
    <rect class="a" x="73.75" y="75.75" width="6.5" height="154" transform="translate(229.75 75.75) rotate(90)"/>
    <rect class="a" x="68.469" y="60.893" width="17.063" height="154" transform="translate(214.893 60.893) rotate(90)"/>
  </g>
  <g>
    <rect class="a" x="75.5" y="-75.5" width="3" height="154" transform="translate(78.5 -75.5) rotate(90)"/>
    <rect class="a" x="75.5" y="-66.5" width="3" height="154" transform="translate(87.5 -66.5) rotate(90)"/>
    <rect class="a" x="75.5" y="-57.5" width="3" height="154" transform="translate(96.5 -57.5) rotate(90)"/>
    <rect class="a" x="75.5" y="-48.5" width="3" height="154" transform="translate(105.5 -48.5) rotate(90)"/>
    <rect class="a" x="75.5" y="-39.5" width="3" height="154" transform="translate(114.5 -39.5) rotate(90)"/>
    <rect class="a" x="75.5" y="-30.5" width="3" height="154" transform="translate(123.5 -30.5) rotate(90)"/>
    <rect class="a" x="75.5" y="-21.5" width="3" height="154" transform="translate(132.5 -21.5) rotate(90)"/>
    <rect class="a" x="75.5" y="-12.5" width="3" height="154" transform="translate(141.5 -12.5) rotate(90)"/>
    <rect class="a" x="75.5" y="-3.5" width="3" height="154" transform="translate(150.5 -3.5) rotate(90)"/>
    <rect class="a" x="75.5" y="5.5" width="3" height="154" transform="translate(159.5 5.5) rotate(90)"/>
    <rect class="a" x="75.5" y="14.5" width="3" height="154" transform="translate(168.5 14.5) rotate(90)"/>
    <rect class="a" x="75.5" y="23.5" width="3" height="154" transform="translate(177.5 23.5) rotate(90)"/>
    <rect class="a" x="75.5" y="32.5" width="3" height="154" transform="translate(186.5 32.5) rotate(90)"/>
    <rect class="a" x="75.5" y="41.5" width="3" height="154" transform="translate(195.5 41.5) rotate(90)"/>
    <rect class="a" x="75.5" y="50.5" width="3" height="154" transform="translate(204.5 50.5) rotate(90)"/>
    <rect class="a" x="75.5" y="59.5" width="3" height="154" transform="translate(213.5 59.5) rotate(90)"/>
    <rect class="a" x="75.5" y="68.5" width="3" height="154" transform="translate(222.5 68.5) rotate(90)"/>
    <rect class="a" x="75.5" y="77.5" width="3" height="154" transform="translate(231.5 77.5) rotate(90)"/>
  </g>
  <rect class="a" width="6" height="155"/>
  <rect class="a" width="6" height="155"/>
  <rect class="a" width="6" height="155"/>
  <rect class="a" width="6" height="155"/>
  <rect class="a" width="6" height="155"/>
  <g>
    <rect class="a" x="92" width="6" height="155"/>
    <rect class="a" x="110" width="6" height="155"/>
    <rect class="a" x="128" width="6" height="155"/>
    <rect class="a" x="146" width="6" height="155"/>
    <rect class="a" x="74.5" y="-71.5" width="6" height="155" transform="translate(83.5 -71.5) rotate(90)"/>
    <rect class="a" x="74.5" y="-54.5" width="6" height="155" transform="translate(100.5 -54.5) rotate(90)"/>
    <rect class="a" x="74.5" y="-36.5" width="6" height="155" transform="translate(118.5 -36.5) rotate(90)"/>
    <rect class="a" x="74.5" y="-18.5" width="6" height="155" transform="translate(136.5 -18.5) rotate(90)"/>
    <rect class="a" x="74.5" y="-0.5" width="6" height="155" transform="translate(154.5 -0.5) rotate(90)"/>
    <rect class="a" x="74.5" y="17.5" width="6" height="155" transform="translate(172.5 17.5) rotate(90)"/>
    <rect class="a" x="74.5" y="35.5" width="6" height="155" transform="translate(190.5 35.5) rotate(90)"/>
    <rect class="a" x="74.5" y="53.5" width="6" height="155" transform="translate(208.5 53.5) rotate(90)"/>
    <rect class="a" x="74.5" y="71.5" width="6" height="155" transform="translate(226.5 71.5) rotate(90)"/>
  </g>
  <g>
    <rect class="a" y="15" width="154" height="3"/>
    <rect class="a" y="21" width="154" height="3"/>
    <rect class="a" y="27" width="154" height="3"/>
    <rect class="a" y="41" width="154" height="3"/>
    <rect class="a" y="47" width="154" height="3"/>
    <rect class="a" y="53" width="154" height="3"/>
    <rect class="a" y="67" width="154" height="3"/>
    <rect class="a" y="73" width="154" height="3"/>
    <rect class="a" y="79" width="154" height="3"/>
    <rect class="a" y="93" width="154" height="3"/>
    <rect class="a" y="99" width="154" height="3"/>
    <rect class="a" y="105" width="154" height="3"/>
    <rect class="a" y="119" width="154" height="3"/>
    <rect class="a" y="125" width="154" height="3"/>
    <rect class="a" y="131" width="154" height="3"/>
    <rect class="a" x="5" width="2" height="155"/>
    <rect class="a" x="9" width="2" height="155"/>
    <rect class="a" x="13" width="2" height="155"/>
    <rect class="a" x="27" width="2" height="155"/>
    <rect class="a" x="31" width="2" height="155"/>
    <rect class="a" x="35" width="2" height="155"/>
    <rect class="a" x="49" width="2" height="155"/>
    <rect class="a" x="53" width="2" height="155"/>
    <rect class="a" x="57" width="2" height="155"/>
    <rect class="a" x="71" width="2" height="155"/>
    <rect class="a" x="75" width="2" height="155"/>
    <rect class="a" x="79" width="2" height="155"/>
    <rect class="a" x="93" width="2" height="155"/>
    <rect class="a" x="97" width="2" height="155"/>
    <rect class="a" x="101" width="2" height="155"/>
    <rect class="a" x="115" width="2" height="155"/>
    <rect class="a" x="119" width="2" height="155"/>
    <rect class="a" x="123" width="2" height="155"/>
    <rect class="a" x="137" width="2" height="155"/>
    <rect class="a" x="141" width="2" height="155"/>
    <rect class="a" x="145" width="2" height="155"/>
  </g>
  <g>
    <rect class="a" y="13" width="154" height="13"/>
    <rect class="a" y="42" width="154" height="13"/>
    <rect class="a" y="71" width="154" height="13"/>
    <rect class="a" y="100" width="154" height="13"/>
    <rect class="a" y="129" width="154" height="13"/>
    <rect class="a" x="7" width="20" height="155"/>
    <rect class="a" x="47" width="20" height="155"/>
    <rect class="a" x="87" width="20" height="155"/>
    <rect class="a" x="127" width="20" height="155"/>
  </g>
  <g>
    <rect class="a" y="4" width="153" height="6"/>
    <rect class="a" y="24" width="153" height="6"/>
    <rect class="a" y="44" width="153" height="6"/>
    <rect class="a" y="64" width="153" height="6"/>
    <rect class="a" y="84" width="153" height="6"/>
    <rect class="a" y="104" width="153" height="6"/>
    <rect class="a" y="124" width="153" height="6"/>
    <rect class="a" y="144" width="153" height="6"/>
    <rect class="a" x="8" width="6" height="155"/>
    <rect class="a" x="30.436" width="11.128" height="155"/>
    <rect class="a" x="59" width="6" height="155"/>
    <rect class="a" x="81.436" width="11.128" height="155"/>
    <rect class="a" x="110" width="6" height="155"/>
    <rect class="a" x="132.436" width="11.128" height="155"/>
  </g>
  <g>
    <rect class="a" width="16" height="155"/>
    <rect class="a" x="16.409" width="14.737" height="155"/>
    <rect class="a" x="32.819" width="13.474" height="155"/>
    <rect class="a" x="49.228" width="12.21" height="155"/>
    <rect class="a" x="65.638" width="10.947" height="155"/>
    <rect class="a" x="82.047" width="9.684" height="155"/>
    <rect class="a" x="98.456" width="8.421" height="155"/>
    <rect class="a" x="114.866" width="7.157" height="155"/>
    <rect class="a" x="131.275" width="5.894" height="155"/>
    <rect class="a" x="147.685" width="4.631" height="155"/>
  </g>
  <g>
    <rect class="a" y="1.5" width="7" height="154"/>
    <rect class="a" x="16.717" y="1.5" width="10.067" height="154"/>
    <rect class="a" x="33.433" y="1.5" width="13.134" height="154"/>
    <rect class="a" x="56.65" width="16.201" height="154"/>
    <rect class="a" x="147.35" y="1.5" width="7" height="154"/>
    <rect class="a" x="127.567" y="1.5" width="10.067" height="154"/>
    <rect class="a" x="107.783" y="1.5" width="13.134" height="154"/>
    <rect class="a" x="82" y="1.5" width="16.201" height="154"/>
  </g>
  <g>
    <rect class="a" width="4" height="155"/>
    <rect class="a" x="13.346" width="4.399" height="155"/>
    <rect class="a" x="26.692" width="4.798" height="155"/>
    <rect class="a" x="40.038" width="5.197" height="155"/>
    <rect class="a" x="53.384" width="5.596" height="155"/>
    <rect class="a" x="66.73" width="5.995" height="155"/>
    <rect class="a" x="80.076" width="6.394" height="155"/>
    <rect class="a" x="93.422" width="6.793" height="155"/>
    <rect class="a" x="106.768" width="7.192" height="155"/>
    <rect class="a" x="120.114" width="7.591" height="155"/>
    <rect class="a" x="133.459" width="7.99" height="155"/>
    <rect class="a" x="146.805" width="8.389" height="155"/>
  </g>
  <g>
    <rect class="a" width="27" height="155"/>
    <rect class="a" x="32" width="27" height="155"/>
    <rect class="a" x="64" width="27" height="155"/>
    <rect class="a" x="96" width="27" height="155"/>
    <rect class="a" x="128" width="27" height="155"/>
  </g>
  <g>
    <rect class="a" y="136.315" width="155" height="16"/>
    <rect class="a" y="121.169" width="155" height="14.737"/>
    <rect class="a" y="106.023" width="155" height="13.474"/>
    <rect class="a" y="90.877" width="155" height="12.21"/>
    <rect class="a" y="75.731" width="155" height="10.947"/>
    <rect class="a" y="60.585" width="155" height="9.684"/>
    <rect class="a" y="45.438" width="155" height="8.421"/>
    <rect class="a" y="30.292" width="155" height="7.157"/>
    <rect class="a" y="15.146" width="155" height="5.894"/>
    <rect class="a" width="155" height="4.631"/>
  </g>
  <g>
    <rect class="a" x="1.5" y="147.35" width="154" height="7"/>
    <rect class="a" x="1.5" y="127.567" width="154" height="10.067"/>
    <rect class="a" x="1.5" y="107.783" width="154" height="13.134"/>
    <rect class="a" y="81.5" width="154" height="16.201"/>
    <rect class="a" x="1.5" width="154" height="7"/>
    <rect class="a" x="1.5" y="16.717" width="154" height="10.067"/>
    <rect class="a" x="1.5" y="33.433" width="154" height="13.134"/>
    <rect class="a" x="1.5" y="56.15" width="154" height="16.201"/>
  </g>
  <g>
    <rect class="a" y="151.195" width="155" height="4"/>
    <rect class="a" y="137.45" width="155" height="4.399"/>
    <rect class="a" y="123.705" width="155" height="4.798"/>
    <rect class="a" y="109.96" width="155" height="5.197"/>
    <rect class="a" y="96.215" width="155" height="5.596"/>
    <rect class="a" y="82.47" width="155" height="5.995"/>
    <rect class="a" y="68.725" width="155" height="6.394"/>
    <rect class="a" y="54.98" width="155" height="6.793"/>
    <rect class="a" y="41.235" width="155" height="7.192"/>
    <rect class="a" y="27.49" width="155" height="7.591"/>
    <rect class="a" y="13.745" width="155" height="7.99"/>
    <rect class="a" width="155" height="8.389"/>
  </g>
  <g>
    <rect class="a" x="64" y="64" width="27" height="155" transform="translate(-64 219) rotate(-90)"/>
    <rect class="a" x="64" y="32" width="27" height="155" transform="translate(-32 187) rotate(-90)"/>
    <rect class="a" x="64" width="27" height="155" transform="translate(0 155) rotate(-90)"/>
    <rect class="a" x="64" y="-32" width="27" height="155" transform="translate(32 123) rotate(-90)"/>
    <rect class="a" x="64" y="-64" width="27" height="155" transform="translate(64 91) rotate(-90)"/>
  </g>
  <g>
    <polygon class="a" points="9.174 154 0 154 32 0 41.174 0 9.174 154"/>
    <polygon class="a" points="22.174 154 13 154 45 0 54.174 0 22.174 154"/>
    <polygon class="a" points="35.174 154 26 154 58 0 67.174 0 35.174 154"/>
    <polygon class="a" points="48.174 154 39 154 71 0 80.174 0 48.174 154"/>
    <polygon class="a" points="61.174 154 52 154 84 0 93.174 0 61.174 154"/>
    <polygon class="a" points="74.174 154 65 154 97 0 106.174 0 74.174 154"/>
    <polygon class="a" points="87.174 154 78 154 110 0 119.174 0 87.174 154"/>
    <polygon class="a" points="100.174 154 91 154 123 0 132.174 0 100.174 154"/>
    <polygon class="a" points="113.174 154 104 154 136 0 145.174 0 113.174 154"/>
    <polygon class="a" points="126.174 154 117 154 149 0 158.174 0 126.174 154"/>
  </g>
  <g>
    <polygon class="a" points="4.953 154 0 154 72 0 76.953 0 4.953 154"/>
    <polygon class="a" points="12.953 154 8 154 80 0 84.953 0 12.953 154"/>
    <polygon class="a" points="20.953 154 16 154 88 0 92.953 0 20.953 154"/>
    <polygon class="a" points="28.953 154 24 154 96 0 100.953 0 28.953 154"/>
    <polygon class="a" points="36.953 154 32 154 104 0 108.953 0 36.953 154"/>
    <polygon class="a" points="44.953 154 40 154 112 0 116.953 0 44.953 154"/>
    <polygon class="a" points="52.953 154 48 154 120 0 124.953 0 52.953 154"/>
    <polygon class="a" points="60.953 154 56 154 128 0 132.953 0 60.953 154"/>
    <polygon class="a" points="68.953 154 64 154 136 0 140.953 0 68.953 154"/>
    <polygon class="a" points="76.953 154 72 154 144 0 148.953 0 76.953 154"/>
    <polygon class="a" points="84.953 154 80 154 152 0 156.953 0 84.953 154"/>
  </g>
  <g>
    <polygon class="a" points="0 9.174 0 0 154 32 154 41.174 0 9.174"/>
    <polygon class="a" points="0 22.174 0 13 154 45 154 54.174 0 22.174"/>
    <polygon class="a" points="0 35.174 0 26 154 58 154 67.174 0 35.174"/>
    <polygon class="a" points="0 48.174 0 39 154 71 154 80.174 0 48.174"/>
    <polygon class="a" points="0 61.174 0 52 154 84 154 93.174 0 61.174"/>
    <polygon class="a" points="0 74.174 0 65 154 97 154 106.174 0 74.174"/>
    <polygon class="a" points="0 87.174 0 78 154 110 154 119.174 0 87.174"/>
    <polygon class="a" points="0 100.174 0 91 154 123 154 132.174 0 100.174"/>
    <polygon class="a" points="0 113.174 0 104 154 136 154 145.174 0 113.174"/>
    <polygon class="a" points="0 126.174 0 117 154 149 154 158.174 0 126.174"/>
  </g>
  <g>
    <polygon class="a" points="154 9.174 154 0 0 32 0 41.174 154 9.174"/>
    <polygon class="a" points="154 22.174 154 13 0 45 0 54.174 154 22.174"/>
    <polygon class="a" points="154 35.174 154 26 0 58 0 67.174 154 35.174"/>
    <polygon class="a" points="154 48.174 154 39 0 71 0 80.174 154 48.174"/>
    <polygon class="a" points="154 61.174 154 52 0 84 0 93.174 154 61.174"/>
    <polygon class="a" points="154 74.174 154 65 0 97 0 106.174 154 74.174"/>
    <polygon class="a" points="154 87.174 154 78 0 110 0 119.174 154 87.174"/>
    <polygon class="a" points="154 100.174 154 91 0 123 0 132.174 154 100.174"/>
    <polygon class="a" points="154 113.174 154 104 0 136 0 145.174 154 113.174"/>
    <polygon class="a" points="154 126.174 154 117 0 149 0 158.174 154 126.174"/>
  </g>
</svg>
