<svg xmlns="http://www.w3.org/2000/svg" viewBox="0 0 1920 1080">
  <defs>
    <style>
     
    </style>
  </defs>
  <title>B6</title>
  <g>
    <polygon class="a" points="50.766 27.779 0 8.246 0 -3.023 50.766 16.51 50.766 27.779"/>
    <polygon class="a" points="153.019 27.779 102.253 8.246 102.253 -3.023 153.019 16.51 153.019 27.779"/>
    <polygon class="a" points="51.127 27.779 101.892 8.246 101.892 -3.023 51.127 16.51 51.127 27.779"/>
    <polygon class="a" points="51.127 46.779 101.892 27.246 101.892 15.977 51.127 35.51 51.127 46.779"/>
    <polygon class="a" points="50.892 82.779 0.127 63.246 0.127 51.977 50.892 71.51 50.892 82.779"/>
    <polygon class="a" points="152.892 82.779 102.127 63.246 102.127 51.977 152.892 71.51 152.892 82.779"/>
    <polygon class="a" points="51.127 118.779 101.892 99.246 101.892 87.977 51.127 107.51 51.127 118.779"/>
    <polygon class="a" points="50.766 64.315 0 44.782 0 33.513 50.766 53.046 50.766 64.315"/>
    <polygon class="a" points="153.019 64.315 102.253 44.782 102.253 33.513 153.019 53.046 153.019 64.315"/>
    <polygon class="a" points="51.127 64.315 101.892 44.782 101.892 33.513 51.127 53.046 51.127 64.315"/>
    <polygon class="a" points="50.766 100.851 0 81.318 0 70.05 50.766 89.582 50.766 100.851"/>
    <polygon class="a" points="153.019 100.851 102.253 81.318 102.253 70.05 153.019 89.582 153.019 100.851"/>
    <polygon class="a" points="51.127 100.851 101.892 81.318 101.892 70.05 51.127 89.582 51.127 100.851"/>
    <polygon class="a" points="50.766 137.387 0 117.855 0 106.586 50.766 126.118 50.766 137.387"/>
    <polygon class="a" points="153.019 137.387 102.253 117.855 102.253 106.586 153.019 126.118 153.019 137.387"/>
    <polygon class="a" points="51.127 137.387 101.892 117.855 101.892 106.586 51.127 126.118 51.127 137.387"/>
  </g>
  <g>
    <polygon class="a" points="40.711 33.228 0 10.24 0 -3.023 40.711 19.966 40.711 33.228"/>
    <polygon class="a" points="47.797 55.564 7.086 32.575 7.086 19.313 47.797 42.301 47.797 55.564"/>
    <polygon class="a" points="40.711 69.627 0 46.639 0 33.376 40.711 56.364 40.711 69.627"/>
    <polygon class="a" points="47.797 91.963 7.086 68.974 7.086 55.712 47.797 78.7 47.797 91.963"/>
    <polygon class="a" points="40.711 106.026 0 83.037 0 69.775 40.711 92.763 40.711 106.026"/>
    <polygon class="a" points="40.711 142.026 0 119.037 0 105.775 40.711 128.763 40.711 142.026"/>
    <polygon class="a" points="47.797 128.361 7.086 105.373 7.086 92.111 47.797 115.099 47.797 128.361"/>
    <polygon class="a" points="92.021 44.352 51.31 21.364 51.31 8.101 92.021 31.089 92.021 44.352"/>
    <polygon class="a" points="99.107 66.688 58.397 43.699 58.397 30.437 99.107 53.425 99.107 66.688"/>
    <polygon class="a" points="92.021 80.751 51.31 57.762 51.31 44.5 92.021 67.488 92.021 80.751"/>
    <polygon class="a" points="99.107 103.086 58.397 80.098 58.397 66.836 99.107 89.824 99.107 103.086"/>
    <polygon class="a" points="92.021 117.15 51.31 94.161 51.31 80.899 92.021 103.887 92.021 117.15"/>
    <polygon class="a" points="99.107 139.485 58.397 116.497 58.397 103.234 99.107 126.223 99.107 139.485"/>
    <polygon class="a" points="143.331 55.476 102.62 32.487 102.62 19.225 143.331 42.213 143.331 55.476"/>
    <polygon class="a" points="150.417 77.811 109.707 54.823 109.707 41.561 150.417 64.549 150.417 77.811"/>
    <polygon class="a" points="150.417 40.811 109.707 17.823 109.707 4.561 150.417 27.549 150.417 40.811"/>
    <polygon class="a" points="143.331 91.874 102.62 68.886 102.62 55.624 143.331 78.612 143.331 91.874"/>
    <polygon class="a" points="150.417 114.21 109.707 91.222 109.707 77.959 150.417 100.948 150.417 114.21"/>
    <polygon class="a" points="143.331 128.273 102.62 105.285 102.62 92.023 143.331 115.011 143.331 128.273"/>
    <polygon class="a" points="150.417 150.609 109.707 127.621 109.707 114.358 150.417 137.347 150.417 150.609"/>
  </g>
  <g>
    <polygon class="a" points="45.959 40.798 0 13.009 0 -3.023 45.959 24.766 45.959 40.798"/>
    <polygon class="a" points="45.959 63.243 0 35.454 0 19.422 45.959 47.211 45.959 63.243"/>
    <polygon class="a" points="45.959 85.688 0 57.899 0 41.867 45.959 69.656 45.959 85.688"/>
    <polygon class="a" points="45.959 108.133 0 80.344 0 64.312 45.959 92.101 45.959 108.133"/>
    <polygon class="a" points="45.959 130.578 0 102.789 0 86.757 45.959 114.546 45.959 130.578"/>
    <polygon class="a" points="45.959 153.023 0 125.234 0 109.202 45.959 136.991 45.959 153.023"/>
    <polygon class="a" points="137.876 40.798 91.917 13.009 91.917 -3.023 137.876 24.766 137.876 40.798"/>
    <polygon class="a" points="137.876 63.243 91.917 35.454 91.917 19.422 137.876 47.211 137.876 63.243"/>
    <polygon class="a" points="137.876 85.688 91.917 57.899 91.917 41.867 137.876 69.656 137.876 85.688"/>
    <polygon class="a" points="137.876 108.133 91.917 80.344 91.917 64.312 137.876 92.101 137.876 108.133"/>
    <polygon class="a" points="137.876 130.578 91.917 102.789 91.917 86.757 137.876 114.546 137.876 130.578"/>
    <polygon class="a" points="137.876 153.023 91.917 125.234 91.917 109.202 137.876 136.991 137.876 153.023"/>
    <polygon class="a" points="91.917 109.202 45.959 136.991 45.959 153.023 91.917 125.234 91.917 109.202"/>
    <polygon class="a" points="91.917 86.757 45.959 114.546 45.959 130.578 91.917 102.789 91.917 86.757"/>
    <polygon class="a" points="91.917 64.312 45.959 92.101 45.959 108.133 91.917 80.344 91.917 64.312"/>
    <polygon class="a" points="91.917 41.867 45.959 69.656 45.959 85.688 91.917 57.899 91.917 41.867"/>
    <polygon class="a" points="91.917 19.422 45.959 47.211 45.959 63.243 91.917 35.454 91.917 19.422"/>
    <polygon class="a" points="91.917 -3.023 45.959 24.766 45.959 40.798 91.917 13.009 91.917 -3.023"/>
  </g>
  <g>
    <rect class="a" y="-3.023" width="66" height="10"/>
    <rect class="a" x="43" y="12.977" width="66" height="10"/>
    <rect class="a" y="12.977" width="32" height="10"/>
    <rect class="a" y="44.977" width="32" height="10"/>
    <rect class="a" y="76.977" width="32" height="10"/>
    <rect class="a" y="108.977" width="32" height="10"/>
    <rect class="a" x="122" y="12.977" width="32" height="10"/>
    <rect class="a" x="122" y="44.977" width="32" height="10"/>
    <rect class="a" x="122" y="76.977" width="32" height="10"/>
    <rect class="a" x="122" y="108.977" width="32" height="10"/>
    <rect class="a" x="89" y="-3.023" width="66" height="10"/>
    <rect class="a" y="28.977" width="66" height="10"/>
    <rect class="a" x="43" y="44.977" width="66" height="10"/>
    <rect class="a" x="89" y="28.977" width="66" height="10"/>
    <rect class="a" y="60.977" width="66" height="10"/>
    <rect class="a" x="43" y="76.977" width="66" height="10"/>
    <rect class="a" x="89" y="60.977" width="66" height="10"/>
    <rect class="a" y="92.977" width="66" height="10"/>
    <rect class="a" x="43" y="108.977" width="66" height="10"/>
    <rect class="a" x="89" y="92.977" width="66" height="10"/>
    <rect class="a" y="124.977" width="66" height="10"/>
    <rect class="a" x="89" y="124.977" width="66" height="10"/>
  </g>
  <g>
    <rect class="a" y="-3.023" width="11" height="67"/>
    <rect class="a" x="15" y="-3.023" width="11" height="67"/>
    <rect class="a" x="30" y="-3.023" width="11" height="67"/>
    <rect class="a" y="83.977" width="11" height="67"/>
    <rect class="a" x="15" y="73.977" width="11" height="77"/>
    <rect class="a" x="30" y="83.977" width="11" height="67"/>
    <rect class="a" x="92" y="-3.023" width="11" height="67"/>
    <rect class="a" x="107" y="-3.023" width="11" height="67"/>
    <rect class="a" x="122" y="-3.023" width="11" height="67"/>
    <rect class="a" x="92" y="83.977" width="11" height="67"/>
    <rect class="a" x="107" y="73.977" width="11" height="77"/>
    <rect class="a" x="122" y="83.977" width="11" height="67"/>
    <rect class="a" x="76" y="83.977" width="11" height="67" transform="translate(163 234.955) rotate(180)"/>
    <rect class="a" x="61" y="83.977" width="11" height="67" transform="translate(133 234.955) rotate(180)"/>
    <rect class="a" x="46" y="83.977" width="11" height="67" transform="translate(103 234.955) rotate(180)"/>
    <rect class="a" x="76" y="-3.023" width="11" height="67" transform="translate(163 60.955) rotate(180)"/>
    <rect class="a" x="61" y="-3.023" width="11" height="77" transform="translate(133 70.955) rotate(180)"/>
    <rect class="a" x="46" y="-3.023" width="11" height="67" transform="translate(103 60.955) rotate(180)"/>
  </g>
  <g>
    <rect class="a" y="-3.023" width="11.457" height="60.41"/>
    <rect class="a" x="15.623" y="-3.023" width="11.457" height="60.41"/>
    <rect class="a" x="31.246" y="-3.023" width="11.457" height="60.41"/>
    <rect class="a" x="46.87" y="-3.023" width="11.457" height="60.41"/>
    <rect class="a" y="77.176" width="11.457" height="60.41"/>
    <rect class="a" x="15.623" y="77.176" width="11.457" height="60.41"/>
    <rect class="a" x="31.246" y="77.176" width="11.457" height="60.41"/>
    <rect class="a" x="46.87" y="77.176" width="11.457" height="60.41"/>
    <rect class="a" x="82.282" y="-3.023" width="11.457" height="60.41"/>
    <rect class="a" x="97.905" y="-3.023" width="11.457" height="60.41"/>
    <rect class="a" x="113.528" y="-3.023" width="11.457" height="60.41"/>
    <rect class="a" x="129.152" y="-3.023" width="11.457" height="60.41"/>
    <rect class="a" x="82.282" y="77.176" width="11.457" height="60.41"/>
    <rect class="a" x="97.905" y="77.176" width="11.457" height="60.41"/>
    <rect class="a" x="113.528" y="77.176" width="11.457" height="60.41"/>
    <rect class="a" x="129.152" y="77.176" width="11.457" height="60.41"/>
    <rect class="a" x="64.576" y="38.639" width="11.457" height="57.285"/>
    <rect class="a" x="22.914" y="38.639" width="11.457" height="57.285" transform="translate(95.924 38.639) rotate(90)"/>
    <rect class="a" x="106.238" y="38.639" width="11.457" height="57.285" transform="translate(179.248 -44.684) rotate(90)"/>
    <rect class="a" x="64.576" y="-3.023" width="11.457" height="37.496"/>
    <rect class="a" x="64.576" y="100.09" width="11.457" height="37.496"/>
  </g>
  <g>
    <path class="a" d="M75-3.023a75,75,0,1,0,75,75A75,75,0,0,0,75-3.023Zm0,135.449a60.449,60.449,0,1,1,60.449-60.449A60.449,60.449,0,0,1,75,132.426Z"/>
    <path class="a" d="M75,23.977a48,48,0,1,0,48,48A48,48,0,0,0,75,23.977Zm0,79.74a31.74,31.74,0,1,1,31.74-31.74A31.74,31.74,0,0,1,75,103.717Z"/>
  </g>
  <rect class="a" y="-3.023" width="49" height="13"/>
  <g>
    <rect class="a" x="46.462" y="18.588" width="52.945" height="14.047"/>
    <rect class="a" x="46.462" y="40.198" width="52.945" height="14.047"/>
    <rect class="a" x="46.462" y="61.808" width="52.945" height="14.047"/>
    <rect class="a" x="46.462" y="83.418" width="52.945" height="14.047"/>
    <rect class="a" x="46.462" y="105.029" width="52.945" height="14.047"/>
    <rect class="a" x="46.462" y="126.639" width="52.945" height="14.047"/>
    <rect class="a" x="23.771" y="-3.023" width="16.208" height="57.267"/>
    <rect class="a" y="-3.023" width="16.208" height="57.267"/>
    <rect class="a" y="83.418" width="16.208" height="57.267"/>
    <rect class="a" x="23.771" y="83.418" width="16.208" height="57.267"/>
    <rect class="a" x="104.81" y="-3.023" width="16.208" height="57.267"/>
    <rect class="a" x="104.81" y="83.418" width="16.208" height="57.267"/>
    <rect class="a" x="127.5" y="-3.023" width="16.208" height="57.267"/>
    <rect class="a" x="127.5" y="83.418" width="16.208" height="57.267"/>
  </g>
</svg>
