<svg xmlns="http://www.w3.org/2000/svg" viewBox="0 0 1920 1080">
  <defs>
    <style>
      
    </style>
  </defs>
  <title>B7</title>
  <g>
    <rect class="a" y="1" width="31" height="155"/>
    <rect class="a" x="35.89" y="1" width="9.22" height="155"/>
    <rect class="a" x="51" y="1" width="31" height="155"/>
    <rect class="a" x="107.89" y="1" width="9.22" height="155"/>
    <rect class="a" x="89.89" y="1" width="9.22" height="155"/>
    <rect class="a" x="123" y="1" width="31" height="155"/>
  </g>
  <g>
    <rect class="a" y="1" width="10" height="155"/>
    <rect class="a" x="22" y="1" width="10" height="155"/>
    <rect class="a" x="44" y="1" width="10" height="155"/>
    <rect class="a" x="66" y="1" width="10" height="155"/>
    <rect class="a" x="88" y="1" width="10" height="155"/>
    <rect class="a" x="110" y="1" width="10" height="155"/>
    <rect class="a" x="132" y="1" width="10" height="155"/>
  </g>
  <g>
    <rect class="a" x="98" y="1" width="10" height="155"/>
    <rect class="a" y="1" width="10" height="155"/>
    <rect class="a" x="116" y="1" width="10" height="155"/>
    <rect class="a" x="134" y="1" width="10" height="155"/>
    <rect class="a" x="22" y="1" width="66" height="155"/>
  </g>
  <g>
    <rect class="a" y="1" width="13.518" height="155"/>
    <rect class="a" x="33.276" y="1" width="13.518" height="155"/>
    <rect class="a" x="66.551" y="1" width="13.518" height="155"/>
    <rect class="a" x="99.827" y="1" width="13.518" height="155"/>
    <rect class="a" x="133.102" y="1" width="13.518" height="155"/>
    <rect class="a" x="85.81" y="93" width="9" height="63"/>
  </g>
  <rect class="a" y="1" width="9" height="63"/>
  <g>
    <rect class="a" y="117" width="154" height="39"/>
    <rect class="a" y="47" width="154" height="39"/>
    <rect class="a" y="1" width="154" height="39"/>
    <rect class="a" y="92" width="71" height="19"/>
    <rect class="a" x="83" y="92" width="71" height="19"/>
  </g>
  <g>
    <rect class="a" y="117" width="154" height="39"/>
    <rect class="a" y="36" width="154" height="39"/>
    <rect class="a" y="1" width="154" height="19"/>
    <rect class="a" y="92" width="71" height="19"/>
    <rect class="a" x="83" y="83" width="71" height="19"/>
  </g>
  <g>
    <rect class="a" y="137" width="154" height="19"/>
    <rect class="a" y="27" width="154" height="39"/>
    <rect class="a" y="1" width="154" height="19"/>
    <rect class="a" y="76.71" width="71" height="49.579"/>
    <rect class="a" x="83" y="107" width="71" height="19"/>
    <rect class="a" x="83" y="77" width="71" height="19"/>
  </g>
  <g>
    <rect class="a" y="117" width="154" height="39"/>
    <rect class="a" y="47" width="155" height="39"/>
    <rect class="a" y="1" width="155" height="28"/>
    <rect class="a" y="92" width="35" height="19"/>
    <rect class="a" x="42" y="92" width="112" height="19"/>
  </g>
  <g>
    <rect class="a" y="1" width="36" height="154"/>
    <rect class="a" x="124" y="1" width="29" height="154"/>
    <rect class="a" x="45" y="1" width="18" height="91"/>
    <rect class="a" x="45" y="110" width="18" height="45"/>
    <rect class="a" x="96" y="1" width="18" height="91"/>
    <rect class="a" x="96" y="110" width="18" height="45"/>
    <rect class="a" x="71" y="66" width="18" height="89"/>
    <rect class="a" x="71" y="1" width="18" height="44"/>
  </g>
  <g>
    <rect class="a" y="1" width="44.012" height="20.31"/>
    <rect class="a" x="28.206" y="28.793" width="43.794" height="9.621"/>
    <rect class="a" y="28.793" width="21" height="9.621"/>
    <rect class="a" x="83" y="28.793" width="43.794" height="9.621" transform="translate(209.794 67.207) rotate(-180)"/>
    <rect class="a" x="134" y="28.793" width="21" height="9.621" transform="translate(289 67.207) rotate(-180)"/>
    <rect class="a" x="55.494" y="1" width="44.012" height="20.31"/>
    <rect class="a" x="110.988" y="1" width="44.012" height="20.31"/>
    <rect class="a" y="45.897" width="44.012" height="20.31"/>
    <rect class="a" x="28.206" y="73.69" width="43.794" height="9.621"/>
    <rect class="a" y="73.69" width="21" height="9.621"/>
    <rect class="a" x="83" y="73.69" width="43.794" height="9.621" transform="translate(209.794 157) rotate(-180)"/>
    <rect class="a" x="134" y="73.69" width="21" height="9.621" transform="translate(289 157) rotate(-180)"/>
    <rect class="a" x="55.494" y="45.897" width="44.012" height="20.31"/>
    <rect class="a" x="110.988" y="45.897" width="44.012" height="20.31"/>
    <rect class="a" y="90.793" width="44.012" height="20.31"/>
    <rect class="a" x="28.206" y="118.586" width="43.794" height="9.621"/>
    <rect class="a" y="118.586" width="21" height="9.621"/>
    <rect class="a" x="83" y="118.586" width="43.794" height="9.621" transform="translate(209.794 246.793) rotate(-180)"/>
    <rect class="a" x="134" y="118.586" width="21" height="9.621" transform="translate(289 246.793) rotate(-180)"/>
    <rect class="a" x="55.494" y="90.793" width="44.012" height="20.31"/>
    <rect class="a" x="110.988" y="90.793" width="44.012" height="20.31"/>
    <rect class="a" y="135.69" width="44.012" height="20.31"/>
    <rect class="a" x="55.494" y="135.69" width="44.012" height="20.31"/>
    <rect class="a" x="110.988" y="135.69" width="44.012" height="20.31"/>
  </g>
  <g>
    <rect class="a" y="1" width="155" height="8"/>
    <rect class="a" y="81" width="155" height="8"/>
    <rect class="a" y="15" width="155" height="27"/>
    <rect class="a" y="48" width="155" height="27"/>
    <rect class="a" y="95" width="155" height="27"/>
    <rect class="a" y="128" width="155" height="27"/>
  </g>
  <g>
    <rect class="a" y="1" width="23" height="155"/>
    <rect class="a" x="32" y="1" width="23" height="155"/>
    <rect class="a" x="128" y="1" width="23" height="155"/>
    <g>
      <rect class="a" x="64" y="1" width="23" height="69"/>
      <rect class="a" x="64" y="86" width="23" height="70"/>
    </g>
    <rect class="a" x="96" y="1" width="23" height="28"/>
    <rect class="a" x="96" y="43" width="23" height="27"/>
    <rect class="a" x="96" y="86" width="23" height="70"/>
  </g>
  <g>
    <polygon class="b" points="152 156 155 156 155 151.929 152 156"/>
    <polygon class="a" points="109 1 0 156 45 156 154 1 109 1"/>
    <polygon class="a" points="155 32.5 64 156 97 156 155 77.286 155 32.5"/>
    <polygon class="a" points="155 107.143 119 156 152 156 155 151.929 155 107.143"/>
    <polygon class="a" points="54 1 0 76.83 0 123.17 87 1 54 1"/>
    <polygon class="a" points="0 1 0 47.34 33 1 0 1"/>
  </g>
  <g>
    <polygon class="b" points="0 153 0 156 4.071 156 0 153"/>
    <polygon class="a" points="155 110 0 1 0 46 155 155 155 110"/>
    <polygon class="a" points="123.5 156 0 65 0 98 78.714 156 123.5 156"/>
    <polygon class="a" points="48.857 156 0 120 0 153 4.071 156 48.857 156"/>
    <polygon class="a" points="155 55 79.17 1 32.83 1 155 88 155 55"/>
    <polygon class="a" points="155 1 108.66 1 155 34 155 1"/>
  </g>
  <g>
    <rect class="a" y="1" width="28.381" height="153"/>
    <rect class="a" x="38.701" y="1" width="28.381" height="153"/>
    <rect class="a" x="77.401" y="1" width="28.381" height="153"/>
    <rect class="a" x="116.102" y="1" width="28.381" height="153"/>
  </g>
  <g>
    <polygon class="a" points="43 75 31 75 7 1 19 1 43 75"/>
    <polygon class="a" points="68 75 56 75 32 1 44 1 68 75"/>
    <polygon class="a" points="93 75 81 75 57 1 69 1 93 75"/>
    <polygon class="a" points="118 75 106 75 82 1 94 1 118 75"/>
    <polygon class="a" points="143 75 131 75 107 1 119 1 143 75"/>
    <polygon class="a" points="36 152 24 152 0 78 12 78 36 152"/>
    <polygon class="a" points="61 152 49 152 25 78 37 78 61 152"/>
    <polygon class="a" points="86 152 74 152 50 78 62 78 86 152"/>
    <polygon class="a" points="111 152 99 152 75 78 87 78 111 152"/>
    <polygon class="a" points="136 152 124 152 100 78 112 78 136 152"/>
  </g>
</svg>
