<svg xmlns="http://www.w3.org/2000/svg" viewBox="0 0 1920 1080">
  <title>B99</title>
  <g>
    <circle cx="22.79" cy="22.67" r="22.69"/>
    <path d="M44.7,28.55s-4.13,23-33.48,22.06c0,0,12.4-5.62,13.65-13.28S40,24.14,44.7,28.55Z"/>
  </g>
  <path d="M24.78,0A24.58,24.58,0,1,0,49.36,24.55,24.58,24.58,0,0,0,24.78,0Zm11,31.66c-5,7.72-13.93,10.81-20,6.9s-6.94-13.33-2-21,13.93-10.82,20-6.91S40.73,23.91,35.76,31.63Z"/>
  <g>
    <polygon points="22 39.97 6 39.97 0 -0.03 22 -0.03 22 39.97"/>
    <polygon points="47 39.97 31 39.97 25 -0.03 47 -0.03 47 39.97"/>
  </g>
  <polygon points="42 40.97 20 40.97 8 -0.03 30 -0.03 42 40.97"/>
</svg>
