<svg xmlns="http://www.w3.org/2000/svg" viewBox="0 0 1920 1080">
  <defs>
    <style>
      
    </style>
  </defs>
  <title>N2</title>
  <g>
    <g>
      <polygon class="a" points="0 0 16.115 154 27.933 0 0 0"/>
      <polygon class="a" points="30.082 0 46.197 154 58.015 0 30.082 0"/>
      <polygon class="a" points="60.164 0 76.279 154 88.097 0 60.164 0"/>
      <polygon class="a" points="90.246 0 106.361 154 118.179 0 90.246 0"/>
      <polygon class="a" points="120.328 0 136.443 154 148.261 0 120.328 0"/>
    </g>
    <g>
      <path class="b" d="M0,154S4.276,34,38.483,0c0,0-1.069,153,16.034,154Z"/>
      <path class="b" d="M50.241,154S54.517,34,88.724,0c0,0-1.069,153,16.035,154Z"/>
      <path class="b" d="M100.483,154S104.759,34,138.966,0c0,0-1.069,153,16.034,154Z"/>
    </g>
    <g>
      <path class="b" d="M0,155s1-45,54-89c0,0-16.586,88,.517,89Z"/>
      <path class="b" d="M50.241,155S50,85,105,41c0,0-17.345,113-.241,114Z"/>
      <path class="b" d="M100.483,155S110,30,155,0c0,0-7,98,0,155Z"/>
    </g>
    <g>
      <path class="b" d="M0,154S4.276,34,38.483,0c0,0-1.069,153,16.034,154Z"/>
      <path class="b" d="M35.241,154S39.517,34,73.724,0c0,0-1.069,153,16.035,154Z"/>
      <path class="b" d="M155.759,154S151.483,34,117.276,0c0,0,1.069,153-16.035,154Z"/>
      <path class="b" d="M120.517,154S116.241,34,82.034,0C82.034,0,83.1,153,66,154Z"/>
    </g>
    <g>
      <path class="b" d="M40,154S43.417,34,70.78,0c0,0-.855,153,12.826,154Z"/>
      <path class="b" d="M43.61,0S40.19,120,12.826,154C12.826,154,13.682,1,0,0Z"/>
      <path class="b" d="M110.39,154S113.81,34,141.174,0c0,0-.856,153,12.826,154Z"/>
      <path class="b" d="M114,0S110.583,120,83.22,154c0,0,.855-153-12.826-154Z"/>
    </g>
    <g>
      <rect class="b" width="12.558" height="155"/>
      <path class="b" d="M49.333,14S23.321-1,12.558,29C12.558,29,37.673,37,49.333,14Z"/>
      <path class="b" d="M49.333,43S23.321,28,12.558,58C12.558,58,37.673,66,49.333,43Z"/>
      <path class="b" d="M49.333,72S23.321,57,12.558,87C12.558,87,37.673,95,49.333,72Z"/>
      <path class="b" d="M49.333,101S23.321,86,12.558,116C12.558,116,37.673,124,49.333,101Z"/>
      <path class="b" d="M49.333,130s-26.012-15-36.775,15C12.558,145,37.673,153,49.333,130Z"/>
      <rect class="b" x="49.333" width="12.558" height="155"/>
      <path class="b" d="M98.667,14S72.655-1,61.891,29C61.891,29,87.006,37,98.667,14Z"/>
      <path class="b" d="M98.667,43S72.655,28,61.891,58C61.891,58,87.006,66,98.667,43Z"/>
      <path class="b" d="M98.667,72S72.655,57,61.891,87C61.891,87,87.006,95,98.667,72Z"/>
      <path class="b" d="M98.667,101S72.655,86,61.891,116C61.891,116,87.006,124,98.667,101Z"/>
      <path class="b" d="M98.667,130s-26.012-15-36.776,15C61.891,145,87.006,153,98.667,130Z"/>
      <rect class="b" x="98.667" width="12.558" height="155"/>
      <path class="b" d="M148,14S121.988-1,111.224,29C111.224,29,136.339,37,148,14Z"/>
      <path class="b" d="M148,43s-26.012-15-36.776,15C111.224,58,136.339,66,148,43Z"/>
      <path class="b" d="M148,72s-26.012-15-36.776,15C111.224,87,136.339,95,148,72Z"/>
      <path class="b" d="M148,101s-26.012-15-36.776,15C111.224,116,136.339,124,148,101Z"/>
      <path class="b" d="M148,130s-26.012-15-36.776,15C111.224,145,136.339,153,148,130Z"/>
    </g>
    <g>
      <rect class="b" width="12.558" height="155"/>
      <path class="b" d="M49.333,14S23.321-1,12.558,29C12.558,29,37.673,37,49.333,14Z"/>
      <path class="b" d="M49.333,43S23.321,28,12.558,58C12.558,58,37.673,66,49.333,43Z"/>
      <path class="b" d="M49.333,72S23.321,57,12.558,87C12.558,87,37.673,95,49.333,72Z"/>
      <path class="b" d="M49.333,101S23.321,86,12.558,116C12.558,116,37.673,124,49.333,101Z"/>
      <path class="b" d="M49.333,130s-26.012-15-36.775,15C12.558,145,37.673,153,49.333,130Z"/>
      <rect class="b" x="49.333" width="12.558" height="155"/>
      <rect class="b" x="86" width="12.558" height="155"/>
      <path class="b" d="M135.333,14S109.321-1,98.558,29C98.558,29,123.673,37,135.333,14Z"/>
      <path class="b" d="M135.333,43S109.321,28,98.558,58C98.558,58,123.673,66,135.333,43Z"/>
      <path class="b" d="M135.333,72S109.321,57,98.558,87C98.558,87,123.673,95,135.333,72Z"/>
      <path class="b" d="M135.333,101s-26.012-15-36.775,15C98.558,116,123.673,124,135.333,101Z"/>
      <path class="b" d="M135.333,130s-26.012-15-36.775,15C98.558,145,123.673,153,135.333,130Z"/>
      <rect class="b" x="135.333" width="12.558" height="155"/>
    </g>
    <g>
      <polygon class="b" points="67.179 155 55.629 155 26.197 0 37.747 0 67.179 155"/>
      <polygon class="b" points="50.623 155 39.074 155 17 38 28.55 38 50.623 155"/>
      <polygon class="b" points="33.623 155 22.074 155 0 38 11.55 38 33.623 155"/>
      <polygon class="b" points="154.054 155 74.024 155 44.592 0 124.622 0 154.054 155"/>
    </g>
    <g>
      <rect class="b" width="12.558" height="155"/>
      <rect class="b" x="18" width="12.558" height="155"/>
      <rect class="b" x="36" width="12.558" height="155"/>
      <rect class="b" x="54" width="12.558" height="155"/>
      <rect class="b" x="72" width="12.558" height="155"/>
      <rect class="b" x="135" width="12.558" height="155"/>
      <path class="b" d="M123.333,14S97.321-1,86.558,29C86.558,29,111.673,37,123.333,14Z"/>
      <path class="b" d="M123.333,43S97.321,28,86.558,58C86.558,58,111.673,66,123.333,43Z"/>
      <path class="b" d="M123.333,72S97.321,57,86.558,87C86.558,87,111.673,95,123.333,72Z"/>
      <path class="b" d="M123.333,101S97.321,86,86.558,116C86.558,116,111.673,124,123.333,101Z"/>
      <path class="b" d="M123.333,130s-26.012-15-36.775,15C86.558,145,111.673,153,123.333,130Z"/>
    </g>
    <g>
      <path class="b" d="M33.126,3.69S9.7-9.821,0,17.2C0,17.2,22.623,24.408,33.126,3.69Z"/>
      <path class="b" d="M58.524,21.255S17.129-2.616,0,45.126C0,45.126,39.968,57.857,58.524,21.255Z"/>
      <path class="b" d="M80.345,55.889S23.516,23.118,0,88.66C0,88.66,54.87,106.138,80.345,55.889Z"/>
      <path class="b" d="M93.746,94.263S27.438,56.026,0,132.5C0,132.5,64.021,152.893,93.746,94.263Z"/>
      <path class="b" d="M138.924,119.373S127,143.65,103.889,126.616C103.889,126.616,118.657,108.025,138.924,119.373Z"/>
      <path class="b" d="M139.224,94.635s-21.068,42.89-61.9,12.8C77.327,107.431,103.418,74.586,139.224,94.635Z"/>
      <path class="b" d="M148.712,54.208s-28.923,58.881-84.975,17.567C63.737,71.775,99.556,26.684,148.712,54.208Z"/>
      <path class="b" d="M138.781,10.387s-33.747,68.7-99.147,20.5C39.634,30.883,81.426-21.729,138.781,10.387Z"/>
    </g>
    <g>
      <polygon class="b" points="154 154 137.261 0 124.986 154 154 154"/>
      <polygon class="b" points="122.754 154 106.014 0 93.739 154 122.754 154"/>
      <polygon class="b" points="91.507 154 74.768 0 62.493 154 91.507 154"/>
      <polygon class="b" points="60.261 154 43.522 0 31.246 154 60.261 154"/>
      <polygon class="b" points="29.014 154 12.275 0 0 154 29.014 154"/>
    </g>
    <g>
      <polygon class="b" points="148.261 154 132.146 0 120.328 154 148.261 154"/>
      <polygon class="b" points="118.179 154 102.064 0 90.246 154 118.179 154"/>
      <polygon class="b" points="88.097 154 71.982 0 60.164 154 88.097 154"/>
      <polygon class="b" points="58.015 154 41.9 0 30.082 154 58.015 154"/>
      <polygon class="b" points="27.933 154 11.818 0 0 154 27.933 154"/>
    </g>
    <g>
      <polygon class="b" points="0 154 154 137.261 0 124.986 0 154"/>
      <polygon class="b" points="0 122.754 154 106.014 0 93.739 0 122.754"/>
      <polygon class="b" points="0 91.507 154 74.768 0 62.493 0 91.507"/>
      <polygon class="b" points="0 60.261 154 43.522 0 31.246 0 60.261"/>
      <polygon class="b" points="0 29.014 154 12.275 0 0 0 29.014"/>
    </g>
    <g>
      <polygon class="b" points="154 0 0 16.739 154 29.014 154 0"/>
      <polygon class="b" points="154 31.246 0 47.986 154 60.261 154 31.246"/>
      <polygon class="b" points="154 62.493 0 79.232 154 91.507 154 62.493"/>
      <polygon class="b" points="154 93.739 0 110.478 154 122.754 154 93.739"/>
      <polygon class="b" points="154 124.986 0 141.725 154 154 154 124.986"/>
    </g>
    <polygon class="b" points="155 155 0 154 78 0 155 155"/>
    <g>
      <polygon class="b" points="150.404 157.957 0 157.416 75.687 73.972 150.404 157.957"/>
      <polygon class="b" points="150.404 120.972 0 120.43 75.687 36.986 150.404 120.972"/>
      <polygon class="b" points="150.404 83.986 0 83.444 75.687 0 150.404 83.986"/>
    </g>
    <g>
      <polygon class="b" points="151.179 151.528 0.775 150.986 76.462 67.542 151.179 151.528"/>
      <polygon class="b" points="151.179 114.542 0.775 114 76.462 30.556 151.179 114.542"/>
      <polygon class="b" points="139.665 71.126 12.29 70.667 76.388 0 139.665 71.126"/>
      <polygon class="b" points="67.557 2.578 6.226 68.992 0 1.567 67.557 2.578"/>
      <polygon class="b" points="84 2.553 145.331 68.967 151.557 1.542 84 2.553"/>
    </g>
    <g>
      <rect class="b" width="31" height="155"/>
      <rect class="a" x="15" y="49" width="26" height="106"/>
      <rect class="b" x="49" width="31" height="155"/>
      <rect class="b" x="98" width="31" height="155"/>
      <rect class="a" x="64" y="49" width="26" height="106"/>
      <rect class="a" x="113" y="49" width="26" height="106"/>
    </g>
    <g>
      <rect class="b" width="31" height="155"/>
      <rect class="a" x="15" width="26" height="155"/>
      <rect class="b" x="49" width="31" height="155"/>
      <rect class="b" x="98" width="31" height="155"/>
      <rect class="a" x="64" y="49" width="16" height="106"/>
      <rect class="a" x="90" y="49" width="26" height="106"/>
    </g>
    <g>
      <rect class="b" width="31" height="155"/>
      <rect class="a" x="15" width="26" height="155"/>
      <rect class="b" x="49" width="31" height="155"/>
      <rect class="b" x="98" width="31" height="155"/>
      <rect class="a" x="124" y="49" width="16" height="106"/>
      <rect class="a" x="64.372" y="49" width="49.256" height="106"/>
    </g>
    <g>
      <rect class="b" width="31" height="155"/>
      <rect class="b" x="49" width="31" height="155"/>
      <rect class="b" x="98" width="31" height="155"/>
      <polygon class="a" points="71 155 37.372 155 72.372 55 106 55 71 155"/>
      <polygon class="a" points="69.732 19 47 19 0 155 22.732 155 69.732 19"/>
    </g>
    <polygon class="b" points="71 0 0 154 149 155 150 84 71 0"/>
    <polygon class="b" points="71 155 0 1 149 0 150 71 71 155"/>
    <polygon class="b" points="155 79 1 150 0 1 71 0 155 79"/>
    <g>
      <polygon class="a" points="0 0 150.009 144.8 0 143.759 0 0"/>
      <polygon class="b" points="150.009 0 0 144.8 150.009 143.759 150.009 0"/>
    </g>
    <g>
      <polygon class="a" points="0 150.009 144.8 0 143.759 150.009 0 150.009"/>
      <polygon class="b" points="0 0 144.8 150.009 143.759 0 0 0"/>
    </g>
    <g>
      <rect class="b" width="153" height="44"/>
      <polygon class="b" points="153 63.278 0 93.278 0 78.722 153 48.722 153 63.278"/>
      <polygon class="b" points="153 81.278 0 111.278 0 96.722 153 66.722 153 81.278"/>
      <rect class="b" y="116.591" width="153" height="24.817"/>
    </g>
    <path class="b" d="M155,0S92,0,70,60,0,58,0,58l1,78H156Z"/>
    <path class="b" d="M154,0S124,39,62,33,0,61.182,0,61.182V151H154Z"/>
  </g>
</svg>
