<svg xmlns="http://www.w3.org/2000/svg" viewBox="0 0 1920 1080">
  <defs>
    <style>
      
    </style>
  </defs>
  <title>N10</title>
  <g>
    <polygon class="a" points="43.993 3 97.993 23 68.492 118.613 0.492 53.613 43.993 3"/>
    <polygon class="a" points="0 63.386 1 153.386 87 153.386 0 63.386"/>
    <polygon class="a" points="114.709 15.203 75 130.386 98.293 153.23 155 153.386 155.709 29.203 114.709 15.203"/>
  </g>
  <g>
    <polygon class="a" points="125.617 3 154.919 52.572 71 107.757 60 20.757 125.617 3"/>
    <polygon class="a" points="20 157.757 146 157.757 154.912 58.063 20 157.757"/>
    <polygon class="a" points="11.521 40.35 0 84.757 0 150.757 58 115.757 53.46 28.189 11.521 40.35"/>
  </g>
  <g>
    <polygon class="a" points="70 3 122 39 72 118 5 40 70 3"/>
    <polygon class="a" points="0 43 1 152 93 152 0 43"/>
    <polygon class="a" points="130.543 43.094 84 130 102 152 155 152 155 55 130.543 43.094"/>
  </g>
  <g>
    <polygon class="a" points="54.709 154.77 69.709 99.386 155.709 58.133 154.709 155.386 54.709 154.77"/>
    <polygon class="a" points="118.033 67.91 154.709 50.386 67.417 3 118.033 67.91"/>
    <polygon class="a" points="47 153.617 80 31.617 57.415 3.386 0.709 3.23 0 127.414 47 153.617"/>
  </g>
  <g>
    <polygon class="a" points="121 39 102 153 152 154 151 9 121 39"/>
    <polygon class="a" points="16 4 0 153 91 153 16 4"/>
    <polygon class="a" points="66 87 23 4 149.419 3 66 87"/>
  </g>
  <g>
    <polygon class="a" points="100.647 66 100.647 156 154.647 156 154.647 13 100.647 66"/>
    <polygon class="a" points="66.423 91.252 51.647 156 0 155.867 1.647 13 66.423 91.252"/>
    <polygon class="a" points="88.647 59 34.647 4 152.067 3 88.647 59"/>
  </g>
  <g>
    <polygon class="a" points="31 118 50 4 0 3 1 148 31 118"/>
    <polygon class="a" points="152 153 152 4 61 4 152 153"/>
    <polygon class="a" points="86 70 133 157 6.581 158 86 70"/>
  </g>
  <g>
    <polygon class="a" points="53.203 34.012 152.5 52.512 152.571 3 23.203 4.012 53.203 34.012"/>
    <polygon class="a" points="1 139.012 152.5 155.012 152.5 64.012 1 139.012"/>
    <polygon class="a" points="84 89.012 1 132.012 0 5.592 84 89.012"/>
  </g>
  <g>
    <polygon class="a" points="64.409 129.674 64.409 30.3 32.205 3 0 30.3 0 129.674 32.205 156.975 64.409 129.674"/>
    <polygon class="a" points="135.593 129.674 135.593 30.3 103.388 3 71.184 30.3 71.184 129.674 103.388 156.975 135.593 129.674"/>
  </g>
  <g>
    <polygon class="a" points="49.702 42.417 110.517 111.802 149.711 111.156 155.489 72.385 94.674 3 55.481 3.647 49.702 42.417"/>
    <polygon class="a" points="0 85.981 60.815 155.366 100.008 154.719 105.787 115.948 44.972 46.563 5.779 47.21 0 85.981"/>
  </g>
  <g>
    <polygon class="a" points="27.683 68.368 128.173 68.132 155.704 35.502 128.021 3 27.531 3.235 0 35.866 27.683 68.368"/>
    <polygon class="a" points="27.852 140.351 128.342 140.116 155.873 107.485 128.189 74.983 27.699 75.219 0.169 107.85 27.852 140.351"/>
  </g>
  <g>
    <polygon class="a" points="16.826 49.754 131.998 49.586 148.731 26.246 131.905 3 16.733 3.168 0 26.507 16.826 49.754"/>
    <polygon class="a" points="16.826 100.938 131.998 100.77 148.731 77.431 131.905 54.185 16.733 54.353 0 77.692 16.826 100.938"/>
    <polygon class="a" points="16.826 152.123 131.998 151.955 148.731 128.616 131.905 105.369 16.733 105.538 0 128.877 16.826 152.123"/>
  </g>
  <g>
    <polygon class="a" points="122.065 60.485 57.485 125.254 61.194 147.756 83.697 151.362 148.277 86.593 144.567 64.09 122.065 60.485"/>
    <polygon class="a" points="93.322 31.742 28.742 96.511 32.452 119.014 54.954 122.619 119.534 57.85 115.825 35.348 93.322 31.742"/>
    <polygon class="a" points="64.58 3 0 67.769 3.709 90.271 26.212 93.877 90.792 29.108 87.082 6.605 64.58 3"/>
  </g>
  <g>
    <polygon class="a" points="98.279 19.154 98.441 129.725 120.848 145.79 143.166 129.636 143.004 19.065 120.597 3 98.279 19.154"/>
    <polygon class="a" points="49.14 19.154 49.301 129.725 71.708 145.79 94.026 129.636 93.864 19.065 71.458 3 49.14 19.154"/>
    <polygon class="a" points="0 19.154 0.162 129.725 22.568 145.79 44.886 129.636 44.724 19.065 22.318 3 0 19.154"/>
  </g>
  <g>
    <polygon class="a" points="0 11.307 0.069 68.165 9.661 76.426 19.214 68.119 19.145 11.261 9.553 3 0 11.307"/>
    <polygon class="a" points="24 11.307 24.069 68.165 33.661 76.426 43.214 68.119 43.145 11.261 33.553 3 24 11.307"/>
    <polygon class="a" points="0 90.591 0.069 147.45 9.661 155.711 19.214 147.404 19.145 90.545 9.553 82.285 0 90.591"/>
    <polygon class="a" points="24 90.591 24.069 147.45 33.661 155.711 43.214 147.404 43.145 90.545 33.553 82.285 24 90.591"/>
    <polygon class="a" points="48 11.307 48.069 68.165 57.661 76.426 67.214 68.119 67.145 11.261 57.553 3 48 11.307"/>
    <polygon class="a" points="72 11.307 72.069 68.165 81.661 76.426 91.214 68.119 91.145 11.261 81.553 3 72 11.307"/>
    <polygon class="a" points="48 90.591 48.069 147.45 57.661 155.711 67.214 147.404 67.145 90.545 57.553 82.285 48 90.591"/>
    <polygon class="a" points="72 90.591 72.069 147.45 81.661 155.711 91.214 147.404 91.145 90.545 81.553 82.285 72 90.591"/>
    <polygon class="a" points="96 11.307 96.069 68.165 105.661 76.426 115.214 68.119 115.145 11.261 105.553 3 96 11.307"/>
    <polygon class="a" points="120 11.307 120.069 68.165 129.661 76.426 139.214 68.119 139.145 11.261 129.553 3 120 11.307"/>
    <polygon class="a" points="96 90.591 96.069 147.45 105.661 155.711 115.214 147.404 115.145 90.545 105.553 82.285 96 90.591"/>
    <polygon class="a" points="120 90.591 120.069 147.45 129.661 155.711 139.214 147.404 139.145 90.545 129.553 82.285 120 90.591"/>
  </g>
  <g>
    <polygon class="a" points="16.826 38.666 131.998 38.537 148.731 20.733 131.905 3 16.733 3.128 0 20.932 16.826 38.666"/>
    <polygon class="a" points="16.826 77.711 131.998 77.583 148.731 59.779 131.905 42.046 16.733 42.174 0 59.978 16.826 77.711"/>
    <polygon class="a" points="16.826 116.757 131.998 116.629 148.731 98.825 131.905 81.091 16.733 81.22 0 99.024 16.826 116.757"/>
    <polygon class="a" points="16.826 155.803 131.998 155.674 148.731 137.87 131.905 120.137 16.733 120.265 0 138.069 16.826 155.803"/>
  </g>
  <g>
    <polygon class="a" points="114.615 74.273 0 74.273 34.673 3 149.288 3 114.615 74.273"/>
    <polygon class="a" points="34.673 151.325 149.288 151.325 115.578 79.089 0.963 79.089 34.673 151.325"/>
  </g>
  <g>
    <polygon class="a" points="77.052 151.615 77.052 3 148.325 37.673 148.325 152.288 77.052 151.615"/>
    <polygon class="a" points="0 37.673 0 152.288 72.236 152.578 72.236 3.963 0 37.673"/>
  </g>
  <g>
    <polygon class="a" points="0 36.71 0 66.177 47.804 32.647 47.804 3 0 36.71"/>
    <polygon class="a" points="0 70.71 0 116.744 47.804 83.215 47.804 37 0 70.71"/>
    <polygon class="a" points="0 122.71 0 152.177 47.804 118.647 47.804 89 0 122.71"/>
    <polygon class="a" points="51.872 36.71 51.872 66.177 99.676 32.647 99.676 3 51.872 36.71"/>
    <polygon class="a" points="51.872 70.71 51.872 116.744 99.676 83.215 99.676 37 51.872 70.71"/>
    <polygon class="a" points="51.872 122.71 51.872 152.177 99.676 118.647 99.676 89 51.872 122.71"/>
    <polygon class="a" points="103.744 36.71 103.744 66.177 151.548 32.647 151.548 3 103.744 36.71"/>
    <polygon class="a" points="103.744 70.71 103.744 116.744 151.548 83.215 151.548 37 103.744 70.71"/>
    <polygon class="a" points="103.744 122.71 103.744 152.177 151.548 118.647 151.548 89 103.744 122.71"/>
  </g>
  <g>
    <rect class="a" y="3" width="78" height="154"/>
    <rect class="a" x="118" y="3" width="4" height="154"/>
    <rect class="a" x="111" y="3" width="4" height="154"/>
    <rect class="a" x="104" y="3" width="4" height="154"/>
    <rect class="a" x="97" y="3" width="4" height="154"/>
    <rect class="a" x="90" y="3" width="4" height="154"/>
    <rect class="a" x="83" y="3" width="4" height="154"/>
    <rect class="a" x="127" y="3" width="28" height="154"/>
  </g>
  <polygon class="a" points="95.076 3 54.014 3 18.544 23.686 0.306 54.418 0 94.621 20.518 129.195 51.754 146.555 92.816 146.555 128.287 125.868 146.524 95.137 146.83 54.934 126.312 20.359 95.076 3"/>
  <polygon class="a" points="99.856 3 52.711 3 14.569 30.712 0 75.55 14.569 120.388 52.711 148.1 99.856 148.1 137.998 120.388 152.567 75.55 137.998 30.712 99.856 3"/>
  <polygon class="a" points="93.297 3 53.865 3 19.716 22.716 0 56.865 0 96.297 19.716 130.446 53.865 150.162 93.297 150.162 127.446 130.446 147.162 96.297 147.162 56.865 127.446 22.716 93.297 3"/>
  <polygon class="a" points="73.389 3 43.374 9.38 18.55 27.416 3.207 53.99 0 84.507 9.482 113.69 30.014 136.493 58.046 148.974 88.731 148.974 116.763 136.493 137.295 113.69 146.778 84.507 143.57 53.99 128.228 27.416 103.403 9.38 73.389 3"/>
  <g>
    <polygon class="a" points="0 3 0 118 40.228 158 40.228 3 0 3"/>
    <polygon class="a" points="55.443 3 55.443 118 95.672 158 95.672 3 55.443 3"/>
    <polygon class="a" points="110.886 3 110.886 118 151.115 158 151.115 3 110.886 3"/>
  </g>
  <g>
    <polygon class="a" points="155 3 40 3 0 43.228 155 43.228 155 3"/>
    <polygon class="a" points="155 58.443 40 58.443 0 98.672 155 98.672 155 58.443"/>
    <polygon class="a" points="155 113.886 40 113.886 0 154.115 155 154.115 155 113.886"/>
  </g>
  <g>
    <polygon class="a" points="0 154.115 37 154.115 77 113.886 0 113.886 0 154.115"/>
    <polygon class="a" points="0 98.672 37 98.672 77 58.443 0 58.443 0 98.672"/>
    <polygon class="a" points="0 43.228 37 43.228 77 3 0 3 0 43.228"/>
    <polygon class="a" points="81 154.115 118 154.115 158 113.886 81 113.886 81 154.115"/>
    <polygon class="a" points="81 98.672 118 98.672 158 58.443 81 58.443 81 98.672"/>
    <polygon class="a" points="81 43.228 118 43.228 158 3 81 3 81 43.228"/>
  </g>
  <g>
    <polygon class="a" points="151.115 161 151.115 124 110.886 84 110.886 161 151.115 161"/>
    <polygon class="a" points="95.672 161 95.672 124 55.443 84 55.443 161 95.672 161"/>
    <polygon class="a" points="40.228 161 40.228 124 0 84 0 161 40.228 161"/>
    <polygon class="a" points="151.115 80 151.115 43 110.886 3 110.886 80 151.115 80"/>
    <polygon class="a" points="95.672 80 95.672 43 55.443 3 55.443 80 95.672 80"/>
    <polygon class="a" points="40.228 80 40.228 43 0 3 0 80 40.228 80"/>
  </g>
</svg>
