<svg xmlns="http://www.w3.org/2000/svg" viewBox="0 0 1920 1080">
  <defs>
    <style>
      
    </style>
  </defs>
  <title>N11</title>
  <g>
    <ellipse class="a" cx="75.94" cy="70.805" rx="75.554" ry="67.805"/>
  </g>
  <g>
    <ellipse class="a" cx="74.838" cy="71.886" rx="74.452" ry="68.886"/>
  </g>
  <g>
    <ellipse class="a" cx="93.785" cy="95.663" rx="93.399" ry="92.663"/>
  </g>
  <g>
    <ellipse class="a" cx="156.527" cy="157.91" rx="156.141" ry="154.91"/>
  </g>
  <g>
    <path class="a" d="M76.289,3a75.9,75.9,0,1,0,75.9,75.9A75.9,75.9,0,0,0,76.289,3Zm0,99.535A23.633,23.633,0,1,1,99.921,78.9,23.633,23.633,0,0,1,76.289,102.535Z"/>
  </g>
  <g>
    <path class="a" d="M123.539,110.848A30.848,30.848,0,1,1,154.386,80a77,77,0,1,0-77,77,77,77,0,0,0,77-77A30.848,30.848,0,0,1,123.539,110.848Z"/>
  </g>
  <g>
    <path class="a" d="M108.234,33.848A30.848,30.848,0,1,1,77.386,3a77,77,0,1,0,77,77,77,77,0,0,0-77-77A30.848,30.848,0,0,1,108.234,33.848Z"/>
  </g>
  <g>
    <path class="a" d="M63.018,136.239a46.8,46.8,0,1,1,80.853-17.411,76.977,76.977,0,1,0-41.239,33.916A46.728,46.728,0,0,1,63.018,136.239Z"/>
  </g>
  <g>
    <path class="a" d="M71.171,151.485a54.942,54.942,0,1,1,83.21-71.276A77,77,0,1,0,77.6,157,55.334,55.334,0,0,1,71.171,151.485Z"/>
  </g>
  <g>
    <path class="a" d="M44.64,80A78.919,78.919,0,0,1,97.258,5.6a77,77,0,1,0,0,148.8A78.919,78.919,0,0,1,44.64,80Z"/>
  </g>
  <g>
    <path class="a" d="M39.237,32.744A46.8,46.8,0,1,1,.386,105.757a76.975,76.975,0,1,0,.686-53.389A46.732,46.732,0,0,1,39.237,32.744Z"/>
  </g>
  <g>
    <path class="a" d="M132.328,11.439A54.942,54.942,0,1,1,23.09,3,77,77,0,1,0,131.682,3,55.371,55.371,0,0,1,132.328,11.439Z"/>
  </g>
  <g>
    <path class="a" d="M54.231,56.845a78.918,78.918,0,0,1,89.813-15.4A77,77,0,1,0,38.83,146.658,78.918,78.918,0,0,1,54.231,56.845Z"/>
  </g>
</svg>
