<svg xmlns="http://www.w3.org/2000/svg" viewBox="0 0 1920 1080">
  <defs>
    <style>

    </style>
  </defs>
  <title>N22</title>
  <g>
    <path class="a" d="M.087,155.889h154S79.087-18.2.087,155.889Z"/>
    <path class="a" d="M.087,78.374h154S79.087-95.717.087,78.374Z"/>
  </g>
  <path class="a" d="M.087,116.243H157.913S81.05-143.053.087,116.243Z"/>
  <path class="a" d="M157.913,1H.087S76.95,260.3,157.913,1Z"/>
  <g>
    <path class="a" d="M154.087,1H.087S75.087,175.091,154.087,1Z"/>
    <path class="a" d="M154.087,78.515H.087S75.087,252.606,154.087,78.515Z"/>
  </g>
  <g>
    <rect class="a" x="0.087" y="1" width="74" height="74"/>
    <rect class="a" x="81.087" y="1" width="74" height="74"/>
    <rect class="a" x="0.087" y="90" width="155" height="65"/>
  </g>
  <g>
    <rect class="a" x="0.087" y="102" width="155" height="53"/>
    <rect class="a" x="0.087" y="1" width="155" height="53"/>
  </g>
  <path class="a" d="M.1,143.954s-5-167,155-140v140Z"/>
  <g>
    <path class="b" d="M.087,156s167,5,140-155H.087Z"/>
    <path class="a" d="M34.325,157S30.4,25.812,156.087,47.022V157Z"/>
  </g>
  <path class="a" d="M.087,156s167,5,140-155H.087Z"/>
  <g>
    <path class="a" d="M.087,35.239S131.274,31.311,110.064,157H.087Z"/>
    <path class="b" d="M1.087,1s-5,167,155,140V1Z"/>
  </g>
  <g>
    <path class="a" d="M43.676,80.933c16.617,14.6,36.894,25.417,59.1,22.361a26.368,26.368,0,0,1,30.253,25.937v.588a26.245,26.245,0,0,1-26.245,26.245H26.706A26.245,26.245,0,0,1,.463,130.156l-.374-29.2C-.2,78.211,26.589,65.915,43.676,80.933Z"/>
    <path class="a" d="M109.442,76.132c-16.616-14.6-36.894-25.418-59.1-22.362A26.367,26.367,0,0,1,20.087,27.833v-.588A26.245,26.245,0,0,1,46.332,1h80.08a26.245,26.245,0,0,1,26.243,25.909l.375,29.2C153.321,78.853,126.53,91.15,109.442,76.132Z"/>
  </g>
  <g>
    <path class="a" d="M75.218,44.59c-14.6,16.616-25.417,36.893-22.361,59.1A26.368,26.368,0,0,1,26.92,133.945h-.588A26.245,26.245,0,0,1,.087,107.7V27.62A26.244,26.244,0,0,1,26,1.377L55.192,1C77.94.711,90.236,27.5,75.218,44.59Z"/>
    <path class="a" d="M80.019,110.355c14.6-16.616,25.418-36.893,22.362-59.1A26.368,26.368,0,0,1,128.318,21h.588a26.245,26.245,0,0,1,26.245,26.245v80.081a26.247,26.247,0,0,1-25.909,26.243l-29.2.374C77.3,154.235,65,127.443,80.019,110.355Z"/>
  </g>
  <g>
    <circle class="a" cx="48.087" cy="49" r="48"/>
    <path class="a" d="M154.087,74s-90,14-122,83l122-1Z"/>
  </g>
  <g>
    <circle class="a" cx="108.087" cy="49" r="48"/>
    <path class="a" d="M83.087,155s-14-90-83-122l1,122Z"/>
  </g>
  <g>
    <circle class="c" cx="85.502" cy="81.967" r="56.883"/>
    <path class="a" d="M.087,74.849S80.164,62.392,108.635,1L.087,1.89Z"/>
  </g>
  
</svg>
