<svg xmlns="http://www.w3.org/2000/svg" viewBox="0 0 1920 1080">
  <defs>
    <style>

    </style>
  </defs>
  <title>N3</title>
  <g>
    <path class="a" d="M43.169,0S-5.88,17,.987,49,43.169,28,43.169,0Z"/>
    <path class="a" d="M43.169,48S-5.88,65,.987,97,43.169,76,43.169,48Z"/>
    <path class="a" d="M43.169,96S-5.88,113,.987,145,43.169,124,43.169,96Z"/>
    <path class="a" d="M99.085,0S50.036,17,56.9,49,99.085,28,99.085,0Z"/>
    <path class="a" d="M99.085,48S50.036,65,56.9,97,99.085,76,99.085,48Z"/>
    <path class="a" d="M99.085,96S50.036,113,56.9,145,99.085,124,99.085,96Z"/>
    <path class="a" d="M155,0s-49.049,17-42.182,49S155,28,155,0Z"/>
    <path class="a" d="M155,48s-49.049,17-42.182,49S155,76,155,48Z"/>
    <path class="a" d="M155,96s-49.049,17-42.182,49S155,124,155,96Z"/>
  </g>
  <g>
    <path class="a" d="M112.864,0S79.415,34.934,96.785,50.247,123.2,16.455,112.864,0Z"/>
    <path class="a" d="M130.577,44.208S97.128,79.142,114.5,94.456,140.91,60.663,130.577,44.208Z"/>
    <path class="a" d="M148.29,81.417s-33.449,34.934-16.079,50.247S158.623,97.871,148.29,81.417Z"/>
    <path class="a" d="M67.136,10.358S33.687,45.292,51.057,60.606,77.469,26.813,67.136,10.358Z"/>
    <path class="a" d="M84.85,54.567S51.4,89.5,68.77,104.814,95.182,71.021,84.85,54.567Z"/>
    <path class="a" d="M102.563,91.775s-33.449,34.934-16.079,50.247S112.9,108.23,102.563,91.775Z"/>
    <path class="a" d="M21.409,20.717S-12.04,55.65,5.33,70.964,31.742,37.171,21.409,20.717Z"/>
    <path class="a" d="M39.122,64.925S5.673,99.859,23.043,115.172,49.455,81.38,39.122,64.925Z"/>
    <path class="a" d="M56.835,102.133s-33.449,34.934-16.079,50.248S67.168,118.588,56.835,102.133Z"/>
  </g>
  <g>
    <path class="a" d="M43.169,0S-5.88,17,.987,49,43.169,28,43.169,0Z"/>
    <path class="a" d="M155.169,96s-49.049,17-42.182,49S155.169,124,155.169,96Z"/>
    <path class="a" d="M84.905,26.347s-85.081,29.489-73.169,85S84.905,74.917,84.905,26.347Z"/>
    <path class="a" d="M147.905,26.347s-85.081,29.489-73.169,85S147.905,74.917,147.905,26.347Z"/>
  </g>
  <g>
    <path class="a" d="M.328,42.841s17-49.049,49-42.182S28.328,42.841.328,42.841Z"/>
    <path class="a" d="M48.328,42.841s17-49.049,49-42.182S76.328,42.841,48.328,42.841Z"/>
    <path class="a" d="M96.328,42.841s17-49.049,49-42.182S124.328,42.841,96.328,42.841Z"/>
    <path class="a" d="M.328,93.841s17-49.049,49-42.182S28.328,93.841.328,93.841Z"/>
    <path class="a" d="M48.328,93.841s17-49.049,49-42.182S76.328,93.841,48.328,93.841Z"/>
    <path class="a" d="M96.328,93.841s17-49.049,49-42.182S124.328,93.841,96.328,93.841Z"/>
    <path class="a" d="M.328,144.841s17-49.049,49-42.182S28.328,144.841.328,144.841Z"/>
    <path class="a" d="M48.328,144.841s17-49.049,49-42.182S76.328,144.841,48.328,144.841Z"/>
    <path class="a" d="M96.328,144.841s17-49.049,49-42.182S124.328,144.841,96.328,144.841Z"/>
  </g>
  <g>
    <path class="a" d="M142.791.065S69.262-3.611,53.637,44.183C37.551,93.385.328,88.3.328,88.3v54.228s72.61.919,80.882-54.228c7.646-50.974,62.5-34.007,62.5-34.007Z"/>
    <path class="a" d="M67.423.065S37.093,10.176,34.335,44.183.328,70.837.328,70.837V.065Z"/>
    <path class="a" d="M142.791,82.2s-31.889-16.375-41.37,18.961-34.474,41.37-34.474,41.37h75.844Z"/>
  </g>
  <g>
    <path class="a" d="M142.791.563S67.019-11.7,58.019,78.3c-5.151,51.508-57.691,33-57.691,33v31.727s72.61.919,80.882-54.227c7.646-50.974,62.5-34.008,62.5-34.008Z"/>
    <path class="a" d="M98.019.563s-36-.266-49,44.734C39.55,78.075.328,71.334.328,71.334V.563Z"/>
    <path class="a" d="M142.791,120.3s-30.772-36-49.772-10c-21.586,29.539-40,32.728-40,32.728h89.772Z"/>
  </g>
  <g>
    <path class="a" d="M108.019,0V.2C95.7.261,52.266,2.762,41.852,34.616,29.323,72.942.328,15,.328,15v96.221s55.2.489,63-42.24C75.019,5,152.019,20,152.019,20V0Z"/>
    <path class="a" d="M152.076,50S94.8,41.166,82.63,78.4q-.334,1.026-.686,2.025C72.27,107.958,45.9,126.111,16.712,126.111H3.019v27.778s79,1.111,101.089-41.13C122.714,77.181,152.792,135,152.792,135Z"/>
  </g>
  <g>
    <path class="a" d="M142.791.065S69.262-3.611,53.637,44.183C37.551,93.385.328,88.3.328,88.3v54.228s72.61.919,80.882-54.228c7.646-50.974,62.5-34.007,62.5-34.007Z"/>
    <path class="a" d="M67.423.065S37.093,10.176,34.335,44.183.328,70.837.328,70.837V.065Z"/>
    <path class="a" d="M89.637,101.183C73.551,150.385,36.328,145.3,36.328,145.3v3.5h80.244c.238-1.143.459-2.3.638-3.5,3.364-22.424,15.863-31.7,28.809-35.053V80.8C122.019,59.8,98.22,74.928,89.637,101.183Z"/>
  </g>
  <path class="a" d="M.328,145.244s25.3-23.426,72.154-22.489c44.033.88,73.09-22.49,73.09-22.49L144.635,0S123.083,27.175,72.482,27.175c-52.476,0-71.217,17.8-71.217,17.8Z"/>
  <path class="a" d="M145.572,145.244s-23.426-25.3-22.489-72.153C123.963,29.058,100.593,0,100.593,0L.328.937S27.5,22.489,27.5,73.091c0,52.475,17.8,71.216,17.8,71.216Z"/>
  <path class="a" d="M145.572,73.122S122.146,60.385,123.083,36.8c.88-22.168-22.49-36.8-22.49-36.8L.328.472S27.5,11.322,27.5,36.8c0,26.418,17.8,35.853,17.8,35.853Z"/>
  <path class="a" d="M.328,73.122S23.755,60.385,22.817,36.8C21.937,14.629,45.307,0,45.307,0L145.572.472S118.4,11.322,118.4,36.8c0,26.418-17.8,35.853-17.8,35.853Z"/>
  <g>
    <path class="a" d="M.328,87.418s24.9-21.1,69.307-20.537c41.735.53,68.358-6.535,68.358-6.535L137.1,0S116.677,16.356,68.717,16.356c-49.738,0-67.5,10.715-67.5,10.715Z"/>
    <path class="a" d="M.328,153.331s24.9-21.1,69.307-20.537c41.735.53,68.358-6.535,68.358-6.535L137.1,65.913S116.677,82.268,68.717,82.268c-49.738,0-67.5,10.716-67.5,10.716Z"/>
  </g>
  <g>
    <path class="a" d="M.328,63.669S23.3,48.3,64.266,48.711c38.5.386,63.064-4.759,63.064-4.759L126.511,0S107.665,11.912,63.419,11.912c-45.884,0-62.272,7.8-62.272,7.8Z"/>
    <path class="a" d="M4.941,111.676s22.97-15.369,63.938-14.958c38.5.386,63.064-4.759,63.064-4.759l-.819-43.953S112.278,59.919,68.032,59.919c-45.884,0-62.272,7.8-62.272,7.8Z"/>
    <path class="a" d="M13.244,158.4s22.97-15.369,63.938-14.958c38.5.386,63.064-4.759,63.064-4.759l-.82-43.952s-18.845,11.912-63.091,11.912c-45.885,0-62.272,7.8-62.272,7.8Z"/>
  </g>
  <g>
    <path class="a" d="M95.058,0s15.369,22.97,14.958,63.938c-.386,38.5,4.759,63.064,4.759,63.064l43.952-.819s-11.912-18.846-11.912-63.092c0-45.884-7.8-62.272-7.8-62.272Z"/>
    <path class="a" d="M.328,12.916S29.7,35.885,28.911,76.854c-.738,38.5,9.094,63.064,9.094,63.064l83.989-.82S99.231,120.253,99.231,76.007c0-45.885-14.914-62.272-14.914-62.272Z"/>
  </g>
  <g>
    <path class="a" d="M76.154,0S57.851,22.97,58.34,63.938C58.8,102.441,52.672,127,52.672,127L.328,126.183s14.187-18.846,14.187-63.092C14.515,17.207,23.81.819,23.81.819Z"/>
    <path class="a" d="M150.687,12.916s-24.329,22.969-23.679,63.938c.611,38.5-7.533,63.064-7.533,63.064L49.9,139.1s18.857-18.845,18.857-63.091c0-45.885,12.355-62.272,12.355-62.272Z"/>
  </g>
  <g>
    <path class="a" d="M64,139.918s-15.368-22.97-14.958-63.939c.386-38.5-4.759-63.063-4.759-63.063L.328,13.735S12.24,32.58,12.24,76.826c0,45.885,7.805,62.272,7.805,62.272Z"/>
    <path class="a" d="M112,135.305s-15.369-22.97-14.958-63.938C97.432,32.864,92.287,8.3,92.287,8.3l-43.952.819S60.247,27.968,60.247,72.214c0,45.884,7.8,62.272,7.8,62.272Z"/>
    <path class="a" d="M158.729,127s-15.369-22.97-14.958-63.938C144.157,24.561,139.012,0,139.012,0L95.06.819s11.912,18.846,11.912,63.092c0,45.884,7.805,62.272,7.805,62.272Z"/>
  </g>
  <path class="a" d="M71.226,0S69.9,24.9,36.109,48.361C4.35,70.411.328,97.2.328,97.2l71.561,50.755s-3.976-24.9,31.805-50.755c37.105-26.814,37.768-45.488,37.768-45.488Z"/>
  <g>
    <path class="a" d="M125.137,35.335S122.452,59.994,90.652,83.5c-29.886,22.09-43.716,40.149-43.716,40.149l43.3,31.875s2.879-19.719,36.793-45.43c35.169-26.663,40.153-41.93,40.153-41.93Z"/>
    <path class="a" d="M78.53,0S75.845,24.659,44.045,48.164C14.158,70.253.328,88.312.328,88.312l43.3,31.875s2.88-19.719,36.793-45.43c35.17-26.663,40.153-41.93,40.153-41.93Z"/>
  </g>
  <g>
    <path class="a" d="M124.343,47.208S119.957,69.329,96.082,92.73C73.643,114.723,62.44,131.864,62.44,131.864l25.833,24.887s4-17.747,29.53-43.277C144.278,87,149.231,73.041,149.231,73.041Z"/>
    <path class="a" d="M93.982,22.17S89.6,44.291,65.721,67.692c-22.439,21.993-33.642,39.134-33.642,39.134l25.833,24.887s4-17.747,29.53-43.277C113.917,61.961,118.87,48,118.87,48Z"/>
    <path class="a" d="M62.231,0S57.845,22.121,33.97,45.523C11.531,67.516.328,84.656.328,84.656l25.833,24.888s4-17.747,29.53-43.277C82.166,39.792,87.119,25.833,87.119,25.833Z"/>
  </g>
  <g>
    <path class="a" d="M48.791,25.549s22.709,4.5,46.733,29.013C118.1,77.6,135.7,89.1,135.7,89.1l25.549-26.52s-18.219-4.106-44.427-30.315C89.64,5.084,75.311,0,75.311,0Z"/>
    <path class="a" d="M23.087,56.718S45.8,61.22,69.82,85.731c22.578,23.035,40.174,34.536,40.174,34.536l25.549-26.52S117.324,89.64,91.116,63.431C63.937,36.252,49.607,31.168,49.607,31.168Z"/>
    <path class="a" d="M.328,89.313s22.709,4.5,46.733,29.013c22.578,23.035,40.174,34.536,40.174,34.536l25.549-26.52s-18.219-4.107-44.427-30.315C41.178,68.847,26.848,63.763,26.848,63.763Z"/>
  </g>
  <g>
    <path class="a" d="M116.186,110.565a67.868,67.868,0,0,1-95.98-95.979C46.71-11.919,124.973,5.8,124.973,5.8S142.69,84.061,116.186,110.565Z"/>
    <path class="b" d="M22.561,38.04a67.868,67.868,0,0,1,95.98,95.98c-26.5,26.5-104.767,8.787-104.767,8.787S-3.943,64.544,22.561,38.04Z"/>
  </g>
  <g>
    <circle class="a" cx="71.328" cy="71" r="71"/>
    <circle class="b" cx="102.328" cy="106" r="40.425"/>
    <circle class="a" cx="128.328" cy="133" r="21.403"/>
  </g>
  <g>
    <path class="a" d="M150.3,31.711c0-2-30,49-44,20s25-33,25-33-6-23-39-18-48.162,83,29,83C144.3,83.711,150.3,31.711,150.3,31.711Z"/>
    <path class="a" d="M85.3,31.711c0-2-30,49-44,20s25-33,25-33-6-23-39-18-48.162,83,29,83C79.3,83.711,85.3,31.711,85.3,31.711Z"/>
    <path class="a" d="M85.3,100.711c0-2-30,49-44,20s25-33,25-33-6-23-39-18-48.162,83,29,83C79.3,152.711,85.3,100.711,85.3,100.711Z"/>
    <path class="a" d="M150.3,100.711c0-2-30,49-44,20s25-33,25-33-6-23-39-18-48.162,83,29,83C144.3,152.711,150.3,100.711,150.3,100.711Z"/>
  </g>
  <g>
    <path class="a" d="M50.557,20.307c.067-1.175-19.25,27.776-26.505,10.279S39.833,12.039,39.833,12.039,37.075-1.667,17.529.169-13.52,47.307,31.794,49.878C45.3,50.645,50.557,20.307,50.557,20.307Z"/>
    <path class="a" d="M50.557,71.447c.067-1.175-19.25,27.776-26.505,10.279S39.833,63.179,39.833,63.179s-2.758-13.707-22.3-11.87S-13.52,98.447,31.794,101.018C45.3,101.784,50.557,71.447,50.557,71.447Z"/>
    <path class="a" d="M50.557,122.586c.067-1.174-19.25,27.776-26.505,10.279s15.781-18.546,15.781-18.546-2.758-13.707-22.3-11.87-31.049,47.138,14.265,49.708C45.3,152.924,50.557,122.586,50.557,122.586Z"/>
    <path class="a" d="M106.813,20.307c.067-1.175-19.25,27.776-26.506,10.279S96.088,12.039,96.088,12.039,93.331-1.667,73.785.169,42.736,47.307,88.05,49.878C101.557,50.645,106.813,20.307,106.813,20.307Z"/>
    <path class="a" d="M106.813,71.447c.067-1.175-19.25,27.776-26.506,10.279S96.088,63.179,96.088,63.179s-2.757-13.707-22.3-11.87S42.736,98.447,88.05,101.018C101.557,101.784,106.813,71.447,106.813,71.447Z"/>
    <path class="a" d="M106.813,122.586c.067-1.174-19.25,27.776-26.506,10.279s15.781-18.546,15.781-18.546-2.757-13.707-22.3-11.87S42.736,149.587,88.05,152.157C101.557,152.924,106.813,122.586,106.813,122.586Z"/>
    <path class="a" d="M163.069,20.307c.066-1.175-19.251,27.776-26.506,10.279s15.781-18.547,15.781-18.547-2.757-13.706-22.3-11.87S98.992,47.307,144.306,49.878C157.813,50.645,163.069,20.307,163.069,20.307Z"/>
    <path class="a" d="M163.069,71.447c.066-1.175-19.251,27.776-26.506,10.279s15.781-18.547,15.781-18.547-2.757-13.707-22.3-11.87-31.049,47.138,14.265,49.709C157.813,101.784,163.069,71.447,163.069,71.447Z"/>
    <path class="a" d="M163.069,122.586c.066-1.174-19.251,27.776-26.506,10.279s15.781-18.546,15.781-18.546-2.757-13.707-22.3-11.87-31.049,47.138,14.265,49.708C157.813,152.924,163.069,122.586,163.069,122.586Z"/>
  </g>
  <g>
    <path class="a" d="M141.277,58.115S72.383,129.508.328,83.81c0,0,25.718,75.02,82.9,56.222S141.277,58.115,141.277,58.115Z"/>
    <path class="a" d="M141.277,0S72.383,71.393.328,25.7c0,0,25.718,75.02,82.9,56.222S141.277,0,141.277,0Z"/>
  </g>
  <g>
    <path class="a" d="M75.961,67.084S39.644,104.049.762,79.521c0,0,14.316,39.575,44.76,30.133S75.961,67.084,75.961,67.084Z"/>
    <path class="a" d="M75.527,0S39.21,36.965.328,12.437c0,0,14.316,39.574,44.76,30.133S75.527,0,75.527,0Z"/>
    <path class="a" d="M76.487,107.252s-36.317,36.965-75.2,12.437c0,0,14.316,39.575,44.76,30.133S76.487,107.252,76.487,107.252Z"/>
    <path class="a" d="M150.88,36.185S116.463,74.924,76.4,52.378c0,0,16.283,38.807,46.215,27.85S150.88,36.185,150.88,36.185Z"/>
    <path class="a" d="M148.917,3.933S114.5,42.672,74.437,20.126c0,0,16.283,38.806,46.215,27.85S148.917,3.933,148.917,3.933Z"/>
    <path class="a" d="M153.265,109.353s-34.418,38.739-74.481,16.193c0,0,16.283,38.807,46.215,27.85S153.265,109.353,153.265,109.353Z"/>
  </g>
  <g>
    <path class="a" d="M75.961,32.27S39.644,69.234.762,44.707c0,0,14.316,39.574,44.76,30.133S75.961,32.27,75.961,32.27Z"/>
    <path class="a" d="M75.527,1.762S39.21,38.726.328,14.2c0,0,14.316,39.575,44.76,30.133S75.527,1.762,75.527,1.762Z"/>
    <path class="a" d="M76.921,99.823S40.6,136.788,1.722,112.26c0,0,14.316,39.575,44.76,30.133S76.921,99.823,76.921,99.823Z"/>
    <path class="a" d="M76.487,69.315S40.17,106.28,1.288,81.752c0,0,14.316,39.575,44.76,30.133S76.487,69.315,76.487,69.315Z"/>
    <path class="a" d="M150.88,30.448S116.463,69.187,76.4,46.641c0,0,16.283,38.807,46.215,27.85S150.88,30.448,150.88,30.448Z"/>
    <path class="a" d="M148.917,0S114.5,38.74,74.437,16.193c0,0,16.283,38.807,46.215,27.85S148.917,0,148.917,0Z"/>
    <path class="a" d="M155.228,97.868s-34.417,38.74-74.48,16.193c0,0,16.283,38.807,46.215,27.85S155.228,97.868,155.228,97.868Z"/>
    <path class="a" d="M153.265,67.42s-34.418,38.74-74.481,16.193c0,0,16.283,38.807,46.215,27.85S153.265,67.42,153.265,67.42Z"/>
  </g>
  <g>
    <path class="a" d="M141.277,62.9S72.383,134.293.328,88.6c0,0,25.718,75.019,82.9,56.221S141.277,62.9,141.277,62.9Z"/>
    <path class="a" d="M141.277,4.785S72.383,76.178.328,30.48c0,0,25.718,75.02,82.9,56.222S141.277,4.785,141.277,4.785Z"/>
    <path class="a" d="M126.775,0c-16,8-39.136,11.3-72,11-28.732-.261-54-11-54-11s17,49,71,34S126.775,0,126.775,0Z"/>
  </g>
  <g>
    <path class="a" d="M.328,0h155s-20,53-66,53S10.328,32,.328,0Z"/>
    <path class="a" d="M155.328,146H.328s20-76,66-76S145.328,100.113,155.328,146Z"/>
  </g>
</svg>
