<svg xmlns="http://www.w3.org/2000/svg" viewBox="0 0 1920 1080">
  <defs>
    <style>
      
    </style>
  </defs>
  <title>BasicShape</title>
  <g>
    <path class="a" d="M113.08,4.709S94.851,32.882,57.563,23.767c-21.194-5.181-34.8,1.657-48.06,19.058L.389,16.309S31.047,1.394,58.392,13,113.08,4.709,113.08,4.709Z"/>
    <path class="a" d="M113.08,51.569S94.851,79.742,57.563,70.627c-21.194-5.181-34.8,1.657-48.06,19.058L.389,63.169s30.658-14.915,58-3.314S113.08,51.569,113.08,51.569Z"/>
    <path class="a" d="M113.08,98.429S94.851,126.6,57.563,117.487c-21.194-5.181-34.8,1.657-48.06,19.058L.389,110.029s30.658-14.915,58-3.314S113.08,98.429,113.08,98.429Z"/>
    <path class="a" d="M155.021,32.2S135,59.135,98.385,47.621c-20.813-6.544-34.836-.6-49.194,15.9L41.815,36.471s31.562-12.895,58.1.454S155.021,32.2,155.021,32.2Z"/>
    <path class="a" d="M152.189,79.064S132.17,106,95.552,94.481c-20.813-6.545-34.836-.6-49.194,15.9L38.982,83.331s31.562-12.895,58.1.454S152.189,79.064,152.189,79.064Z"/>
    <path class="a" d="M149.356,125.924s-20.019,26.931-56.637,15.417c-20.813-6.545-34.836-.6-49.194,15.9l-7.376-27.051s31.562-12.895,58.1.454S149.356,125.924,149.356,125.924Z"/>
  </g>
  <g>
    <path class="a" d="M136.076,33.525s-10.391,39.608-57.09,43.257C52.442,78.857,39.275,91.971,30.54,117.2L9.865,89.934S39.719,60.956,75.84,63.979,136.076,33.525,136.076,33.525Z"/>
    <path class="a" d="M145.136,61.073s-10.391,39.608-57.09,43.258C61.5,106.405,48.335,119.519,39.6,144.745L18.925,117.483S48.779,88.505,84.9,91.528,145.136,61.073,145.136,61.073Z"/>
    <path class="a" d="M126.6,4.709s-10.391,39.608-57.09,43.257C42.965,50.04,29.8,63.155,21.063,88.38L.389,61.118S30.243,32.14,66.363,35.163,126.6,4.709,126.6,4.709Z"/>
  </g>
  <g>
    <path class="a" d="M137.905,95.712s-22.245,34.379-67.747,23.257c-25.863-6.322-42.468,2.022-58.647,23.256L.389,109.868s37.412-18.2,70.78-4.044S137.905,95.712,137.905,95.712Z"/>
    <path class="a" d="M137.905,65.378S115.66,99.757,70.158,88.634C44.3,82.312,27.69,90.657,11.511,111.891L.389,79.534s37.412-18.2,70.78-4.045S137.905,65.378,137.905,65.378Z"/>
    <path class="a" d="M137.905,35.043S115.66,69.422,70.158,58.3C44.3,51.978,27.69,60.322,11.511,81.556L.389,49.2S37.8,31,71.169,45.155,137.905,35.043,137.905,35.043Z"/>
    <path class="a" d="M137.905,4.709S115.66,39.088,70.158,27.965C44.3,21.643,27.69,29.988,11.511,51.222L.389,18.865S37.8.664,71.169,14.82,137.905,4.709,137.905,4.709Z"/>
  </g>
  <g>
    <rect class="a" x="0.389" y="4.709" width="77" height="23"/>
    <rect class="a" x="0.389" y="46.709" width="77" height="23"/>
    <rect class="a" x="0.389" y="88.709" width="77" height="23"/>
    <rect class="a" x="0.389" y="130.709" width="77" height="23"/>
    <rect class="a" x="77.389" y="125.527" width="77" height="5.182"/>
    <rect class="a" x="77.389" y="118.618" width="77" height="5.182"/>
    <rect class="a" x="77.389" y="111.709" width="77" height="5.182"/>
    <rect class="a" x="77.389" y="83.527" width="77" height="5.182"/>
    <rect class="a" x="77.389" y="76.618" width="77" height="5.182"/>
    <rect class="a" x="77.389" y="69.709" width="77" height="5.182"/>
    <rect class="a" x="77.389" y="41.527" width="77" height="5.182"/>
    <rect class="a" x="77.389" y="34.618" width="77" height="5.182"/>
    <rect class="a" x="77.389" y="27.709" width="77" height="5.182"/>
    <rect class="a" x="77.389" y="4.709" width="77" height="9"/>
    <rect class="a" x="77.389" y="16.709" width="77" height="9"/>
    <rect class="a" x="77.389" y="47.709" width="77" height="9"/>
    <rect class="a" x="77.389" y="59.709" width="77" height="9"/>
    <rect class="a" x="77.389" y="89.709" width="77" height="9"/>
    <rect class="a" x="77.389" y="101.709" width="77" height="9"/>
    <rect class="a" x="77.389" y="132.709" width="77" height="9" transform="translate(231.777 274.418) rotate(-180)"/>
    <rect class="a" x="77.389" y="144.709" width="77" height="9" transform="translate(231.777 298.418) rotate(-180)"/>
  </g>
  <g>
    <rect class="a" x="0.389" y="4.709" width="77" height="23"/>
    <rect class="a" x="0.389" y="33.709" width="77" height="13"/>
    <rect class="a" x="0.389" y="51.709" width="77" height="13"/>
    <rect class="a" x="0.389" y="67.709" width="77" height="23"/>
    <rect class="a" x="0.389" y="95.709" width="77" height="13"/>
    <rect class="a" x="0.389" y="113.709" width="77" height="13"/>
    <rect class="a" x="0.389" y="130.709" width="77" height="23"/>
    <rect class="a" x="77.389" y="125.527" width="77" height="5.182"/>
    <rect class="a" x="77.389" y="118.618" width="77" height="5.182"/>
    <rect class="a" x="77.389" y="111.709" width="77" height="5.182"/>
    <rect class="a" x="77.389" y="83.527" width="77" height="5.182"/>
    <rect class="a" x="77.389" y="76.618" width="77" height="5.182"/>
    <rect class="a" x="77.389" y="69.709" width="77" height="5.182"/>
    <rect class="a" x="77.389" y="41.527" width="77" height="5.182"/>
    <rect class="a" x="77.389" y="34.618" width="77" height="5.182"/>
    <rect class="a" x="77.389" y="27.709" width="77" height="5.182"/>
    <rect class="a" x="77.389" y="4.709" width="77" height="9"/>
    <rect class="a" x="77.389" y="16.709" width="77" height="9"/>
    <rect class="a" x="77.389" y="47.709" width="77" height="9"/>
    <rect class="a" x="77.389" y="59.709" width="77" height="9"/>
    <rect class="a" x="77.389" y="89.709" width="77" height="9"/>
    <rect class="a" x="77.389" y="101.709" width="77" height="9"/>
    <rect class="a" x="77.389" y="132.709" width="77" height="9" transform="translate(231.777 274.418) rotate(-180)"/>
    <rect class="a" x="77.389" y="144.709" width="77" height="9" transform="translate(231.777 298.418) rotate(-180)"/>
  </g>
  <g>
    <path class="a" d="M142.98,4.709S112.82,40.9,82.659,25.39,17.168,17.635,9.412,50.38s54.289-23.266,59.46,29.3S142.98,4.709,142.98,4.709Z"/>
    <path class="a" d="M134.626,52.048S104.466,88.24,74.305,72.729,8.814,64.974,1.059,97.719s54.288-23.266,59.459,29.3S134.626,52.048,134.626,52.048Z"/>
  </g>
  <g>
    <path class="a" d="M135.15,40.509S93.917,56.873,75.95,30.472,25.27-5.413,4.12,18.182s55.374,5.184,36,50.99S135.15,40.509,135.15,40.509Z"/>
    <path class="a" d="M13.681,114.87s41.233-16.364,59.2,10.038,50.68,35.885,71.83,12.29-55.374-5.185-36-50.99S13.681,114.87,13.681,114.87Z"/>
  </g>
  <g>
    <path class="a" d="M130.389,4.709H.389s27.986,22,64,22C103.389,26.709,130.389,4.709,130.389,4.709Z"/>
    <path class="a" d="M130.389,35.709H.389s27.986,22,64,22C103.389,57.709,130.389,35.709,130.389,35.709Z"/>
    <path class="a" d="M130.389,66.709H.389s27.986,22,64,22C103.389,88.709,130.389,66.709,130.389,66.709Z"/>
    <path class="a" d="M130.389,97.709H.389s27.986,22,64,22C103.389,119.709,130.389,97.709,130.389,97.709Z"/>
  </g>
  <g>
    <path class="a" d="M126.326,4.709H.389s27.111,19.265,62,19.265C100.17,23.974,126.326,4.709,126.326,4.709Z"/>
    <path class="a" d="M155.389,31.856H29.451s27.112,19.265,62,19.265C129.232,51.121,155.389,31.856,155.389,31.856Z"/>
    <path class="a" d="M126.326,59H.389s27.111,19.265,62,19.265C100.17,78.268,126.326,59,126.326,59Z"/>
    <path class="a" d="M155.389,86.15H29.451s27.112,19.265,62,19.265C129.232,105.415,155.389,86.15,155.389,86.15Z"/>
    <path class="a" d="M126.326,113.3H.389s27.111,19.266,62,19.266C100.17,132.562,126.326,113.3,126.326,113.3Z"/>
    <path class="a" d="M155.389,140.443H29.451s27.112,19.266,62,19.266C129.232,159.709,155.389,140.443,155.389,140.443Z"/>
  </g>
  <g>
    <polygon class="a" points="155.389 61.709 0.389 28.709 0.389 4.709 155.389 37.709 155.389 61.709"/>
    <polygon class="a" points="155.389 90.709 0.389 57.709 0.389 33.709 155.389 66.709 155.389 90.709"/>
    <polygon class="a" points="155.389 119.709 0.389 86.709 0.389 62.709 155.389 95.709 155.389 119.709"/>
    <polygon class="a" points="155.389 148.709 0.389 115.709 0.389 91.709 155.389 124.709 155.389 148.709"/>
  </g>
  <g>
    <polygon class="a" points="0.389 64.654 155.389 31.654 155.389 4.709 0.389 37.709 0.389 64.654"/>
    <polygon class="a" points="0.389 93.654 155.389 60.654 155.389 36.654 0.389 69.654 0.389 93.654"/>
    <polygon class="a" points="0.389 119.138 155.389 86.138 155.389 65.654 0.389 98.654 0.389 119.138"/>
    <polygon class="a" points="0.389 135.503 155.389 102.503 155.389 89.654 0.389 122.654 0.389 135.503"/>
    <polygon class="a" points="0.389 145.997 155.389 112.997 155.389 105.654 0.389 138.654 0.389 145.997"/>
  </g>
  <g>
    <path class="a" d="M149.993,45.73v.481a40.541,40.541,0,0,1-40.54,40.54c-14.625,0-40.288-7.02-40.288-41.5,0-20.965-13.454-28.236-28.237-28.236A28.231,28.231,0,0,0,12.692,45.248c0,.157,0,.325.01.482H.389v-.482A40.54,40.54,0,0,1,40.928,4.709c34.786,0,40.2,27.937,40.54,41.021.523,20.4,12.669,28.215,27.985,28.215a27.736,27.736,0,0,0,27.735-27.734c0-.157,0-.324-.011-.481Z"/>
    <path class="a" d="M149.993,116.87v.481a40.541,40.541,0,0,1-40.54,40.54c-14.625,0-40.288-7.02-40.288-41.5,0-20.966-13.454-28.237-28.237-28.237a28.231,28.231,0,0,0-28.236,28.237c0,.157,0,.324.01.481H.389v-.481a40.541,40.541,0,0,1,40.539-40.54c34.786,0,40.2,27.938,40.54,41.021.523,20.4,12.669,28.216,27.985,28.216a27.736,27.736,0,0,0,27.735-27.735c0-.156,0-.324-.011-.481Z"/>
  </g>
  <g>
    <path class="a" d="M155.522,47.246v.5a42.039,42.039,0,0,1-42.038,42.038c-15.166,0-41.777-7.28-41.777-43.036,0-21.741-13.951-29.28-29.28-29.28a29.275,29.275,0,0,0-29.28,29.28c0,.163,0,.336.01.5H.389v-.5A42.039,42.039,0,0,1,42.427,4.709c36.071,0,41.69,28.97,42.037,42.537C85.007,68.4,97.6,76.5,113.484,76.5a28.761,28.761,0,0,0,28.76-28.759c0-.163,0-.336-.011-.5Z"/>
    <path class="a" d="M144.891,81.821l.252.43a42.04,42.04,0,0,1-15.034,57.519c-13.088,7.663-39.73,14.828-57.8-16.028-10.986-18.76-26.834-18.217-40.062-10.471a29.274,29.274,0,0,0-10.472,40.062c.082.141.17.29.262.425L11.02,160.21l-.252-.43A42.039,42.039,0,0,1,25.8,102.262c31.127-18.227,50.615,3.933,57.77,15.464,11.158,17.982,26.122,18.61,39.827,10.585a28.761,28.761,0,0,0,10.285-39.35c-.082-.14-.169-.29-.261-.425Z"/>
  </g>
  <path class="a" d="M142.451,21.008s-22.1,41.112-36.628,42.907S78.855,59.721,75.967,40.429C74.116,28.057,64.774-2.5,32.7,6.267-17.549,20.008,5.583,116.978,6.451,124.008c0,0,15.772-44.554,30.57-46.383,14.023-1.732,27.638,3.588,30.1,23.477,4.042,32.711,29.1,34.648,43.084,34.648C147.451,135.75,143.318,28.021,142.451,21.008ZM78.212,89.068c9.3,7.17,21.092,7.986,29.112,7a38.564,38.564,0,0,0,19.815-8.5,26.5,26.5,0,0,1-21.316,16.351C93.742,105.408,83.113,101.51,78.212,89.068Zm29.112-13a38.564,38.564,0,0,0,19.815-8.5,26.5,26.5,0,0,1-21.316,16.351c-12.081,1.493-22.71-2.405-27.611-14.847C87.517,76.238,99.3,77.054,107.324,76.063ZM34.144,17.938C46.138,16.456,57.828,20.143,62.5,33.684c-6.518-5.586-16-9.121-29.8-7.417A38.569,38.569,0,0,0,12.128,35.4,26.976,26.976,0,0,1,34.144,17.938ZM62.5,53.684c-6.518-5.586-16-9.121-29.8-7.417A38.569,38.569,0,0,0,12.128,55.4,26.976,26.976,0,0,1,34.144,37.938C46.138,36.456,57.828,40.143,62.5,53.684ZM35.579,65.954A38.606,38.606,0,0,0,11.074,79.009a26.992,26.992,0,0,1,23.07-21.071c10.926-1.35,21.6,1.585,26.95,12.354C54.883,66.584,46.611,64.591,35.579,65.954ZM108.7,123.6c-11.006,1.36-20.808-1.754-26.172-11.726,8.428,4.566,17.975,5.029,24.8,4.187a38.589,38.589,0,0,0,23.836-12.314A26.514,26.514,0,0,1,108.7,123.6Z"/>
  <path class="a" d="M123.406,157.018s-44.077-23.693-46-39.27,4.5-28.913,25.179-32.009c13.265-1.985,46.029-12,36.626-46.387C124.478-14.522,20.514,10.278,12.977,11.209c0,0,47.768,16.909,49.728,32.774,1.858,15.035-3.846,29.632-25.169,32.267C2.465,80.584.389,107.454.389,122.442.389,162.379,115.887,157.947,123.406,157.018ZM50.438,88.145c-7.688,9.976-8.562,22.614-7.5,31.212A41.343,41.343,0,0,0,52.049,140.6,28.41,28.41,0,0,1,34.52,117.748C32.919,104.8,37.1,93.4,50.438,88.145Zm13.943,31.212A41.326,41.326,0,0,0,73.492,140.6a28.409,28.409,0,0,1-17.53-22.853c-1.6-12.952,2.579-24.348,15.918-29.6C64.193,98.121,63.318,110.759,64.381,119.357ZM126.7,40.9c1.589,12.859-2.364,25.392-16.881,30.4,5.989-6.989,9.779-17.159,7.952-31.946A41.346,41.346,0,0,0,107.981,17.3,28.922,28.922,0,0,1,126.7,40.9ZM88.374,71.3c5.989-6.989,9.779-17.159,7.951-31.946A41.346,41.346,0,0,0,86.538,17.3a28.921,28.921,0,0,1,18.717,23.6C106.844,53.758,102.891,66.291,88.374,71.3ZM75.218,42.437a41.384,41.384,0,0,0-14-26.272A28.936,28.936,0,0,1,83.812,40.9c1.448,11.714-1.7,23.162-13.244,28.893C74.543,63.134,76.68,54.265,75.218,42.437Zm-61.806,78.4c-1.458-11.8,1.881-22.309,12.572-28.059-4.9,9.035-5.392,19.271-4.488,26.584a41.365,41.365,0,0,0,13.2,25.556A28.43,28.43,0,0,1,13.412,120.832Z"/>
  <g>
    <path class="b" d="M.389,134.645l.384.329a42.589,42.589,0,0,0,60.049-4.641c9.995-11.669,21.933-36.942-5.58-60.507C38.515,55.5,41.908,39.8,52.01,28a29.659,29.659,0,0,1,41.826-3.232c.125.108.259.222.377.338l8.415-9.825-.384-.329a42.59,42.59,0,0,0-60.05,4.641c-23.772,27.754-5.185,51.169,5.024,60.378,15.92,14.359,13.854,29.391,3.387,41.611a29.137,29.137,0,0,1-41.081,3.175c-.125-.107-.259-.222-.377-.337Z"/>
    <path class="a" d="M138.284,12.885l.3.409a42.591,42.591,0,0,1-9.494,59.476c-12.441,9.016-38.6,18.865-59.856-10.467C56.307,44.469,40.38,46.577,27.805,55.69a29.659,29.659,0,0,0-6.612,41.426c.1.133.2.276.3.4L11.024,105.11l-.3-.41a42.589,42.589,0,0,1,9.494-59.475c29.59-21.444,51.422-1.02,59.773,9.9,13.021,17.031,28.17,16.191,41.2,6.749a29.137,29.137,0,0,0,6.5-40.689c-.1-.133-.2-.276-.306-.4Z"/>
  </g>
  <g>
    <path class="b" d="M.389,13.4l.4-.3a41.96,41.96,0,0,1,58.74,8.4c9.081,12.111,19.2,37.719-9.349,59.129C32.818,93.643,35.151,109.3,44.33,121.538a29.218,29.218,0,0,0,40.913,5.848c.13-.1.268-.2.392-.307l7.646,10.2-.4.3a41.957,41.957,0,0,1-58.739-8.4c-21.6-28.8-1.831-50.637,8.794-59.039,16.567-13.1,15.5-28.01,5.987-40.692A28.707,28.707,0,0,0,8.738,23.7c-.13.1-.268.2-.392.308Z"/>
    <path class="a" d="M112.585,152.11l.28-.315a35.547,35.547,0,0,0-2.969-50.182c-9.587-8.517-30.5-18.859-50.577,3.746C47.11,119.1,34.057,116.035,24.366,107.427A24.754,24.754,0,0,1,22.3,72.474c.091-.1.189-.212.287-.309L14.513,65l-.28.315A35.547,35.547,0,0,0,17.2,115.492c22.8,20.256,42.623,5.1,50.462-3.284,12.222-13.069,24.735-11.119,34.776-2.2a24.32,24.32,0,0,1,2.031,34.331c-.091.1-.189.213-.287.31Z"/>
    <path class="a" d="M136.448,108.213l.269-.324a35.549,35.549,0,0,0-4.69-50.051c-9.875-8.182-31.129-17.8-50.42,5.481-11.729,14.155-24.88,11.537-34.861,3.267a24.754,24.754,0,0,1-3.267-34.861c.088-.106.182-.219.276-.319l-8.313-6.889-.269.325a35.546,35.546,0,0,0,4.69,50.05c23.486,19.461,42.774,3.63,50.32-5.015,11.766-13.481,24.339-11.962,34.68-3.393a24.32,24.32,0,0,1,3.208,34.241c-.087.105-.181.219-.276.319Z"/>
  </g>
  <g>
    <path class="b" d="M.389,32.647l.151-.453a40.215,40.215,0,0,1,50.883-25.4c13.762,4.6,35.7,19.266,24.865,51.71C69.7,78.227,80.073,89.3,93.982,93.942a28,28,0,0,0,35.441-17.694c.049-.147.1-.305.141-.456l11.586,3.87-.151.453a40.215,40.215,0,0,1-50.883,25.4C57.386,94.586,61.067,66.6,64.863,54.182,70.782,34.823,61.81,23.653,47.4,18.839a27.514,27.514,0,0,0-34.811,17.38c-.049.147-.1.3-.141.456Z"/>
    <path class="a" d="M124.434,124.478l.135-.381A34.071,34.071,0,0,0,103.836,80.6c-11.585-4.1-33.885-5.749-43.565,21.566-5.885,16.607-18.584,18.59-30.294,14.44a23.726,23.726,0,0,1-14.44-30.294c.044-.124.091-.257.143-.378L5.926,82.48l-.135.381a34.071,34.071,0,0,0,20.733,43.494c27.555,9.765,39.69-10.844,43.628-21.114,6.142-16.013,17.957-18.794,30.089-14.494A23.309,23.309,0,0,1,114.425,120.5c-.044.124-.091.257-.143.378Z"/>
    <path class="a" d="M149.893,68.944l.175-.365A34.072,34.072,0,0,0,133.985,23.16c-11.094-5.291-33.1-9.252-45.577,16.9-7.586,15.9-20.422,16.551-31.635,11.2a23.726,23.726,0,0,1-11.2-31.635c.057-.119.118-.246.182-.361l-9.34-4.455-.174.365A34.071,34.071,0,0,0,52.322,60.6c26.386,12.586,40.6-6.646,45.593-16.448,7.778-15.286,19.819-16.819,31.437-11.277a23.309,23.309,0,0,1,11,31.072c-.056.119-.117.246-.182.361Z"/>
  </g>
  <g>
    <path class="b" d="M.389,21.838.8,21.529A43.394,43.394,0,0,1,61.55,30.212c9.392,12.525,19.86,39.009-9.669,61.152-17.954,13.464-15.54,29.654-6.048,42.313a30.218,30.218,0,0,0,42.313,6.048c.134-.1.278-.208.405-.318l7.908,10.545-.412.309A43.394,43.394,0,0,1,35.3,141.578C12.96,111.789,33.4,89.208,44.393,80.519,61.527,66.971,60.42,51.551,50.584,38.435a29.687,29.687,0,0,0-41.56-5.94c-.135.1-.278.208-.406.318Z"/>
    <path class="a" d="M116.424,159.835l.29-.326a36.763,36.763,0,0,0-3.071-51.9c-9.916-8.808-31.542-19.5-52.308,3.874-12.626,14.215-26.127,11.042-36.149,2.139a25.6,25.6,0,0,1-2.138-36.148c.094-.107.2-.22.3-.32L15,69.739l-.29.326a36.763,36.763,0,0,0,3.071,51.9c23.584,20.949,44.082,5.272,52.189-3.4,12.64-13.516,25.581-11.5,35.965-2.275a25.151,25.151,0,0,1,2.1,35.5c-.094.107-.195.22-.3.32Z"/>
    <path class="a" d="M67.848,135.648l.415.136a36.764,36.764,0,0,0,46.346-23.558c4.111-12.61,5.271-36.709-24.458-46.4C72.075,59.933,69.587,46.29,73.742,33.545a25.6,25.6,0,0,1,32.281-16.409c.135.044.279.091.412.145L109.9,6.664l-.414-.135A36.762,36.762,0,0,0,63.135,30.087C53.358,60.078,75.922,72.6,87.108,76.568c17.442,6.185,20.766,18.853,16.461,32.059a25.151,25.151,0,0,1-31.707,16.116c-.135-.044-.279-.091-.412-.144Z"/>
  </g>
  <g>
    <path class="b" d="M9.668,5.4l-.313.406a43.166,43.166,0,0,0,7.864,60.535c12.338,9.5,38.548,20.25,60.948-8.839,13.62-17.687,29.693-15.081,42.164-5.477a30.059,30.059,0,0,1,5.477,42.163c-.1.132-.21.274-.321.4l10.388,8,.312-.406a43.164,43.164,0,0,0-7.864-60.534c-29.345-22.6-52.065-2.55-60.847,8.27-13.694,16.87-29.017,15.572-41.938,5.623a29.531,29.531,0,0,1-5.38-41.414c.1-.132.21-.274.321-.4Z"/>
    <path class="a" d="M140.181,138.553l-.4.321a43.166,43.166,0,0,1-60.7-6.472C69.3,120.285,57.953,94.329,86.52,71.267c17.369-14.022,14.4-30.031,4.508-42.278A30.059,30.059,0,0,0,48.75,24.481c-.13.1-.269.217-.392.33l-8.235-10.2.4-.322a43.167,43.167,0,0,1,60.7,6.472c23.265,28.819,3.744,51.993-6.871,61.022-16.552,14.077-14.9,29.367-4.659,42.056a29.533,29.533,0,0,0,41.527,4.428c.129-.1.268-.217.391-.331Z"/>
  </g>
  <g>
    <path class="b" d="M131.951,152.838l.333-.388a43.123,43.123,0,0,0-4.7-60.8c-11.815-10.12-37.4-22.207-61.265,5.65-14.507,16.937-30.407,13.5-42.349,3.272A30.03,30.03,0,0,1,20.7,58.221c.109-.127.225-.262.342-.381l-9.948-8.521-.333.389a43.124,43.124,0,0,0,4.7,60.8c28.1,24.07,51.81,5.25,61.134-5.088C91.132,89.3,106.352,91.4,118.725,101.993a29.5,29.5,0,0,1,3.215,41.6c-.109.127-.225.262-.342.381Z"/>
    <path class="a" d="M8.667,13.217l.415-.3A43.123,43.123,0,0,1,69.3,22.529c9.129,12.6,19.1,39.082-10.6,60.605-18.058,13.086-15.923,29.212-6.7,41.944a30.03,30.03,0,0,0,41.945,6.7c.135-.1.279-.2.408-.31l7.686,10.606-.415.3a43.121,43.121,0,0,1-60.22-9.612C19.7,102.8,40.379,80.692,51.439,72.237c17.244-13.184,16.394-28.524,6.834-41.715a29.5,29.5,0,0,0-41.2-6.577c-.135.1-.279.2-.408.31Z"/>
  </g>
</svg>
