<svg xmlns="http://www.w3.org/2000/svg" viewBox="0 0 1920 1080">
  <defs>
    <style>
     
    </style>
  </defs>
  <title>N6</title>
  <g>
    <path class="a" d="M113.08,1.054S94.851,29.227,57.563,20.113C36.369,14.932,22.761,21.77,9.5,39.171L.389,12.655s30.658-14.915,58-3.314S113.08,1.054,113.08,1.054Z"/>
    <path class="a" d="M113.08,47.914S94.851,76.087,57.563,66.972c-21.194-5.18-34.8,1.658-48.06,19.059L.389,59.515s30.658-14.915,58-3.314S113.08,47.914,113.08,47.914Z"/>
    <path class="a" d="M113.08,94.774s-18.229,28.173-55.517,19.058c-21.194-5.18-34.8,1.658-48.06,19.058L.389,106.375s30.658-14.915,58-3.315S113.08,94.774,113.08,94.774Z"/>
    <path class="a" d="M155.021,28.55S135,55.481,98.385,43.967c-20.813-6.545-34.836-.6-49.194,15.9L41.815,32.816s31.562-12.9,58.1.455S155.021,28.55,155.021,28.55Z"/>
    <path class="a" d="M152.189,75.41S132.17,102.341,95.552,90.827c-20.813-6.545-34.836-.6-49.194,15.9L38.982,79.676s31.562-12.895,58.1.455S152.189,75.41,152.189,75.41Z"/>
    <path class="a" d="M149.356,122.269S129.337,149.2,92.719,137.686c-20.813-6.544-34.836-.6-49.194,15.9l-7.376-27.051s31.562-12.895,58.1.455S149.356,122.269,149.356,122.269Z"/>
  </g>
  <g>
    <path class="a" d="M136.076,29.871s-10.391,39.608-57.09,43.257C52.442,75.2,39.275,88.317,30.54,113.542L9.865,86.28S39.719,57.3,75.84,60.325,136.076,29.871,136.076,29.871Z"/>
    <path class="a" d="M145.136,57.419s-10.391,39.608-57.09,43.257C61.5,102.751,48.335,115.865,39.6,141.091L18.925,113.828S48.779,84.85,84.9,87.874,145.136,57.419,145.136,57.419Z"/>
    <path class="a" d="M126.6,1.054s-10.391,39.608-57.09,43.258C42.965,46.386,29.8,59.5,21.063,84.726L.389,57.464S30.243,28.486,66.363,31.509,126.6,1.054,126.6,1.054Z"/>
  </g>
  <g>
    <path class="a" d="M137.905,92.058s-22.245,34.379-67.747,23.256c-25.863-6.322-42.468,2.023-58.647,23.257L.389,106.214s37.412-18.2,70.78-4.045S137.905,92.058,137.905,92.058Z"/>
    <path class="a" d="M137.905,61.723S115.66,96.1,70.158,84.98C44.3,78.658,27.69,87,11.511,108.236L.389,75.88s37.412-18.2,70.78-4.045S137.905,61.723,137.905,61.723Z"/>
    <path class="a" d="M137.905,31.389S115.66,65.768,70.158,54.645C44.3,48.323,27.69,56.668,11.511,77.9L.389,45.545S37.8,27.344,71.169,41.5,137.905,31.389,137.905,31.389Z"/>
    <path class="a" d="M137.905,1.054S115.66,35.434,70.158,24.311C44.3,17.989,27.69,26.333,11.511,47.567L.389,15.211S37.8-2.99,71.169,11.166,137.905,1.054,137.905,1.054Z"/>
  </g>
  <g>
    <rect class="a" x="0.389" y="1.054" width="77" height="23"/>
    <rect class="a" x="0.389" y="43.054" width="77" height="23"/>
    <rect class="a" x="0.389" y="85.054" width="77" height="23"/>
    <rect class="a" x="0.389" y="127.054" width="77" height="23"/>
    <rect class="a" x="77.389" y="121.873" width="77" height="5.182"/>
    <rect class="a" x="77.389" y="114.964" width="77" height="5.182"/>
    <rect class="a" x="77.389" y="108.054" width="77" height="5.182"/>
    <rect class="a" x="77.389" y="79.873" width="77" height="5.182"/>
    <rect class="a" x="77.389" y="72.964" width="77" height="5.182"/>
    <rect class="a" x="77.389" y="66.054" width="77" height="5.182"/>
    <rect class="a" x="77.389" y="37.873" width="77" height="5.182"/>
    <rect class="a" x="77.389" y="30.964" width="77" height="5.182"/>
    <rect class="a" x="77.389" y="24.054" width="77" height="5.182"/>
    <rect class="a" x="77.389" y="1.054" width="77" height="9"/>
    <rect class="a" x="77.389" y="13.054" width="77" height="9"/>
    <rect class="a" x="77.389" y="44.054" width="77" height="9"/>
    <rect class="a" x="77.389" y="56.054" width="77" height="9"/>
    <rect class="a" x="77.389" y="86.054" width="77" height="9"/>
    <rect class="a" x="77.389" y="98.054" width="77" height="9"/>
    <rect class="a" x="77.389" y="129.054" width="77" height="9" transform="translate(231.777 267.109) rotate(-180)"/>
    <rect class="a" x="77.389" y="141.054" width="77" height="9" transform="translate(231.777 291.109) rotate(-180)"/>
  </g>
  <g>
    <rect class="a" x="0.389" y="1.054" width="77" height="23"/>
    <rect class="a" x="0.389" y="30.054" width="77" height="13"/>
    <rect class="a" x="0.389" y="48.054" width="77" height="13"/>
    <rect class="a" x="0.389" y="64.054" width="77" height="23"/>
    <rect class="a" x="0.389" y="92.054" width="77" height="13"/>
    <rect class="a" x="0.389" y="110.054" width="77" height="13"/>
    <rect class="a" x="0.389" y="127.054" width="77" height="23"/>
    <rect class="a" x="77.389" y="121.873" width="77" height="5.182"/>
    <rect class="a" x="77.389" y="114.964" width="77" height="5.182"/>
    <rect class="a" x="77.389" y="108.054" width="77" height="5.182"/>
    <rect class="a" x="77.389" y="79.873" width="77" height="5.182"/>
    <rect class="a" x="77.389" y="72.964" width="77" height="5.182"/>
    <rect class="a" x="77.389" y="66.054" width="77" height="5.182"/>
    <rect class="a" x="77.389" y="37.873" width="77" height="5.182"/>
    <rect class="a" x="77.389" y="30.964" width="77" height="5.182"/>
    <rect class="a" x="77.389" y="24.054" width="77" height="5.182"/>
    <rect class="a" x="77.389" y="1.054" width="77" height="9"/>
    <rect class="a" x="77.389" y="13.054" width="77" height="9"/>
    <rect class="a" x="77.389" y="44.054" width="77" height="9"/>
    <rect class="a" x="77.389" y="56.054" width="77" height="9"/>
    <rect class="a" x="77.389" y="86.054" width="77" height="9"/>
    <rect class="a" x="77.389" y="98.054" width="77" height="9"/>
    <rect class="a" x="77.389" y="129.054" width="77" height="9" transform="translate(231.777 267.109) rotate(-180)"/>
    <rect class="a" x="77.389" y="141.054" width="77" height="9" transform="translate(231.777 291.109) rotate(-180)"/>
  </g>
  <g>
    <path class="a" d="M142.98,1.054S112.82,37.247,82.659,21.736,17.168,13.98,9.412,46.726s54.289-23.267,59.46,29.3S142.98,1.054,142.98,1.054Z"/>
    <path class="a" d="M134.626,48.394s-30.16,36.192-60.321,20.681S8.814,61.319,1.059,94.065s54.288-23.267,59.459,29.3S134.626,48.394,134.626,48.394Z"/>
  </g>
  <g>
    <path class="a" d="M135.15,36.855S93.917,53.219,75.95,26.817,25.27-9.068,4.12,14.527s55.374,5.185,36,50.99S135.15,36.855,135.15,36.855Z"/>
    <path class="a" d="M13.681,111.216s41.233-16.364,59.2,10.037,50.68,35.885,71.83,12.29-55.374-5.184-36-50.99S13.681,111.216,13.681,111.216Z"/>
  </g>
  <g>
    <path class="a" d="M130.389,1.054H.389s27.986,22,64,22C103.389,23.054,130.389,1.054,130.389,1.054Z"/>
    <path class="a" d="M130.389,32.054H.389s27.986,22,64,22C103.389,54.054,130.389,32.054,130.389,32.054Z"/>
    <path class="a" d="M130.389,63.054H.389s27.986,22,64,22C103.389,85.054,130.389,63.054,130.389,63.054Z"/>
    <path class="a" d="M130.389,94.054H.389s27.986,22,64,22C103.389,116.054,130.389,94.054,130.389,94.054Z"/>
  </g>
  <g>
    <path class="a" d="M126.326,1.054H.389S27.5,20.32,62.389,20.32C100.17,20.32,126.326,1.054,126.326,1.054Z"/>
    <path class="a" d="M155.389,28.2H29.451s27.112,19.266,62,19.266C129.232,47.467,155.389,28.2,155.389,28.2Z"/>
    <path class="a" d="M126.326,55.348H.389s27.111,19.266,62,19.266C100.17,74.614,126.326,55.348,126.326,55.348Z"/>
    <path class="a" d="M155.389,82.5H29.451s27.112,19.266,62,19.266C129.232,101.761,155.389,82.5,155.389,82.5Z"/>
    <path class="a" d="M126.326,109.642H.389s27.111,19.266,62,19.266C100.17,128.908,126.326,109.642,126.326,109.642Z"/>
    <path class="a" d="M155.389,136.789H29.451s27.112,19.265,62,19.265C129.232,156.054,155.389,136.789,155.389,136.789Z"/>
  </g>
  <g>
    <polygon class="a" points="155.389 58.054 0.389 25.054 0.389 1.054 155.389 34.054 155.389 58.054"/>
    <polygon class="a" points="155.389 87.054 0.389 54.054 0.389 30.054 155.389 63.054 155.389 87.054"/>
    <polygon class="a" points="155.389 116.054 0.389 83.054 0.389 59.054 155.389 92.054 155.389 116.054"/>
    <polygon class="a" points="155.389 145.054 0.389 112.054 0.389 88.054 155.389 121.054 155.389 145.054"/>
  </g>
  <g>
    <polygon class="a" points="0.389 61 155.389 28 155.389 1.054 0.389 34.054 0.389 61"/>
    <polygon class="a" points="0.389 90 155.389 57 155.389 33 0.389 66 0.389 90"/>
    <polygon class="a" points="0.389 115.484 155.389 82.484 155.389 62 0.389 95 0.389 115.484"/>
    <polygon class="a" points="0.389 131.849 155.389 98.849 155.389 86 0.389 119 0.389 131.849"/>
    <polygon class="a" points="0.389 142.343 155.389 109.343 155.389 102 0.389 135 0.389 142.343"/>
  </g>
  <g>
    <path class="a" d="M94.769,26.933v.3A25.576,25.576,0,0,1,69.194,52.812c-9.227,0-25.417-4.429-25.417-26.183,0-13.226-8.488-17.813-17.813-17.813A17.81,17.81,0,0,0,8.15,26.629c0,.1,0,.2.007.3H.389v-.3A25.577,25.577,0,0,1,25.964,1.054c21.945,0,25.363,17.625,25.575,25.879.33,12.87,7.992,17.8,17.655,17.8a17.5,17.5,0,0,0,17.5-17.5c0-.1,0-.2-.006-.3Z"/>
    <path class="a" d="M94.769,71.813v.3A25.576,25.576,0,0,1,69.194,97.692c-9.227,0-25.417-4.429-25.417-26.183,0-13.226-8.488-17.813-17.813-17.813A17.81,17.81,0,0,0,8.15,71.509c0,.1,0,.2.007.3H.389v-.3A25.577,25.577,0,0,1,25.964,45.934c21.945,0,25.363,17.625,25.575,25.879.33,12.87,7.992,17.8,17.655,17.8a17.5,17.5,0,0,0,17.5-17.5c0-.1,0-.2-.006-.3Z"/>
  </g>
  <g>
    <path class="a" d="M94.769,26.933v.3A25.576,25.576,0,0,1,69.194,52.812c-9.227,0-25.417-4.429-25.417-26.183,0-13.226-8.488-17.813-17.813-17.813A17.81,17.81,0,0,0,8.15,26.629c0,.1,0,.2.007.3H.389v-.3A25.577,25.577,0,0,1,25.964,1.054c21.945,0,25.363,17.625,25.575,25.879.33,12.87,7.992,17.8,17.655,17.8a17.5,17.5,0,0,0,17.5-17.5c0-.1,0-.2-.006-.3Z"/>
    <path class="a" d="M88.3,47.968l.153.262a25.576,25.576,0,0,1-9.146,34.993c-7.962,4.662-24.171,9.021-35.163-9.751C37.461,62.058,27.819,62.389,19.772,67.1A17.81,17.81,0,0,0,13.4,91.474c.05.086.1.177.159.259l-6.7,3.925L6.7,95.4A25.574,25.574,0,0,1,15.85,60.4C34.787,49.315,46.643,62.8,51,69.812c6.788,10.939,15.892,11.322,24.23,6.439a17.5,17.5,0,0,0,6.257-23.939c-.05-.086-.1-.177-.159-.259Z"/>
  </g>
  <g>
    <path class="a" d="M92.045,1.054l.166.283A27.545,27.545,0,0,1,82.36,39.023c-8.575,5.021-26.031,9.715-37.869-10.5-7.2-12.292-17.582-11.936-26.249-6.861a19.18,19.18,0,0,0-6.861,26.248c.054.092.111.191.171.279L4.333,52.415l-.165-.282a27.544,27.544,0,0,1,9.85-37.686C34.413,2.505,47.181,17.024,51.869,24.58c7.311,11.781,17.115,12.193,26.1,6.935A18.844,18.844,0,0,0,84.7,5.733c-.054-.092-.111-.19-.171-.279Z"/>
    <path class="a" d="M92.045,49.234l.166.283A27.545,27.545,0,0,1,82.36,87.2c-8.575,5.021-26.031,9.715-37.869-10.5-7.2-12.292-17.582-11.936-26.249-6.861a19.18,19.18,0,0,0-6.861,26.248c.054.092.111.191.171.279L4.333,100.6l-.165-.282a27.544,27.544,0,0,1,9.85-37.686C34.413,50.685,47.181,65.2,51.869,72.76c7.311,11.781,17.115,12.193,26.1,6.935A18.844,18.844,0,0,0,84.7,53.913c-.054-.092-.111-.19-.171-.279Z"/>
  </g>
  <g>
    <path class="a" d="M4.333,1.054l-.165.283a27.545,27.545,0,0,0,9.85,37.686c8.575,5.021,26.031,9.715,37.869-10.5,7.2-12.292,17.582-11.936,26.249-6.861A19.179,19.179,0,0,1,85,47.909c-.054.092-.111.191-.171.279l7.219,4.227.166-.282A27.545,27.545,0,0,0,82.36,14.447C61.965,2.505,49.2,17.024,44.509,24.58,37.2,36.361,27.394,36.773,18.415,31.515A18.843,18.843,0,0,1,11.676,5.733c.053-.092.111-.19.171-.279Z"/>
    <path class="a" d="M4.333,49.234l-.165.283A27.545,27.545,0,0,0,14.018,87.2c8.575,5.021,26.031,9.715,37.869-10.5,7.2-12.292,17.582-11.936,26.249-6.861A19.179,19.179,0,0,1,85,96.089c-.054.092-.111.191-.171.279l7.219,4.227.166-.282A27.545,27.545,0,0,0,82.36,62.627C61.965,50.685,49.2,65.2,44.509,72.76,37.2,84.541,27.394,84.953,18.415,79.695a18.843,18.843,0,0,1-6.739-25.782c.053-.092.111-.19.171-.279Z"/>
  </g>
  <ellipse class="a" cx="73.024" cy="59.325" rx="72.62" ry="58.259"/>
  <g>
    <path class="a" d="M92.045,51.521l.166.282A27.545,27.545,0,0,1,82.36,89.489c-8.575,5.021-26.031,9.716-37.869-10.5-7.2-12.292-17.582-11.936-26.249-6.861a19.181,19.181,0,0,0-6.861,26.249c.054.092.111.19.171.278l-7.219,4.228-.165-.283a27.543,27.543,0,0,1,9.85-37.685c20.395-11.943,33.163,2.577,37.851,10.132,7.311,11.781,17.115,12.193,26.1,6.935A18.844,18.844,0,0,0,84.7,56.2c-.054-.092-.111-.19-.171-.278Z"/>
    <path class="a" d="M92.045,1.054l.166.283A27.545,27.545,0,0,1,82.36,39.023c-8.575,5.021-26.031,9.715-37.869-10.5-7.2-12.292-17.582-11.936-26.249-6.861a19.18,19.18,0,0,0-6.861,26.248c.054.092.111.191.171.279L4.333,52.415l-.165-.282a27.544,27.544,0,0,1,9.85-37.686C34.413,2.505,47.181,17.024,51.869,24.58c7.311,11.781,17.115,12.193,26.1,6.935A18.844,18.844,0,0,0,84.7,5.733c-.054-.092-.111-.19-.171-.279Z"/>
  </g>
  <path class="a" d="M142.451,17.354s-22.1,41.111-36.628,42.907S78.855,56.066,75.967,36.775C74.116,24.4,64.774-6.158,32.7,2.613-17.549,16.354,5.583,113.324,6.451,120.354c0,0,15.772-44.554,30.57-46.383,14.023-1.733,27.638,3.588,30.1,23.476,4.042,32.712,29.1,34.648,43.084,34.648C147.451,132.1,143.318,24.367,142.451,17.354ZM78.212,85.413c9.3,7.171,21.092,7.986,29.112,7a38.555,38.555,0,0,0,19.815-8.5,26.5,26.5,0,0,1-21.316,16.351C93.742,101.753,83.113,97.855,78.212,85.413Zm29.112-13a38.555,38.555,0,0,0,19.815-8.5,26.5,26.5,0,0,1-21.316,16.351c-12.081,1.492-22.71-2.406-27.611-14.848C87.517,72.584,99.3,73.4,107.324,72.408ZM34.144,14.284C46.138,12.8,57.828,16.489,62.5,30.029c-6.518-5.586-16-9.121-29.8-7.416a38.56,38.56,0,0,0-20.573,9.128A26.976,26.976,0,0,1,34.144,14.284ZM62.5,50.029c-6.518-5.586-16-9.121-29.8-7.416a38.56,38.56,0,0,0-20.573,9.128A26.976,26.976,0,0,1,34.144,34.284C46.138,32.8,57.828,36.489,62.5,50.029ZM35.579,62.3A38.6,38.6,0,0,0,11.074,75.354a26.991,26.991,0,0,1,23.07-21.07c10.926-1.35,21.6,1.584,26.95,12.353C54.883,62.93,46.611,60.937,35.579,62.3ZM108.7,119.948c-11.006,1.36-20.808-1.754-26.172-11.726,8.428,4.565,17.975,5.029,24.8,4.186a38.579,38.579,0,0,0,23.836-12.314A26.515,26.515,0,0,1,108.7,119.948Z"/>
  <path class="a" d="M91.821,114.258s-32.76-17.61-34.19-29.188,3.342-21.489,18.714-23.79C86.2,59.8,110.556,52.36,103.568,26.8,92.618-13.239,15.347,5.193,9.745,5.886c0,0,35.5,12.568,36.96,24.359C48.086,41.42,43.846,52.269,28,54.227,1.932,57.448.389,77.419.389,88.559.389,118.242,86.233,114.949,91.821,114.258ZM37.588,63.068c-5.714,7.415-6.364,16.808-5.574,23.2a30.718,30.718,0,0,0,6.771,15.789A21.117,21.117,0,0,1,25.756,85.07C24.567,75.444,27.673,66.974,37.588,63.068Zm10.363,23.2a30.711,30.711,0,0,0,6.772,15.789A21.118,21.118,0,0,1,41.693,85.07c-1.189-9.626,1.917-18.1,11.832-22C47.811,70.483,47.161,79.876,47.951,86.267ZM94.267,27.952C95.448,37.51,92.51,46.825,81.72,50.547c4.452-5.195,7.269-12.754,5.91-23.744a30.718,30.718,0,0,0-7.274-16.394A21.5,21.5,0,0,1,94.267,27.952ZM65.783,50.547c4.452-5.195,7.268-12.754,5.91-23.744a30.725,30.725,0,0,0-7.274-16.394A21.5,21.5,0,0,1,78.33,27.952C79.511,37.51,76.573,46.825,65.783,50.547ZM56.006,29.1A30.76,30.76,0,0,0,45.6,9.569a21.507,21.507,0,0,1,16.79,18.383c1.076,8.707-1.262,17.215-9.844,21.476C55.5,44.479,57.092,37.887,56.006,29.1ZM10.069,87.363c-1.084-8.77,1.4-16.581,9.344-20.855-3.639,6.715-4.008,14.323-3.337,19.759a30.746,30.746,0,0,0,9.813,18.994A21.129,21.129,0,0,1,10.069,87.363Z"/>
  <g>
    <path class="b" d="M.389,85.584l.249.214A27.709,27.709,0,0,0,39.7,82.779c6.5-7.591,14.267-24.033-3.63-39.363C25.191,34.1,27.4,23.88,33.971,16.207A19.293,19.293,0,0,1,61.18,14.1c.082.07.169.144.245.22L66.9,7.932l-.25-.214a27.706,27.706,0,0,0-39.065,3.019C12.12,28.792,24.212,44.025,30.854,50.016c10.356,9.341,9.012,19.12,2.2,27.07A18.956,18.956,0,0,1,6.331,79.151c-.081-.07-.168-.144-.245-.219Z"/>
    <path class="a" d="M90.1,6.373l.193.267a27.706,27.706,0,0,1-6.176,38.691C76.019,51.2,59,57.6,45.174,38.522c-8.408-11.6-18.769-10.23-26.95-4.3a19.294,19.294,0,0,0-4.3,26.95c.063.086.13.179.2.262L7.307,66.37,7.114,66.1a27.707,27.707,0,0,1,6.177-38.692c19.249-13.95,33.452-.663,38.884,6.442,8.471,11.08,18.327,10.533,26.8,4.391A18.955,18.955,0,0,0,83.2,11.775c-.063-.087-.13-.179-.2-.262Z"/>
  </g>
  <g>
    <path class="b" d="M.389,6.487.638,6.3a26.228,26.228,0,0,1,36.718,5.248c5.676,7.57,12,23.578-5.844,36.962-10.852,8.137-9.393,17.923-3.656,25.575A18.266,18.266,0,0,0,53.431,77.74c.081-.061.168-.126.245-.192l4.779,6.373-.249.187A26.228,26.228,0,0,1,21.488,78.86c-13.5-18.005-1.144-31.653,5.5-36.9,10.356-8.189,9.687-17.509,3.742-25.437a17.944,17.944,0,0,0-25.12-3.59c-.081.061-.168.126-.245.192Z"/>
    <path class="a" d="M70.523,93.2,70.7,93a22.222,22.222,0,0,0-1.856-31.369c-5.993-5.324-19.065-11.788-31.616,2.342-7.632,8.591-15.792,6.673-21.849,1.293a15.474,15.474,0,0,1-1.293-21.849c.057-.065.118-.133.18-.194L9.218,38.739l-.175.2A22.22,22.22,0,0,0,10.9,70.305c14.255,12.662,26.645,3.186,31.544-2.053,7.641-8.169,15.463-6.951,21.739-1.375a15.2,15.2,0,0,1,1.27,21.46c-.058.064-.119.133-.18.193Z"/>
    <path class="a" d="M85.439,65.755l.168-.2a22.221,22.221,0,0,0-2.932-31.287C76.5,29.151,63.217,23.139,51.158,37.691,43.826,46.54,35.6,44.9,29.367,39.734a15.473,15.473,0,0,1-2.042-21.792c.054-.066.113-.137.172-.2l-5.2-4.307-.168.2a22.221,22.221,0,0,0,2.932,31.287C39.745,57.091,51.8,47.2,56.519,41.791c7.355-8.427,15.214-7.477,21.678-2.121a15.2,15.2,0,0,1,2.006,21.4c-.055.066-.113.137-.173.2Z"/>
  </g>
  <g>
    <path class="b" d="M.389,19.275l.1-.295A26.23,26.23,0,0,1,33.673,2.412c8.974,3,23.283,12.565,16.216,33.725C45.592,49,52.358,56.221,61.429,59.251a18.264,18.264,0,0,0,23.114-11.54c.032-.1.066-.2.092-.3l7.556,2.524-.1.295A26.229,26.229,0,0,1,58.907,66.8C37.561,59.671,39.962,41.417,42.438,33.32c3.86-12.626-1.991-19.911-11.39-23.05a17.944,17.944,0,0,0-22.7,11.335c-.032.1-.066.2-.092.3Z"/>
    <path class="a" d="M81.289,79.166l.088-.249A22.22,22.22,0,0,0,67.855,50.552c-7.555-2.678-22.1-3.75-28.412,14.064C35.6,75.447,27.323,76.741,19.686,74.034a15.473,15.473,0,0,1-9.418-19.757c.029-.081.059-.168.094-.247L4,51.776l-.088.248A22.221,22.221,0,0,0,17.433,80.39C35.4,86.759,43.319,73.318,45.887,66.62,49.893,56.177,57.6,54.363,65.511,57.167a15.2,15.2,0,0,1,9.25,19.406c-.028.081-.059.168-.093.247Z"/>
    <path class="a" d="M97.893,42.948l.114-.238A22.221,22.221,0,0,0,87.518,13.088C80.282,9.637,65.93,7.054,57.794,24.113c-4.948,10.371-13.319,10.794-20.632,7.305a15.472,15.472,0,0,1-7.306-20.631c.037-.078.077-.161.119-.236L23.883,7.645l-.113.238A22.221,22.221,0,0,0,34.259,37.505c17.208,8.208,26.481-4.334,29.735-10.727,5.072-9.969,12.925-10.969,20.5-7.355a15.2,15.2,0,0,1,7.176,20.265c-.037.078-.077.16-.119.236Z"/>
  </g>
  <g>
    <path class="b" d="M.389,11.408l.249-.187a26.228,26.228,0,0,1,36.718,5.248c5.676,7.57,12,23.578-5.844,36.962-10.852,8.137-9.393,17.923-3.656,25.574a18.265,18.265,0,0,0,25.575,3.656c.081-.061.168-.126.245-.192l4.779,6.373-.249.187a26.228,26.228,0,0,1-36.718-5.248c-13.5-18.005-1.144-31.653,5.5-36.905,10.356-8.189,9.687-17.509,3.742-25.437a17.944,17.944,0,0,0-25.12-3.59c-.081.061-.168.126-.245.192Z"/>
    <path class="a" d="M70.523,94.816l.175-.2A22.221,22.221,0,0,0,68.842,63.25c-5.993-5.324-19.065-11.788-31.616,2.342-7.632,8.591-15.792,6.673-21.849,1.293a15.474,15.474,0,0,1-1.293-21.849c.057-.065.118-.133.18-.194L9.218,40.36l-.175.2A22.22,22.22,0,0,0,10.9,71.926c14.255,12.662,26.645,3.186,31.544-2.053C50.083,61.7,57.905,62.922,64.181,68.5a15.2,15.2,0,0,1,1.27,21.461c-.058.064-.119.133-.18.193Z"/>
    <path class="a" d="M41.163,80.2l.25.082A22.221,22.221,0,0,0,69.426,66.04c2.484-7.622,3.186-22.188-14.783-28.045-10.926-3.562-12.429-11.808-9.918-19.511A15.473,15.473,0,0,1,64.236,8.566c.082.027.169.055.249.087l2.092-6.417-.251-.081A22.219,22.219,0,0,0,38.314,16.394C32.4,34.521,46.042,42.09,52.8,44.488c10.543,3.738,12.552,11.4,9.95,19.376a15.2,15.2,0,0,1-19.164,9.742c-.082-.027-.169-.055-.249-.087Z"/>
  </g>
  <g>
    <path class="b" d="M6.344,1.5l-.2.261a27.706,27.706,0,0,0,5.048,38.855c7.919,6.1,24.742,13,39.12-5.674,8.742-11.352,19.059-9.679,27.063-3.515A19.294,19.294,0,0,1,80.891,58.49c-.066.085-.135.175-.206.256l6.667,5.134.2-.26a27.706,27.706,0,0,0-5.048-38.855c-18.836-14.5-33.419-1.637-39.056,5.308C34.66,40.9,24.824,40.068,16.531,33.682A18.955,18.955,0,0,1,13.078,7.1c.065-.085.135-.175.206-.256Z"/>
    <path class="a" d="M90.116,86.964l-.256.206A27.707,27.707,0,0,1,50.9,83.016c-6.278-7.777-13.562-24.437,4.774-39.24,11.149-9,9.24-19.276,2.894-27.137A19.294,19.294,0,0,0,31.43,13.745c-.083.068-.172.14-.251.213L25.892,7.41l.256-.207a27.707,27.707,0,0,1,38.961,4.154c14.933,18.5,2.4,33.373-4.41,39.168-10.624,9.036-9.565,18.849-2.99,26.994a18.955,18.955,0,0,0,26.654,2.842c.083-.067.172-.139.251-.212Z"/>
  </g>
  <g>
    <path class="b" d="M84.918,96.228l.214-.25a27.706,27.706,0,0,0-3.019-39.065c-7.591-6.5-24.032-14.268-39.363,3.63-9.32,10.882-19.536,8.675-27.209,2.1a19.3,19.3,0,0,1-2.1-27.21c.07-.081.144-.168.22-.245L7.266,29.717l-.214.25a27.707,27.707,0,0,0,3.019,39.065C28.127,84.5,43.359,72.405,49.35,65.763c9.341-10.356,19.12-9.013,27.07-2.2a18.954,18.954,0,0,1,2.065,26.725c-.069.082-.144.168-.219.245Z"/>
    <path class="a" d="M5.708,6.521l.266-.193A27.707,27.707,0,0,1,44.666,12.5c5.865,8.093,12.272,25.11-6.81,38.939-11.6,8.408-10.23,18.769-4.3,26.949a19.3,19.3,0,0,0,26.95,4.3c.087-.063.179-.13.262-.2L65.7,89.309l-.266.193a27.706,27.706,0,0,1-38.692-6.176c-13.95-19.25-.663-33.452,6.442-38.885,11.08-8.47,10.534-18.326,4.391-26.8a18.956,18.956,0,0,0-26.47-4.225c-.087.063-.179.13-.262.2Z"/>
  </g>
  <g>
    <path class="a" d="M98.388,6.069l.1.311A27.544,27.544,0,0,1,81,41.183c-9.434,3.123-27.485,4.075-34.847-18.166C41.675,9.494,31.445,7.677,21.91,10.834A19.18,19.18,0,0,0,9.727,35.075c.033.1.069.209.109.308L1.894,38.012l-.1-.31A27.545,27.545,0,0,1,19.283,2.9C41.72-4.529,51.18,12.333,54.19,20.7c4.693,13.047,14.2,15.494,24.075,12.224A18.843,18.843,0,0,0,90.231,9.114c-.033-.1-.069-.209-.109-.308Z"/>
    <path class="a" d="M85.377,77.737c-11-20.915-29.516-15.336-37.489-11.4-12.432,6.139-20.973,1.308-25.819-7.9a18.844,18.844,0,0,1,7.9-25.449c.094-.05.2-.1.293-.146L26.21,25.136l-.289.152a27.545,27.545,0,0,0-11.551,37.2c4.627,8.794,16.966,22,37.7,11.1,12.606-6.632,21.234-.843,25.911,8.045a19.1,19.1,0,0,1,1.86,12.547H88.3A27.4,27.4,0,0,0,85.377,77.737Z"/>
  </g>
</svg>
