<svg xmlns="http://www.w3.org/2000/svg" viewBox="0 0 1920 1080">
  <defs>
    <style>
    
    </style>
  </defs>
  <title>N7</title>
  <g>
    <polygon class="a" points="72.11 156 50.6 156 137.49 34.97 159 34.97 72.11 156"/>
    <polygon class="a" points="46.3 142.72 24.8 142.72 111.69 21.69 133.19 21.69 46.3 142.72"/>
    <polygon class="a" points="23.51 122.03 2 122.03 88.89 1 110.39 1 23.51 122.03"/>
  </g>
  <g>
    <polygon class="a" points="72.11 156 50.6 156 137.49 34.97 159 34.97 72.11 156"/>
    <polygon class="a" points="30.71 142.72 19.8 142.72 106.69 21.69 117.6 21.69 30.71 142.72"/>
    <polygon class="a" points="49.71 142.72 38.8 142.72 125.69 21.69 136.6 21.69 49.71 142.72"/>
    <polygon class="a" points="23.51 122.03 2 122.03 88.89 1 110.39 1 23.51 122.03"/>
  </g>
  <g>
    <rect class="a" x="81.57" y="25.11" width="6" height="146.66" transform="translate(141.73 -18.08) rotate(66.8)"/>
    <rect class="a" x="77.72" y="36.29" width="6" height="146.66" transform="translate(149.66 -7.76) rotate(66.8)"/>
    <rect class="a" x="70.72" y="45.39" width="6" height="153.5" transform="translate(156.93 6.26) rotate(66.8)"/>
    <rect class="a" x="73.36" y="4.45" width="6" height="133.01" transform="translate(111.49 -27.18) rotate(66.8)"/>
    <rect class="a" x="70.19" y="15.34" width="6" height="133.01" transform="translate(119.57 -17.67) rotate(66.8)"/>
    <rect class="a" x="64.16" y="24.34" width="6" height="139.22" transform="translate(127.05 -4.79) rotate(66.8)"/>
    <rect class="a" x="73.36" y="-26.55" width="6" height="133.01" transform="translate(83 -45.97) rotate(66.8)"/>
    <rect class="a" x="70.19" y="-15.66" width="6" height="133.01" transform="translate(91.08 -36.45) rotate(66.8)"/>
    <rect class="a" x="64.16" y="-6.66" width="6" height="139.22" transform="translate(98.55 -23.58) rotate(66.8)"/>
    <rect class="a" x="46.89" y="-23.01" width="6" height="88.34" transform="translate(49.68 -33.03) rotate(66.8)"/>
    <rect class="a" x="45.94" y="-13.08" width="6" height="88.34" transform="translate(58.23 -26.14) rotate(66.8)"/>
    <rect class="a" x="43.1" y="-4.4" width="6" height="92.45" transform="translate(66.38 -17.02) rotate(66.8)"/>
    <rect class="a" x="108.89" y="71.99" width="6" height="88.34" transform="translate(174.57 -32.45) rotate(66.8)"/>
    <rect class="a" x="107.94" y="81.92" width="6" height="88.34" transform="translate(183.12 -25.56) rotate(66.8)"/>
    <rect class="a" x="105.1" y="90.6" width="6" height="92.45" transform="translate(191.27 -16.44) rotate(66.8)"/>
  </g>
  <g>
    <rect class="a" x="2" y="1" width="7" height="155"/>
    <rect class="a" x="12" y="1" width="7" height="155"/>
    <rect class="a" x="22" y="1" width="7" height="155"/>
    <rect class="a" x="42" y="1" width="7" height="155"/>
    <rect class="a" x="52" y="1" width="7" height="155"/>
    <rect class="a" x="62" y="1" width="7" height="155"/>
    <rect class="a" x="82" y="1" width="7" height="155"/>
    <rect class="a" x="92" y="1" width="7" height="155"/>
    <rect class="a" x="102" y="1" width="7" height="155"/>
    <rect class="a" x="122" y="1" width="7" height="155"/>
    <rect class="a" x="132" y="1" width="7" height="155"/>
    <rect class="a" x="142" y="1" width="7" height="155"/>
  </g>
  <g>
    <polygon class="a" points="41.88 156 6 156 63 1 98.88 1 41.88 156"/>
    <polygon class="a" points="17.15 114 2 114 43 1 58.15 1 17.15 114"/>
    <polygon class="a" points="116.15 156 101 156 142 43 157.15 43 116.15 156"/>
    <polygon class="a" points="95.88 156 60 156 117 1 152.88 1 95.88 156"/>
  </g>
  <g>
    <rect class="a" x="54" y="1" width="49.33" height="155"/>
    <rect class="a" x="110" y="1" width="9.33" height="75"/>
    <rect class="a" x="36.67" y="1" width="9.33" height="75"/>
    <rect class="a" x="19.33" y="1" width="9.33" height="75"/>
    <rect class="a" x="2" y="1" width="9.33" height="75"/>
    <rect class="a" x="143.33" y="1" width="9.33" height="75"/>
    <rect class="a" x="126" y="1" width="9.33" height="75"/>
    <path class="b" d="M154.83,114s-42-8-48,42C106.83,156,152.83,154,154.83,114Z"/>
    <path class="b" d="M154.83,72s-42-8-48,42C106.83,114,152.83,112,154.83,72Z"/>
    <path class="b" d="M51.83,114s-42-8-48,42C3.83,156,49.83,154,51.83,114Z"/>
    <path class="b" d="M51.83,72s-42-8-48,42C3.83,114,49.83,112,51.83,72Z"/>
  </g>
  <g>
    <rect class="a" x="53.17" y="1.47" width="21.83" height="155"/>
    <rect class="a" x="79.17" y="1.47" width="21.83" height="155"/>
    <path class="b" d="M153,116.65s-42-7.59-48,39.82C105,156.47,151,154.57,153,116.65Z"/>
    <path class="b" d="M153,76.82s-42-7.58-48,39.83C105,116.65,151,114.75,153,76.82Z"/>
    <path class="b" d="M153,41.74s-42-7.59-48,39.82C105,81.56,151,79.67,153,41.74Z"/>
    <path class="b" d="M153,1.92s-42-7.59-48,39.82C105,41.74,151,39.84,153,1.92Z"/>
    <path class="b" d="M50,114.47s-42-8-48,42C2,156.47,48,154.47,50,114.47Z"/>
    <path class="b" d="M50,58.47s-42-8-48,42C2,100.47,48,98.47,50,58.47Z"/>
    <path class="b" d="M50,1.47s-42-8-48,42C2,43.47,48,41.47,50,1.47Z"/>
  </g>
  <g>
    <rect class="a" x="33.17" y="1" width="21.83" height="155"/>
    <rect class="a" x="18" y="1" width="11" height="155"/>
    <rect class="a" x="2" y="1" width="11" height="155"/>
    <rect class="a" x="59.17" y="1" width="21.83" height="155"/>
    <path class="b" d="M157,116.18s-42-7.59-48,39.82C109,156,155,154.1,157,116.18Z"/>
    <path class="b" d="M157,76.35s-42-7.58-48,39.83C109,116.18,155,114.28,157,76.35Z"/>
    <path class="b" d="M157,41.27s-42-7.59-48,39.82C109,81.09,155,79.2,157,41.27Z"/>
    <path class="b" d="M157,1.45s-42-7.59-48,39.82C109,41.27,155,39.37,157,1.45Z"/>
  </g>
  <path class="b" d="M146.4,1.22S7.42-11,2,145.15C2,145.15,151.18,125.28,146.4,1.22Z"/>
  <g>
    <path class="b" d="M78.82,1.12S4.88-5.37,2,77.69C2,77.69,81.37,67.12,78.82,1.12Z"/>
    <path class="b" d="M73.68,80.24s-64-5.62-66.53,66.32C7.15,146.56,75.89,137.4,73.68,80.24Z"/>
    <path class="b" d="M147.68,3.24s-64-5.62-66.53,66.32C81.15,69.56,149.89,60.4,147.68,3.24Z"/>
    <path class="b" d="M152.82,75.12S78.88,68.63,76,151.69C76,151.69,155.37,141.12,152.82,75.12Z"/>
  </g>
  <path class="b" d="M50.07,1.07S3.8-3,2,49C2,49,51.66,42.37,50.07,1.07Z"/>
  <g>
    <path class="b" d="M15.89,1s-33.74,31.92,3.95,67.75C19.84,68.75,47.84,27.21,15.89,1Z"/>
    <path class="b" d="M72.89,1s-33.74,31.92,4,67.75C76.84,68.75,104.84,27.21,72.89,1Z"/>
  </g>
  <g>
    <path class="b" d="M52.25,22.93S-2,29.43,8.45,89.72C8.45,89.72,64.05,70.11,52.25,22.93Z"/>
    <path class="b" d="M106.11,62.92s-54.27,6.49-43.8,66.78C62.31,129.7,117.91,110.1,106.11,62.92Z"/>
    <path class="b" d="M109.57,1S55.31,7.49,65.77,67.79C65.77,67.79,121.37,48.18,109.57,1Z"/>
    <path class="b" d="M47.14,85.09s-54.27,6.49-43.8,66.79C3.34,151.88,58.94,132.27,47.14,85.09Z"/>
  </g>
  <g>
    <path class="b" d="M50.07,1.07S3.8-3,2,49C2,49,51.66,42.37,50.07,1.07Z"/>
    <path class="b" d="M50.07,52.07S3.8,48,2,100C2,100,51.66,93.37,50.07,52.07Z"/>
    <path class="b" d="M50.07,103.07S3.8,99,2,151C2,151,51.66,144.37,50.07,103.07Z"/>
    <path class="b" d="M102.07,1.07S55.8-3,54,49C54,49,103.66,42.37,102.07,1.07Z"/>
    <path class="b" d="M102.07,52.07S55.8,48,54,100C54,100,103.66,93.37,102.07,52.07Z"/>
    <path class="b" d="M102.07,103.07S55.8,99,54,151C54,151,103.66,144.37,102.07,103.07Z"/>
    <path class="b" d="M154.07,1.07S107.8-3,106,49C106,49,155.66,42.37,154.07,1.07Z"/>
    <path class="b" d="M154.07,52.07S107.8,48,106,100C106,100,155.66,93.37,154.07,52.07Z"/>
    <path class="b" d="M154.07,103.07S107.8,99,106,151C106,151,155.66,144.37,154.07,103.07Z"/>
  </g>
  <g>
    <path class="b" d="M149.87,8.8S10.89-3.38,5.48,152.73C5.48,152.73,154.66,132.86,149.87,8.8Z"/>
    <path class="b" d="M155.42,96.09s-57.19-5-59.42,59.23C96,155.32,157.39,147.14,155.42,96.09Z"/>
    <path class="b" d="M61.42,1.09S4.23-3.92,2,60.32C2,60.32,63.39,52.14,61.42,1.09Z"/>
  </g>
  <g>
    <path class="c" d="M131.42,134.64S6.33,141.26,6.33,1C6.33,1,139.57,23.47,131.42,134.64Z"/>
    <path class="b" d="M135.64,5.42S142.26,130.51,2,130.52C2,130.52,24.47-2.73,135.64,5.42Z"/>
  </g>
  <g>
    <path class="b" d="M146.4,1.94S7.42-10.24,2,145.88C2,145.88,151.18,126,146.4,1.94Z"/>
    <path class="c" d="M108.1,1.15s-96-8.42-99.77,99.45C8.33,100.6,111.4,86.87,108.1,1.15Z"/>
    <path class="b" d="M67.94,42.23s-57.19-5-59.42,59.23C8.52,101.46,69.91,93.28,67.94,42.23Z"/>
  </g>
  <g>
    <path class="b" d="M150.88,1.23S7.58-11.34,2,149.63C2,149.63,155.81,129.14,150.88,1.23Z"/>
    <path class="c" d="M105.21,42.69S6.2,34,2.34,145.22l.24,0C5.4,79.93,63.8,85,63.8,85c1.26,32.59-22.52,48.23-40.82,55.42C53.71,131.27,107.65,106.06,105.21,42.69Z"/>
  </g>
  <path class="c" d="M104.87,1.16S5.86-7.52,2,103.69l.24,0C5.06,38.4,63.46,43.51,63.46,43.51,64.72,76.1,40.94,91.74,22.64,98.93,53.37,89.74,107.31,64.53,104.87,1.16Z"/>
  <g>
    <path class="c" d="M149.1,1.15s-91.68-8-95.25,94.94l.23,0c2.6-60.43,56.68-55.7,56.68-55.7C111.92,70.54,89.91,85,73,91.68,101.41,83.16,151.36,59.82,149.1,1.15Z"/>
    <path class="b" d="M97.25,10.41S5.57,2.37,2,105.35l.22,0C4.83,44.89,58.91,49.62,58.91,49.62c1.16,30.18-20.86,44.66-37.8,51.32C49.56,92.42,99.51,69.08,97.25,10.41Z"/>
    <path class="c" d="M97.25,57.63S5.57,49.59,2,152.57l.22,0C4.83,92.11,58.91,96.85,58.91,96.85c1.16,30.17-20.86,44.65-37.8,51.31C49.56,139.65,99.51,116.31,97.25,57.63Z"/>
    <path class="b" d="M153.73,36.33s-91.68-8-95.25,94.94l.23,0c2.6-60.42,56.68-55.69,56.68-55.69,1.16,30.17-20.85,44.66-37.8,51.31C106,118.35,156,95,153.73,36.33Z"/>
  </g>
  <g>
    <path class="b" d="M153.26,1.22S9.94-11.1,4.64,149.88C4.64,149.88,158.41,129.12,153.26,1.22Z"/>
    <path class="c" d="M82.24,22.54S-16.19,36.27,5,145.52l.23-.08C-6.67,81.21,51.39,73.1,51.39,73.1c8.53,31.47-11.14,52.05-27.36,63.15C51.91,120.41,98.83,83.75,82.24,22.54Z"/>
  </g>
  <g>
    <path class="c" d="M96.37,1S-19.18,16.92,5.44,145.18l.27-.11c-13.82-75.4,54.34-84.8,54.34-84.8,10,37-13.18,61.06-32.24,74.07C60.57,115.79,115.71,72.87,96.37,1Z"/>
    <path class="c" d="M154.91,14.7S74.6,7.15,70.9,97.39l.2,0c2.61-52.95,50-48.51,50-48.51.85,26.46-18.53,39-33.41,44.77C112.66,86.33,156.57,66.14,154.91,14.7Z"/>
  </g>
  <g>
    <path class="b" d="M77.94,1.1S8.26-4.31,5.54,65C5.54,65,80.33,56.2,77.94,1.1Z"/>
    <path class="c" d="M35.37,6.38S-11.26,17.64,5.72,63.16l.1,0c-9.7-26.79,17.8-33.44,17.8-33.44,6.06,13-2.15,22.85-9.29,28.48C26.8,49.85,47.16,31.62,35.37,6.38Z"/>
    <path class="b" d="M78.93,91.83S9.25,86.42,6.54,155.76C6.54,155.76,81.33,146.93,78.93,91.83Z"/>
    <path class="c" d="M36.37,97.11s-46.63,11.27-29.65,56.78l.1,0c-9.71-26.78,17.79-33.43,17.79-33.43,6.07,13-2.15,22.84-9.28,28.48C27.8,140.59,48.16,122.35,36.37,97.11Z"/>
    <path class="b" d="M156.24,1.1S86.56-4.31,83.84,65C83.84,65,158.63,56.2,156.24,1.1Z"/>
    <path class="c" d="M113.67,6.38S67.05,17.64,84,63.16l.11,0c-9.71-26.79,17.79-33.44,17.79-33.44,6.06,13-2.15,22.85-9.29,28.48C105.1,49.85,125.46,31.62,113.67,6.38Z"/>
    <path class="b" d="M157.23,91.83s-69.68-5.41-72.39,63.93C84.84,155.76,159.63,146.93,157.23,91.83Z"/>
    <path class="c" d="M114.67,97.11S68,108.38,85,153.89l.1,0c-9.71-26.78,17.8-33.43,17.8-33.43,6.06,13-2.15,22.84-9.29,28.48C106.1,140.59,126.46,122.35,114.67,97.11Z"/>
  </g>
  <path class="b" d="M56.13,112.72s56.29-24.5,91.79,28.42c0,0,46.68-69.95-23.1-120.78S2,34.85,2,34.85,58.46,48.92,56.13,112.72Z"/>
  <g>
    <path class="b" d="M56.13,112.72s56.29-24.5,91.79,28.42c0,0,46.68-69.95-23.1-120.78S2,34.85,2,34.85,58.46,48.92,56.13,112.72Z"/>
    <path class="c" d="M97.93,128.72s33.32-14.5,54.33,16.82c0,0,27.63-41.4-13.67-71.48S65.9,82.63,65.9,82.63,99.31,91,97.93,128.72Z"/>
  </g>
  <path class="c" d="M20.39,39s19.12-8.32,31.18,9.65c0,0,15.85-23.76-7.85-41S2,12.5,2,12.5,21.18,17.28,20.39,39Z"/>
  <path class="b" d="M118.72,19.4C52.41-28.9,2,33.17,2,33.17s53.65,13.36,51.43,74c0,0,36.2-15.75,67.83,6.65-13-21.42-38.44-19.38-38.44-19.38,12.88-33.52-14.58-51.3-14.58-51.3s40.13-25.07,68,14.7c21.6,30.85,3.83,55-5.23,64.33a85.07,85.07,0,0,1,9.68,12S185,67.7,118.72,19.4Z"/>
  <path class="b" d="M143.12,1.61s-98-10-135,51,108-17,59,30-43,93,11,48,2,25,2,25l63,1Z"/>
</svg>
