<svg xmlns="http://www.w3.org/2000/svg" viewBox="0 0 1920 1080">
  <defs>
    <style>
      
    </style>
  </defs>
  <title>N8</title>
  <path class="a" d="M1,1S12.43,78.22,1,144.72H50.52S39.09,73.93,50.52,1Z"/>
  <g>
    <path class="a" d="M1,1S6.06,66.54,1,127.28c0,0,12.09,7.23,21.76,7.23,10.54,0,21.75-7.23,21.75-7.23S39.45,64.78,44.51,1c0,0-12.09,4-21.75,4A67.57,67.57,0,0,1,1,1Z"/>
    <path class="a" d="M74,1s5.06,65.54,0,126.28c0,0,12.09,7.23,21.76,7.23,10.54,0,21.75-7.23,21.75-7.23s-5.06-62.5,0-126.28c0,0-12.09,4-21.75,4A67.57,67.57,0,0,1,74,1Z"/>
  </g>
  <path class="a" d="M1,1S6.06,66.54,1,127.28c0,0,12.09,7.23,21.76,7.23,10.54,0,21.75-7.23,21.75-7.23S39.45,64.78,44.51,1c0,0-12.09,4-21.75,4A67.57,67.57,0,0,1,1,1Z"/>
  <g>
    <path class="a" d="M1,1S6.06,66.54,1,127.28c0,0,12.09,7.23,21.76,7.23,10.54,0,21.75-7.23,21.75-7.23S39.45,64.78,44.51,1c0,0-12.09,4-21.75,4A67.57,67.57,0,0,1,1,1Z"/>
    <path class="a" d="M48,1s5.06,65.54,0,126.28c0,0,12.09,7.23,21.76,7.23,10.54,0,21.75-7.23,21.75-7.23S86.45,64.78,91.51,1c0,0-12.09,4-21.75,4A67.57,67.57,0,0,1,48,1Z"/>
    <path class="a" d="M95,1s5.06,65.54,0,126.28c0,0,12.09,7.23,21.76,7.23,10.54,0,21.75-7.23,21.75-7.23s-5.06-62.5,0-126.28c0,0-12.09,4-21.75,4A67.57,67.57,0,0,1,95,1Z"/>
  </g>
  <g>
    <path class="a" d="M144.72,1S67.5,12.43,1,1V50.52s70.79-11.43,143.72,0Z"/>
    <path class="a" d="M144.72,68S67.5,79.43,1,68v49.52s70.79-11.43,143.72,0Z"/>
  </g>
  <g>
    <path class="a" d="M1,1S12.43,78.22,1,144.72H50.52S39.09,73.93,50.52,1Z"/>
    <path class="a" d="M69,1s11.43,77.22,0,143.72h49.52S107.09,73.93,118.52,1Z"/>
  </g>
  <g>
    <path class="a" d="M1,1S7.72,78.22,1,144.72H30.12S23.4,73.93,30.12,1Z"/>
    <path class="a" d="M45.71,7s6.39,77.22,0,143.72h27.7S67,79.93,73.41,7Z"/>
    <path class="a" d="M87.87,6.59s7.78,78.64,1,132.77h29.38s-6.78-57.63-1-132.77Z"/>
  </g>
  <g>
    <path class="a" d="M1,80.54S7,121.09,1,156H27s-6-37.17,0-75.46Z"/>
    <path class="a" d="M1,1S7,41.55,1,76.46H27S21,39.29,27,1Z"/>
    <path class="a" d="M50,80.54s6,40.55,0,75.46H76s-6-37.17,0-75.46Z"/>
    <path class="a" d="M50,1s6,40.55,0,75.46H76S70,39.29,76,1Z"/>
    <path class="a" d="M99,80.54s6,40.55,0,75.46h26s-6-37.17,0-75.46Z"/>
    <path class="a" d="M99,1s6,40.55,0,75.46h26S119,39.29,125,1Z"/>
  </g>
  <g>
    <path class="a" d="M1,80.54S8.19,121.09,1,156H32.17s-7.2-37.17,0-75.46Z"/>
    <path class="a" d="M1,1S8.19,41.55,1,76.46H32.17S25,39.29,32.17,1Z"/>
    <path class="a" d="M66.47,80.54s7.2,40.55,0,75.46H97.64s-7.19-37.17,0-75.46Z"/>
    <path class="a" d="M66.47,1s7.2,40.55,0,75.46H97.64S90.45,39.29,97.64,1Z"/>
  </g>
  <g>
    <path class="a" d="M49,1S40.76,40.71,25,76.83H55.37S47.8,36.41,78.45,1Z"/>
    <path class="a" d="M20,79.6s8.32,37.91-19,75.83H31.37A284.23,284.23,0,0,1,49.45,79.6Z"/>
    <path class="a" d="M109,1s-8.24,39.71-24,75.83h30.37S107.8,36.41,138.45,1Z"/>
    <path class="a" d="M80,79.6s8.32,37.91-19,75.83H91.37A284.23,284.23,0,0,1,109.45,79.6Z"/>
  </g>
  <g>
    <path class="a" d="M1,105s5.32,25,2,51H34.17s-6.85-21-2-51Z"/>
    <path class="a" d="M2,1S9.19,41.55,1,101H32.17S26,39.29,33.17,1Z"/>
    <path class="a" d="M99.17,52s-5.32-25-2-51H66s6.85,21,2,51Z"/>
    <path class="a" d="M98.17,156s-7.2-40.55,1-100H68s6.19,61.71-1,100Z"/>
  </g>
  <path class="a" d="M1,40.28S37.47,1,155.31,1C155.31,1,116,37.47,1,40.28Z"/>
  <path class="a" d="M1,105.46S15.92,54,121.18,1C121.18,1,102.49,51.24,1,105.46Z"/>
  <g>
    <path class="a" d="M1,142.45S17.06,87.06,130.3,30.07C130.3,30.07,110.2,84.12,1,142.45Z"/>
    <path class="b" d="M1,142.45S2.51,84.8,97.65,1C97.65,1,91.88,58.38,1,142.45Z"/>
    <path class="a" d="M2.74,153.13s28.31-50.25,151.59-79.81C154.33,73.32,122.39,121.33,2.74,153.13Z"/>
  </g>
  <g>
    <path class="a" d="M1,105.46S15.92,54,121.18,1C121.18,1,102.49,51.24,1,105.46Z"/>
    <path class="a" d="M1,155.46S15.92,104,121.18,51C121.18,51,102.49,101.24,1,155.46Z"/>
  </g>
  <g>
    <path class="a" d="M1,98.74S15,50.57,113.46,1C113.46,1,96,48,1,98.74Z"/>
    <path class="a" d="M24.39,128.68s14-48.17,112.46-97.74C136.85,30.94,119.36,78,24.39,128.68Z"/>
    <path class="a" d="M48.72,158.63s14-48.18,112.46-97.74C161.18,60.89,143.69,107.89,48.72,158.63Z"/>
  </g>
  <path class="a" d="M9.79,159.84S-16.06,112.89,20.91,1C20.91,1,43.22,49.74,9.79,159.84Z"/>
  <g>
    <path class="a" d="M9.79,159.84S-16.06,112.89,20.91,1C20.91,1,43.22,49.74,9.79,159.84Z"/>
    <path class="a" d="M90.79,159.84S64.94,112.89,101.91,1C101.91,1,124.22,49.74,90.79,159.84Z"/>
  </g>
  <g>
    <path class="a" d="M9.79,161.84S-16.06,114.89,20.91,3C20.91,3,43.22,51.74,9.79,161.84Z"/>
    <path class="a" d="M98.79,161.84S72.94,114.89,109.91,3C109.91,3,132.22,51.74,98.79,161.84Z"/>
    <path class="a" d="M54.79,159.84S28.94,112.89,65.91,1C65.91,1,88.22,49.74,54.79,159.84Z"/>
  </g>
  <g>
    <path class="a" d="M35.2,160S-2.79,122.19,1.31,4.42C1.31,4.42,36.4,44.94,35.2,160Z"/>
    <path class="a" d="M69.85,159.42s-6.75-53.18,68.82-143.6C138.67,15.82,141.47,69.35,69.85,159.42Z"/>
    <path class="a" d="M55.72,159.84S29.87,112.89,66.85,1C66.85,1,89.15,49.74,55.72,159.84Z"/>
  </g>
  <g>
    <path class="a" d="M1,40.28S37.47,1,155.31,1C155.31,1,116,37.47,1,40.28Z"/>
    <path class="a" d="M1,106.28S37.47,67,155.31,67C155.31,67,116,103.47,1,106.28Z"/>
  </g>
  <g>
    <path class="a" d="M1,40.28S37.47,1,155.31,1C155.31,1,116,37.47,1,40.28Z"/>
    <path class="a" d="M1,92.28S37.47,53,155.31,53C155.31,53,116,89.47,1,92.28Z"/>
    <path class="a" d="M1,144.28S37.47,105,155.31,105C155.31,105,116,141.47,1,144.28Z"/>
  </g>
  <g>
    <path class="a" d="M1,38.23S37.47,1,155.31,1C155.31,1,116,35.57,1,38.23Z"/>
    <path class="a" d="M1,78S37.47,40.8,155.31,40.8C155.31,40.8,116,75.37,1,78Z"/>
    <path class="a" d="M1,117.84S37.47,80.61,155.31,80.61C155.31,80.61,116,115.18,1,117.84Z"/>
    <path class="a" d="M1,157.64s36.47-37.23,154.31-37.23C155.31,120.41,116,155,1,157.64Z"/>
  </g>
  <g>
    <path class="a" d="M1,15S14,1,56,1C56,1,42,14,1,15Z"/>
    <path class="a" d="M1,59S14,45,56,45C56,45,42,58,1,59Z"/>
    <path class="a" d="M1,103S14,89,56,89C56,89,42,102,1,103Z"/>
  </g>
  <g>
    <path class="a" d="M61,80.54s6,40.55,0,75.46H87s-6-37.17,0-75.46Z"/>
    <path class="a" d="M61,1s6,40.55,0,75.46H87S81,39.29,87,1Z"/>
    <path class="a" d="M89,19S102,5,144,5C144,5,130,18,89,19Z"/>
    <path class="a" d="M89,33s13-14,55-14C144,19,130,32,89,33Z"/>
    <path class="a" d="M89,47s13-14,55-14C144,33,130,46,89,47Z"/>
    <path class="a" d="M89,61s13-14,55-14C144,47,130,60,89,61Z"/>
    <path class="a" d="M89,75s13-14,55-14C144,61,130,74,89,75Z"/>
    <path class="a" d="M1,97S14,83,56,83C56,83,42,96,1,97Z"/>
    <path class="a" d="M1,111S14,97,56,97C56,97,42,110,1,111Z"/>
    <path class="a" d="M1,125s13-14,55-14C56,111,42,124,1,125Z"/>
    <path class="a" d="M1,139s13-14,55-14C56,125,42,138,1,139Z"/>
    <path class="a" d="M1,153s13-14,55-14C56,139,42,152,1,153Z"/>
  </g>
  <g>
    <path class="a" d="M76,80.54s6,40.55,0,75.46h26s-6-37.17,0-75.46Z"/>
    <path class="a" d="M76,1s6,40.55,0,75.46h26S96,39.29,102,1Z"/>
    <path class="a" d="M114,80.54s6,40.55,0,75.46h26s-6-37.17,0-75.46Z"/>
    <path class="a" d="M114,1s6,40.55,0,75.46h26S134,39.29,140,1Z"/>
    <path class="a" d="M2,19S15,5,57,5C57,5,43,18,2,19Z"/>
    <path class="a" d="M2,33S15,19,57,19C57,19,43,32,2,33Z"/>
    <path class="a" d="M2,47S15,33,57,33C57,33,43,46,2,47Z"/>
    <path class="a" d="M2,61S15,47,57,47C57,47,43,60,2,61Z"/>
    <path class="a" d="M2,75S15,61,57,61C57,61,43,74,2,75Z"/>
    <path class="a" d="M1,97S14,83,56,83C56,83,42,96,1,97Z"/>
    <path class="a" d="M1,111S14,97,56,97C56,97,42,110,1,111Z"/>
    <path class="a" d="M1,125s13-14,55-14C56,111,42,124,1,125Z"/>
    <path class="a" d="M1,139s13-14,55-14C56,125,42,138,1,139Z"/>
    <path class="a" d="M1,153s13-14,55-14C56,139,42,152,1,153Z"/>
  </g>
  <g>
    <path class="a" d="M65,80.54S59,121.09,65,156H39s6-37.17,0-75.46Z"/>
    <path class="a" d="M65,1s-6,40.55,0,75.46H39S45,39.29,39,1Z"/>
    <path class="a" d="M27,80.54S21,121.09,27,156H1s6-37.17,0-75.46Z"/>
    <path class="a" d="M27,1s-6,40.55,0,75.46H1S7,39.29,1,1Z"/>
    <path class="a" d="M139,19S126,5,84,5C84,5,98,18,139,19Z"/>
    <path class="a" d="M139,33S126,19,84,19C84,19,98,32,139,33Z"/>
    <path class="a" d="M139,47S126,33,84,33C84,33,98,46,139,47Z"/>
    <path class="a" d="M139,61S126,47,84,47C84,47,98,60,139,61Z"/>
    <path class="a" d="M139,75S126,61,84,61C84,61,98,74,139,75Z"/>
    <path class="a" d="M140,97S127,83,85,83C85,83,99,96,140,97Z"/>
    <path class="a" d="M140,111S127,97,85,97C85,97,99,110,140,111Z"/>
    <path class="a" d="M140,125s-13-14-55-14C85,111,99,124,140,125Z"/>
    <path class="a" d="M140,139s-13-14-55-14C85,125,99,138,140,139Z"/>
    <path class="a" d="M140,153s-13-14-55-14C85,139,99,152,140,153Z"/>
  </g>
  <path class="a" d="M143.14,1C22.78,50.73,1,143.1,1,143.1l.18-.08c11-15.88,28.57-38,47.7-49.86,0,0-17.82,22.64-30.85,41.88C144.23,72.33,143.14,1,143.14,1Z"/>
</svg>
