<svg xmlns="http://www.w3.org/2000/svg" viewBox="0 0 1920 1080">
  <defs>
    <style>
      
    </style>
  </defs>
  <title>N9</title>
  <g>
    <rect class="a" x="0.068" width="55.994" height="55.994"/>
    <rect class="a" x="0.068" y="65.458" width="55.994" height="55.994"/>
    <rect class="a" x="67.104" width="55.994" height="55.994"/>
    <rect class="a" x="67.104" y="65.458" width="55.994" height="55.994"/>
  </g>
  <g>
    <rect class="a" x="0.068" width="63.656" height="63.656"/>
    <rect class="a" x="0.068" y="74.415" width="63.656" height="63.656"/>
    <rect class="a" x="76.276" width="63.656" height="63.656"/>
    <rect class="a" x="76.276" y="74.415" width="63.656" height="63.656"/>
  </g>
  <g>
    <rect class="a" x="0.068" width="125.081" height="71"/>
    <rect class="a" x="0.068" y="83" width="125.081" height="71"/>
  </g>
  <g>
    <rect class="a" x="0.068" width="125.081" height="71"/>
    <rect class="a" x="0.068" y="83" width="125.081" height="71"/>
  </g>
  <g>
    <polygon class="a" points="93.068 0 81.068 0 0.068 154 12.068 154 93.068 0"/>
    <path class="a" d="M45.976,101.522s-7.281,10.922,0,25.483C45.976,127.005,54.47,114.871,45.976,101.522Z"/>
    <path class="a" d="M56.9,101.522s-7.281,10.922,0,25.483C56.9,127.005,65.392,114.871,56.9,101.522Z"/>
    <path class="a" d="M67.819,101.522s-7.281,10.922,0,25.483C67.819,127.005,76.313,114.871,67.819,101.522Z"/>
    <path class="a" d="M78.74,101.522s-7.281,10.922,0,25.483C78.74,127.005,87.234,114.871,78.74,101.522Z"/>
    <path class="a" d="M89.661,101.522s-7.281,10.922,0,25.483C89.661,127.005,98.155,114.871,89.661,101.522Z"/>
    <path class="a" d="M64.178,68.758s-7.281,10.922,0,25.484C64.178,94.242,72.672,82.107,64.178,68.758Z"/>
    <path class="a" d="M75.1,68.758s-7.28,10.922,0,25.484C75.1,94.242,83.594,82.107,75.1,68.758Z"/>
    <path class="a" d="M86.021,68.758s-7.281,10.922,0,25.484C86.021,94.242,94.515,82.107,86.021,68.758Z"/>
    <path class="a" d="M96.942,68.758s-7.281,10.922,0,25.484C96.942,94.242,105.436,82.107,96.942,68.758Z"/>
    <path class="a" d="M107.863,68.758s-7.281,10.922,0,25.484C107.863,94.242,116.358,82.107,107.863,68.758Z"/>
    <path class="a" d="M82.38,35.995s-7.281,10.921,0,25.483C82.38,61.478,90.875,49.343,82.38,35.995Z"/>
    <path class="a" d="M93.3,35.995s-7.281,10.921,0,25.483C93.3,61.478,101.8,49.343,93.3,35.995Z"/>
    <path class="a" d="M104.223,35.995s-7.281,10.921,0,25.483C104.223,61.478,112.717,49.343,104.223,35.995Z"/>
    <path class="a" d="M115.144,35.995s-7.281,10.921,0,25.483C115.144,61.478,123.638,49.343,115.144,35.995Z"/>
    <path class="a" d="M126.065,35.995s-7.28,10.921,0,25.483C126.065,61.478,134.56,49.343,126.065,35.995Z"/>
  </g>
  <g>
    <path class="a" d="M14.105,0s-31.583,47.375,0,110.542C14.105,110.542,50.953,57.9,14.105,0Z"/>
    <path class="a" d="M55.105,0s-31.583,47.375,0,110.542C55.105,110.542,91.953,57.9,55.105,0Z"/>
  </g>
  <g>
    <path class="a" d="M5.334,106.632s-11.848,17.772,0,41.467C5.334,148.1,19.157,128.353,5.334,106.632Z"/>
    <path class="a" d="M23.106,106.632s-11.848,17.772,0,41.467C23.106,148.1,36.928,128.353,23.106,106.632Z"/>
    <path class="a" d="M40.878,106.632s-11.848,17.772,0,41.467C40.878,148.1,54.7,128.353,40.878,106.632Z"/>
    <path class="a" d="M58.65,106.632S46.8,124.4,58.65,148.1C58.65,148.1,72.472,128.353,58.65,106.632Z"/>
    <path class="a" d="M76.422,106.632s-11.848,17.772,0,41.467C76.422,148.1,90.244,128.353,76.422,106.632Z"/>
    <path class="a" d="M34.954,53.316s-11.848,17.772,0,41.468C34.954,94.784,48.776,75.037,34.954,53.316Z"/>
    <path class="a" d="M52.726,53.316s-11.848,17.772,0,41.468C52.726,94.784,66.548,75.037,52.726,53.316Z"/>
    <path class="a" d="M70.5,53.316s-11.848,17.772,0,41.468C70.5,94.784,84.32,75.037,70.5,53.316Z"/>
    <path class="a" d="M88.27,53.316s-11.848,17.772,0,41.468C88.27,94.784,102.092,75.037,88.27,53.316Z"/>
    <path class="a" d="M106.042,53.316s-11.848,17.772,0,41.468C106.042,94.784,119.864,75.037,106.042,53.316Z"/>
    <path class="a" d="M64.574,0s-11.848,17.772,0,41.468C64.574,41.468,78.4,21.721,64.574,0Z"/>
    <path class="a" d="M82.346,0s-11.848,17.772,0,41.468C82.346,41.468,96.168,21.721,82.346,0Z"/>
    <path class="a" d="M100.118,0s-11.848,17.772,0,41.468C100.118,41.468,113.94,21.721,100.118,0Z"/>
    <path class="a" d="M117.889,0s-11.847,17.772,0,41.468C117.889,41.468,131.712,21.721,117.889,0Z"/>
    <path class="a" d="M135.661,0s-11.848,17.772,0,41.468C135.661,41.468,149.484,21.721,135.661,0Z"/>
  </g>
  <g>
    <path class="a" d="M41.536,5.266S23.764-6.582.068,5.266C.068,5.266,19.815,19.088,41.536,5.266Z"/>
    <path class="a" d="M41.536,23.038S23.764,11.19.068,23.038C.068,23.038,19.815,36.86,41.536,23.038Z"/>
    <path class="a" d="M41.536,40.81S23.764,28.962.068,40.81C.068,40.81,19.815,54.632,41.536,40.81Z"/>
    <path class="a" d="M41.536,58.582s-17.772-11.848-41.468,0C.068,58.582,19.815,72.4,41.536,58.582Z"/>
    <path class="a" d="M41.536,76.353s-17.772-11.847-41.468,0C.068,76.353,19.815,90.176,41.536,76.353Z"/>
    <path class="a" d="M94.852,34.886s-17.772-11.848-41.468,0C53.384,34.886,73.131,48.708,94.852,34.886Z"/>
    <path class="a" d="M94.852,52.658s-17.772-11.848-41.468,0C53.384,52.658,73.131,66.48,94.852,52.658Z"/>
    <path class="a" d="M94.852,70.43s-17.772-11.848-41.468,0C53.384,70.43,73.131,84.252,94.852,70.43Z"/>
    <path class="a" d="M94.852,88.2s-17.772-11.848-41.468,0C53.384,88.2,73.131,102.024,94.852,88.2Z"/>
    <path class="a" d="M94.852,105.973s-17.772-11.848-41.468,0C53.384,105.973,73.131,119.8,94.852,105.973Z"/>
    <path class="a" d="M148.168,64.506s-17.772-11.848-41.468,0C106.7,64.506,126.446,78.328,148.168,64.506Z"/>
    <path class="a" d="M148.168,82.277s-17.772-11.847-41.468,0C106.7,82.277,126.446,96.1,148.168,82.277Z"/>
    <path class="a" d="M148.168,100.049s-17.772-11.848-41.468,0C106.7,100.049,126.446,113.872,148.168,100.049Z"/>
    <path class="a" d="M148.168,117.821s-17.772-11.848-41.468,0C106.7,117.821,126.446,131.644,148.168,117.821Z"/>
    <path class="a" d="M148.168,135.593s-17.772-11.848-41.468,0C106.7,135.593,126.446,149.416,148.168,135.593Z"/>
  </g>
  <g>
    <path class="a" d="M41.536,5.266S23.764-6.582.068,5.266C.068,5.266,19.815,19.088,41.536,5.266Z"/>
    <path class="a" d="M41.536,23.038S23.764,11.19.068,23.038C.068,23.038,19.815,36.86,41.536,23.038Z"/>
    <path class="a" d="M41.536,40.81S23.764,28.962.068,40.81C.068,40.81,19.815,54.632,41.536,40.81Z"/>
    <path class="a" d="M41.536,58.582s-17.772-11.848-41.468,0C.068,58.582,19.815,72.4,41.536,58.582Z"/>
    <path class="a" d="M41.536,76.353s-17.772-11.847-41.468,0C.068,76.353,19.815,90.176,41.536,76.353Z"/>
    <path class="a" d="M91.059,3.324s-25,5.456-34.514,35.74C56.545,39.064,84.894,33.549,91.059,3.324Z"/>
    <path class="a" d="M91.059,30.009s-25,5.456-34.514,35.74C56.545,65.749,84.894,60.234,91.059,30.009Z"/>
    <path class="a" d="M91.059,56.694s-25,5.456-34.514,35.739C56.545,92.433,84.894,86.919,91.059,56.694Z"/>
    <path class="a" d="M91.059,83.378s-25,5.457-34.514,35.74C56.545,119.118,84.894,113.6,91.059,83.378Z"/>
    <path class="a" d="M91.059,110.063s-25,5.457-34.514,35.74C56.545,145.8,84.894,140.289,91.059,110.063Z"/>
    <path class="a" d="M148.168,64.506s-17.772-11.848-41.468,0C106.7,64.506,126.446,78.328,148.168,64.506Z"/>
    <path class="a" d="M148.168,82.277s-17.772-11.847-41.468,0C106.7,82.277,126.446,96.1,148.168,82.277Z"/>
    <path class="a" d="M148.168,100.049s-17.772-11.848-41.468,0C106.7,100.049,126.446,113.872,148.168,100.049Z"/>
    <path class="a" d="M148.168,117.821s-17.772-11.848-41.468,0C106.7,117.821,126.446,131.644,148.168,117.821Z"/>
    <path class="a" d="M148.168,135.593s-17.772-11.848-41.468,0C106.7,135.593,126.446,149.416,148.168,135.593Z"/>
  </g>
  <g>
    <path class="a" d="M111.4,96.336S92.847-7.782.068.465v11.34S73.26-5.72,101.094,96.336Z"/>
    <path class="a" d="M135.113,96.336S104.862-7.495,12.083.752L18.708,9.27S96.97-5.72,124.8,96.336Z"/>
    <path class="a" d="M115.759,122.264S11.64,103.709,19.887,10.93h11.34S13.7,84.122,115.759,111.956Z"/>
    <path class="a" d="M115.759,145.975S11.927,115.724,20.174,22.945l8.518,6.625s-14.99,78.262,87.067,106.1Z"/>
  </g>
  <g>
    <path class="a" d="M49.455,115.606S152.614,92.3,140.129,0L128.8.519s20.857,72.313-79.818,104.789Z"/>
    <path class="a" d="M50.54,139.292s102.338-34.973,89.852-127.276l-8.2,7.007s18.557,77.494-82.119,109.971Z"/>
    <path class="a" d="M23.753,121.145S37.523,16.286,130.582,20.278l.519,11.327s-73.917-14.156-97.05,89.068Z"/>
    <path class="a" d="M.068,122.23S25.534,17.123,118.593,21.114l-6.228,8.812s-78.866-11.391-102,91.832Z"/>
  </g>
  <g>
    <path class="a" d="M.123,148.858S-5.628,30,100.123,0V15.336s-86.58,18.5-86.58,133.522Z"/>
    <path class="a" d="M26.947,148.858S22.773,62.59,100.123,22.59V33.721S36.687,65.373,36.687,148.858Z"/>
    <path class="a" d="M56.123,148.858S50.372,30,156.123,0V15.336s-86.58,18.5-86.58,133.522Z"/>
    <path class="a" d="M82.947,148.858S78.773,62.59,156.123,22.59V33.721S92.687,65.373,92.687,148.858Z"/>
  </g>
  <g>
    <path class="a" d="M18.917,117.039a98.191,98.191,0,0,1,98.19-98.191h.013L117.5.01c-.131,0-.259-.01-.39-.01A117.039,117.039,0,0,0,.068,117.039c0,.5.032,1,.038,1.5H18.954C18.947,118.038,18.917,117.542,18.917,117.039Z"/>
    <path class="a" d="M44.162,117.039a73.419,73.419,0,0,1,73.419-73.42h.01l.282-14.086c-.1,0-.194-.008-.292-.008a87.513,87.513,0,0,0-87.513,87.514c0,.376.024.746.028,1.122H44.19C44.184,117.786,44.162,117.415,44.162,117.039Z"/>
    <path class="a" d="M69.065,117.825a46.763,46.763,0,0,1,46.763-46.764h.006l.179-8.973c-.062,0-.123,0-.185,0a55.74,55.74,0,0,0-55.74,55.74c0,.239.015.475.018.714h8.977C69.079,118.3,69.065,118.064,69.065,117.825Z"/>
  </g>
  <g>
    <rect class="a" x="0.068" width="155" height="19"/>
    <rect class="a" x="0.068" y="25" width="155" height="19"/>
    <rect class="a" x="0.068" y="50" width="155" height="19"/>
    <rect class="a" x="0.068" y="75" width="155" height="54"/>
  </g>
  <g>
    <rect class="a" x="0.068" width="155" height="14"/>
    <rect class="a" x="0.068" y="22" width="155" height="14"/>
    <rect class="a" x="0.068" y="44" width="155" height="14"/>
  </g>
  <g>
    <rect class="a" x="0.068" width="155" height="14"/>
    <rect class="a" x="0.068" y="22" width="155" height="55"/>
    <rect class="a" x="0.068" y="87" width="155" height="47"/>
  </g>
  <g>
    <rect class="a" x="0.068" width="155" height="14"/>
    <rect class="a" x="0.068" y="22" width="155" height="32"/>
    <rect class="a" x="0.068" y="62" width="155" height="23"/>
  </g>
  <g>
    <rect class="a" x="0.068" width="111.282" height="19"/>
    <rect class="a" x="0.068" y="25" width="111.282" height="19"/>
    <rect class="a" x="0.068" y="50" width="111.282" height="19"/>
    <rect class="a" x="0.068" y="75" width="111.282" height="54"/>
  </g>
  <g>
    <rect class="a" x="0.068" width="111.282" height="14"/>
    <rect class="a" x="0.068" y="22" width="111.282" height="14"/>
    <rect class="a" x="0.068" y="44" width="111.282" height="14"/>
  </g>
  <g>
    <rect class="a" x="0.068" width="111.282" height="14"/>
    <rect class="a" x="0.068" y="22" width="111.282" height="55"/>
    <rect class="a" x="0.068" y="87" width="111.282" height="47"/>
  </g>
  <g>
    <rect class="a" x="0.068" width="111.282" height="14"/>
    <rect class="a" x="0.068" y="22" width="111.282" height="32"/>
    <rect class="a" x="0.068" y="62" width="111.282" height="23"/>
  </g>
  <g>
    <rect class="a" x="0.068" width="111.282" height="19"/>
    <rect class="a" x="0.068" y="25" width="111.282" height="19"/>
    <rect class="a" x="0.068" y="50" width="111.282" height="19"/>
    <rect class="a" x="0.068" y="75" width="111.282" height="54"/>
  </g>
  <g>
    <path class="a" d="M89.993,23.3h64.075V0H.068V23.3h73.71C76.619,11.365,81.328,4.3,81.328,4.3A72.731,72.731,0,0,1,89.993,23.3Z"/>
    <path class="a" d="M72.4,30.662H.068v23.3H72.687A79.127,79.127,0,0,1,72.4,30.662Z"/>
    <path class="a" d="M91.493,53.965h62.575v-23.3h-62.4A68.094,68.094,0,0,1,91.493,53.965Z"/>
    <path class="a" d="M74.2,61.324H.068v23.3h154v-23.3H89.789a69.254,69.254,0,0,1-8.461,19.007A93.767,93.767,0,0,1,74.2,61.324Z"/>
  </g>
  <g>
    <path class="a" d="M89.993,23.3h19.075V0H.068V23.3h73.71C76.619,11.365,81.328,4.3,81.328,4.3A72.731,72.731,0,0,1,89.993,23.3Z"/>
    <path class="a" d="M72.4,30.662H.068v23.3H72.687A79.127,79.127,0,0,1,72.4,30.662Z"/>
    <path class="a" d="M91.493,53.965h17.575v-23.3h-17.4A68.094,68.094,0,0,1,91.493,53.965Z"/>
    <path class="a" d="M74.2,61.324H.068v23.3h109v-23.3H89.789a69.254,69.254,0,0,1-8.461,19.007A93.767,93.767,0,0,1,74.2,61.324Z"/>
  </g>
  <g>
    <path class="a" d="M40.993,98.268H77.068V77h-77V98.268h24.71a55.609,55.609,0,0,1,7.55-17.347A63.753,63.753,0,0,1,40.993,98.268Z"/>
    <path class="a" d="M23.4,104.984H.068v21.268H23.687A65.984,65.984,0,0,1,23.4,104.984Z"/>
    <path class="a" d="M42.493,126.252H77.068V104.984h-34.4A56.806,56.806,0,0,1,42.493,126.252Z"/>
    <path class="a" d="M25.2,132.969H.068v21.268h77V132.969H40.789a60.922,60.922,0,0,1-8.461,17.347A81.058,81.058,0,0,1,25.2,132.969Z"/>
    <path class="a" d="M113.143,98.268H77.068V77h77V98.268h-24.71a55.581,55.581,0,0,0-7.55-17.347A63.753,63.753,0,0,0,113.143,98.268Z"/>
    <path class="a" d="M130.734,104.984h23.334v21.268H130.449A65.987,65.987,0,0,0,130.734,104.984Z"/>
    <path class="a" d="M111.644,126.252H77.068V104.984h34.4A56.764,56.764,0,0,0,111.644,126.252Z"/>
    <path class="a" d="M128.933,132.969h25.135v21.268h-77V132.969h36.279a60.922,60.922,0,0,0,8.461,17.347A81.007,81.007,0,0,0,128.933,132.969Z"/>
    <path class="a" d="M40.993,21.268H77.068V0h-77V21.268h24.71a55.609,55.609,0,0,1,7.55-17.347A63.753,63.753,0,0,1,40.993,21.268Z"/>
    <path class="a" d="M23.4,27.984H.068V49.252H23.687A65.984,65.984,0,0,1,23.4,27.984Z"/>
    <path class="a" d="M42.493,49.252H77.068V27.984h-34.4A56.806,56.806,0,0,1,42.493,49.252Z"/>
    <path class="a" d="M25.2,55.969H.068V77.237h77V55.969H40.789a60.922,60.922,0,0,1-8.461,17.347A81.058,81.058,0,0,1,25.2,55.969Z"/>
    <path class="a" d="M113.143,21.268H77.068V0h77V21.268h-24.71a55.581,55.581,0,0,0-7.55-17.347A63.753,63.753,0,0,0,113.143,21.268Z"/>
    <path class="a" d="M130.734,27.984h23.334V49.252H130.449A65.987,65.987,0,0,0,130.734,27.984Z"/>
    <path class="a" d="M111.644,49.252H77.068V27.984h34.4A56.764,56.764,0,0,0,111.644,49.252Z"/>
    <path class="a" d="M128.933,55.969h25.135V77.237h-77V55.969h36.279a60.922,60.922,0,0,0,8.461,17.347A81.007,81.007,0,0,0,128.933,55.969Z"/>
  </g>
  <g>
    <rect class="a" x="0.068" width="111.282" height="14"/>
    <rect class="a" x="0.068" y="22" width="111.282" height="14"/>
    <rect class="a" x="0.068" y="44" width="111.282" height="14"/>
  </g>
  <g>
    <rect class="a" x="0.068" width="111.282" height="14"/>
    <rect class="a" x="0.068" y="22" width="111.282" height="55"/>
    <rect class="a" x="0.068" y="87" width="111.282" height="47"/>
  </g>
  <g>
    <rect class="a" x="0.068" width="111.282" height="14"/>
    <rect class="a" x="0.068" y="22" width="111.282" height="32"/>
    <rect class="a" x="0.068" y="62" width="111.282" height="23"/>
  </g>
</svg>
