<svg xmlns="http://www.w3.org/2000/svg" viewBox="0 0 1920 1080">
  <title>P2</title>
  <path d="M4.482-.808s5.4,72,78.783,72,73.388-72,73.388-72H132.91s-1.079,53-52.882,53-47.486-53-47.486-53Z"/>
  <path d="M4.482-.808s5.4,72,78.783,72,73.388-72,73.388-72H132.91s-1.079,53-52.882,53-47.486-53-47.486-53Z"/>
  <path d="M4.482-.808s5.4,72,78.783,72,73.388-72,73.388-72H132.91s-1.079,53-52.882,53-47.486-53-47.486-53Z"/>
  <g>
    <path d="M160.574,154S133.705,91.192,81.093,91.192,4.482,154,4.482,154H21.5s24.774-40,61.911-40,57.043,40,57.043,40Z"/>
    <path d="M160.574,108S133.705,45.192,81.093,45.192,4.482,108,4.482,108H21.5S46.277,68,83.414,68s57.043,40,57.043,40Z"/>
    <path d="M160.574,62S133.705-.808,81.093-.808,4.482,62,4.482,62H21.5S46.277,22,83.414,22s57.043,40,57.043,40Z"/>
  </g>
  <g>
    <path d="M160.574,155S133.705,92.192,81.093,92.192,4.482,155,4.482,155H21.5s24.774-40,61.911-40,57.043,40,57.043,40Z"/>
    <path d="M160.574,124S133.705,61.192,81.093,61.192,4.482,124,4.482,124H21.5S46.277,84,83.414,84s57.043,40,57.043,40Z"/>
    <path d="M160.574,93S133.705,30.192,81.093,30.192,4.482,93,4.482,93H21.5S46.277,53,83.414,53s57.043,40,57.043,40Z"/>
    <path d="M160.574,62S133.705-.808,81.093-.808,4.482,62,4.482,62H21.5S46.277,22,83.414,22s57.043,40,57.043,40Z"/>
  </g>
  <path d="M4.482,155.218V.218s40.552-.465,66-1c95-2,121,112,45,148-89.236,42.269-113.464-84.311-45-111,59-23,56,29,56,29l-22,13s9-39-30-24C31.617,70.7,49.194,133.834,103.349,114.784s49.3-119.356-32-90.979C-21.518,56.218,33.482,155.218,33.482,155.218Z"/>
  <path d="M4.482,155.228V.228s40.552-.464,66-1c76.029-1.6,89,49,89,119v36h-54c-78,0-103.464-91.311-35-118,59-23,56,29,56,29l-22,13s9-39-30-24C31.617,70.715,49.194,133.845,103.349,114.8s49.3-119.356-32-90.979C-21.518,56.228,33.482,155.228,33.482,155.228Z"/>
  <path d="M160.518,154.192h-155s-.464-40.553-1-66c-1.6-76.03,49-89,119-89h36v54c0,78-91.311,103.463-118,35-23-59,50.562-60.036,50.562-60.036l.518,23S43,61.71,54,87.71c15.861,37.489,85.135,21.769,66.085-32.386s-119.356-49.3-90.979,32c32.412,92.864,131.412,37.864,131.412,37.864Z"/>
  <g>
    <path d="M160.574,154.443S133.705,91.635,81.093,91.635,4.482,154.443,4.482,154.443H21.5s24.774-40,61.911-40,57.043,40,57.043,40Z"/>
    <path d="M4.482-.365S31.35,62.443,83.962,62.443,160.574-.365,160.574-.365H143.552s-24.774,40-61.911,40S24.6-.365,24.6-.365Z"/>
    <circle cx="137.528" cy="76.443" r="22"/>
    <circle cx="82.528" cy="17.443" r="18.252"/>
    <circle cx="82.528" cy="136.443" r="18.252"/>
    <circle cx="26.528" cy="76.443" r="22"/>
  </g>
  <g>
    <path d="M4.482,8.192s12,52,72,36,68,32,68,32h-26s-8-25-44-13-67-8-70-21Z"/>
    <path d="M4.482,42.192s12,52,72,36,68,32,68,32h-26s-8-25-44-13-67-8-70-21Z"/>
    <path d="M4.482,76.192s12,52,72,36,75,42,75,42h-26s-15-35-51-23-67-8-70-21Z"/>
    <path d="M159.482,76.192s-16-68-78-43-47-34-47-34h40s5,32,41,21,45,4,45,4Z"/>
    <path d="M5.482,138.192s29,16,62,6,43,11,43,11l-105-1Z"/>
    <path d="M89.482-.808s19,16,38,11a37.142,37.142,0,0,1,32,6v-17Z"/>
  </g>
  <g>
    <path d="M4.482,10.192l43,33,48-3,14,41s15-14,14-12,10,57,10,57l10-8,10,36-20,1s7-17,4-17-14,5-14,5l-4-53-19,6s-8-48-12-47-40,11-40,11l-43-25Z"/>
    <polygon points="5.482 52.192 42.482 77.192 85.482 57.192 88.482 113.192 109.482 108.192 103.482 149.192 131.482 146.192 123.482 155.192 92.482 155.192 103.482 117.192 78.482 127.192 68.482 86.192 42.482 85.192 5.482 63.192 5.482 52.192"/>
    <polygon points="4.482 69.192 36.482 92.192 64.482 91.192 73.482 134.192 88.482 129.192 88.482 154.192 68.482 154.192 81.482 139.192 65.482 144.192 60.482 103.192 35.482 119.192 4.482 87.192 4.482 69.192"/>
    <polygon points="4.482 101.192 36.482 126.192 52.482 126.192 59.482 149.192 68.482 149.192 64.482 155.192 51.482 155.192 50.482 135.192 37.482 143.192 4.482 124.192 4.482 101.192"/>
    <polygon points="4.482 154.192 44.482 154.192 44.482 148.192 34.482 150.192 4.482 126.192 4.482 154.192"/>
    <polygon points="158.482 144.192 152.482 98.192 137.482 113.192 135.482 52.192 111.482 76.192 106.482 30.192 50.482 38.192 4.482 5.192 4.482 -0.808 158.482 -0.808 158.482 144.192"/>
  </g>
  <g>
    <path d="M4.573,27.091H46.482l10-9.9s18,47,17,46,5-38,5-38l20,42,11-38,12,32s6-19,7-19,10,19,10,19l5-32h16v4h-11l-5,48-12-18-11,18-9-34-12,61-18-64-8,58-27-71-41.909.4Z"/>
    <polygon points="5.482 39.192 41.482 39.192 73.482 121.192 81.482 110.192 92.482 139.192 94.482 108.192 100.482 118.192 112.482 84.192 124.482 99.192 131.482 80.192 146.482 96.192 150.482 59.192 159.482 59.192 159.482 65.192 153.482 65.192 149.482 120.192 133.482 95.192 124.482 108.192 114.482 98.192 102.482 126.192 97.482 122.192 93.482 147.192 81.482 123.192 73.482 131.192 39.482 44.192 5.482 44.192 5.482 39.192"/>
    <polygon points="81.482 75.192 78.482 100.192 88.482 116.192 90.482 96.192 81.482 75.192"/>
    <polygon points="5.482 51.192 36.482 51.192 72.482 142.192 81.482 140.192 94.482 151.192 100.482 134.192 106.482 139.192 117.482 112.192 127.482 124.192 136.482 111.192 151.482 129.192 155.482 110.192 159.482 110.192 159.482 154.192 5.482 154.192 5.482 51.192"/>
    <polygon points="159.482 -0.808 159.482 24.192 141.482 24.192 135.482 36.192 127.482 22.192 118.482 36.192 107.482 17.192 96.482 24.192 78.482 11.192 68.482 29.192 55.482 14.192 46.482 24.192 4.612 24.192 4.482 -0.808 159.482 -0.808"/>
  </g>
  <g>
    <path d="M4.482,83.192h24l6-44,13,36,10-57,7,59,17-53,7,51,3-43,7,31,8-24,6,30,9-30,4,44s4-27,6-24,9,24,9,24h18v-84h-154Z"/>
    <polygon points="158.482 86.192 141.482 86.192 138.482 120.192 126.482 93.192 123.482 130.192 112.482 113.192 108.482 137.192 105.482 127.192 99.482 145.192 86.482 99.192 79.482 136.192 70.482 108.192 58.482 126.192 50.482 102.192 37.482 128.192 32.482 116.192 21.482 136.192 27.482 86.192 4.482 86.192 4.482 154.192 158.482 154.192 158.482 86.192"/>
  </g>
  <g>
    <polygon points="5.528 62.256 23.482 62.192 28.482 47.192 34.482 62.192 41.482 36.192 49.482 62.192 58.482 23.192 65.482 62.192 76.482 10.192 87.482 62.192 93.482 25.192 100.482 62.192 108.482 31.192 115.482 62.192 122.482 41.192 126.482 62.192 132.482 43.192 136.482 62.192 159.482 62.192 159.482 -0.808 4.482 -0.808 5.528 62.256"/>
    <polygon points="159.482 66.192 137.482 66.192 133.482 87.192 128.482 76.192 122.482 111.192 119.482 77.192 114.482 91.192 110.482 82.192 107.482 126.192 100.482 93.192 93.482 111.192 87.482 84.192 79.482 140.192 66.482 93.192 60.482 124.192 52.482 103.192 46.482 114.192 42.482 89.192 36.482 101.192 33.482 76.192 24.482 93.192 21.482 66.192 4.905 66.192 5.482 154.192 159.482 154.192 159.482 66.192"/>
    <polygon points="75.482 40.192 68.482 73.192 76.482 103.192 81.482 70.192 75.482 40.192"/>
  </g>
  <g>
    <polygon points="90.095 52.496 77.684 25.004 69.455 64.391 43.807 32.728 53.374 68.188 30.521 62.158 62.569 87.308 32.588 89.57 54.051 100.011 45.533 112.714 72.621 106.364 74.107 126.066 84.614 105.459 100.985 128.346 93.067 91.9 113.915 117.033 103.298 79.067 131.274 95.909 108.261 64.909 131.47 52.821 105.174 58.25 107.454 31.373 90.095 52.496"/>
    <path d="M120.482,106.192l3,32-15-7,4,15h-20c2,0,15,5,15,5l-17.853,2.915,69.853.085v-89l-6,21-22-9,14,32Z"/>
    <polygon points="159.482 54.192 158.482 -0.808 89.482 -0.808 100.482 7.192 95.482 35.192 124.482 16.192 118.482 46.192 148.482 50.192 138.482 62.192 159.482 54.192"/>
    <polygon points="84.699 153.747 4.482 154.192 4.482 76.192 35.482 102.192 23.482 128.192 49.482 119.192 42.482 136.192 63.482 115.192 68.482 143.192 81.482 124.192 75.482 149.192 84.699 153.747"/>
    <polygon points="4.905 67.831 34.482 76.192 12.482 52.192 27.482 52.192 16.482 25.192 39.482 50.192 39.482 12.192 56.482 30.192 56.482 16.192 66.482 44.192 68.482 5.192 81.482 -0.808 4.482 -0.808 4.905 67.831"/>
  </g>
  <g>
    <path d="M160.482,68.329s-34-3-68,19-33-24-88,0v10s30-22,67,4,3-23,89-25Z"/>
    <path d="M160.482,80.329s-27-2-36,27-17-10-35,13-14-31-38-17-4-22.248-46-.124l-1,7.124s35-15,28,5,28-22,32,2,20,19,33,5,18,24,34-4,29-24,29-24Z"/>
    <path d="M160.482,97.329s-22,15-36,43-2-23-38,0-17-34-41-19-26,1-19-6-8.793-9.655-20.9,1.673v8.053s21.9-19.726,9.9-1.726,14,15,29,1-6,43,34,25,26,18,46,0,18-25,36-15Z"/>
    <path d="M159.482,138.329s-10-14-34,16h35Z"/>
    <path d="M108.482,154.329s-8-15-37,0Z"/>
    <path d="M56.482,154.329s-12-4-11-14-35,10.475-40-5.262v19.262Z"/>
    <path d="M5.585,80.3s36.9-13.971,58.9,3.029,25-15,50-15H5.2Z"/>
    <path d="M4.482,73.388s27,2,36-27,17,10,35-13,14,31,38,17,4,22.248,46,.124l1-7.124s-35,15-28-5-28,22-32-2-20-19-33-5-18-24-34,4-29,24-29,24Z"/>
    <path d="M4.482,56.388s22-15,36-43,2,23,38,0,17,34,41,19,26-1,19,6,8.792,9.655,20.9-1.673V28.662s-21.9,19.726-9.9,1.726-14-15-29-1,6-43-34-25-26-18-46,0-18,25-36,15Z"/>
    <path d="M5.482,15.388s10,14,34-16h-35Z"/>
    <path d="M56.482-.612s8,15,37,0Z"/>
    <path d="M108.482-.612s12,4,11,14,35-10.475,40,5.262V-.612Z"/>
    <path d="M160.378,54.359s-41.9,18.97-63.9,1.97-20,10-45,10H160.766Z"/>
  </g>
  <g>
    <path d="M159.766-.808s-26,61-52,37-35,58-60,35-9,41-26,32-16.507,7-16.507,7l-.493-16s3-11,17-3-15-54,26-25-35-63,45-45,41-22,41-22Z"/>
    <path d="M129.524-.612s19.242,29.8-14.758,18.8-82-18-68,15-5,25-16,18-4,28-15,25S5.029,81.135,5.029,81.135L4.482,68.719s14.284,10.473,15.284-2.527-6-28,8-22-13-38,18-38,84,11,65-7Z"/>
    <path d="M4.766,66.192s17,8,10-21,14,8,11-14,10-27,37-32h-58Z"/>
    <path d="M4.766,132.192s25.716-39,51.716-15,22.284-72,59.284-57c31.482,12.762,9.716-19,26.716-10s17.284-13,17.284-13l-.284,22s-3,11-17,3,15,54-26,25,35,63-45,45-41,22-41,22H4.766Z"/>
    <path d="M34.724,154s-19.242-29.8,14.758-18.8,82,18,68-15,5-25,16-18,4-28,15-25,10.737-4.944,10.737-4.944l.547,12.416s-14.284-10.472-15.284,2.528,6,28-8,22,13,38-18,38-84-11-65,7Z"/>
    <path d="M159.482,87.192s-17-8-10,21-14-8-11,14-10,27-37,32h58Z"/>
  </g>
  <g>
    <path d="M48.379.192s-11.9,43,13.1,29-23,38,14,28-36,53,8,38-30,47,7,44,41,12,45,15h-18s-10-14-53-7,49-43-8-45,44-36,0-33,14-39-13-30,5-38-39-22l1-18Z"/>
    <path d="M63.482-.808s-22,42,7,24-16,41,13,30-24,50,6,38-8,46,23,40,28,22,48,16v-21s-18,12-29-10,11-44-23-33,30-48-13-36,39-51-9-34-1-14-1-14Z"/>
    <path d="M118.833-.808s-19.351,46,12.649,30-40,56-9,44,6,62,38,30v-104Z"/>
    <path d="M5.482,39.192s25-10,16,12,39,18,9,39,51,14,14,37,14,16-7,27h-32Z"/>
  </g>
  <g>
    <path d="M75.482-.808v24L137.908,40.9,83.482,42.192l57,10-59,7,53,17-51,7,43,3-31,7,24,8-30,6,30,9-44,4s27,4,24,6-24,9-24,9v18h84v-154Z"/>
    <polygon points="72.482 153.192 72.482 136.192 38.482 133.192 65.482 121.192 28.482 118.192 45.482 107.192 21.482 103.192 31.482 100.192 13.482 94.192 59.482 81.192 22.482 74.192 50.482 65.192 32.482 53.192 56.482 45.192 30.482 32.192 42.482 27.192 21.908 6.903 72.482 22.192 72.482 -0.808 4.482 -0.808 4.482 153.192 72.482 153.192"/>
  </g>
  <g>
    <polygon points="96.417 0.238 96.482 18.192 111.482 23.192 96.482 29.192 122.482 36.192 96.482 44.192 135.482 53.192 96.482 60.192 148.482 71.192 96.482 82.192 133.482 88.192 96.482 95.192 127.482 103.192 96.482 110.192 117.482 117.192 96.482 121.192 115.482 127.192 96.482 131.192 96.482 154.192 159.482 154.192 159.482 -0.808 96.417 0.238"/>
    <polygon points="92.482 154.192 92.482 132.192 71.482 128.192 82.482 123.192 47.482 117.192 81.482 114.192 67.482 109.192 76.482 105.192 32.482 102.192 65.482 95.192 47.482 88.192 74.482 82.192 18.482 74.192 65.482 61.192 34.482 55.192 55.482 47.192 44.482 41.192 69.482 37.192 57.482 31.192 82.482 28.192 65.482 19.192 92.482 16.192 92.482 -0.385 4.482 0.192 4.482 154.192 92.482 154.192"/>
    <polygon points="118.482 70.192 85.482 63.192 55.482 71.192 88.482 76.192 118.482 70.192"/>
  </g>
  <g>
    <polygon points="106.177 84.805 133.669 72.394 94.283 64.165 125.945 38.517 90.485 48.084 96.515 25.231 71.365 57.279 69.103 27.298 58.662 48.761 45.959 40.243 52.309 67.331 32.607 68.817 53.214 79.324 30.327 95.695 66.773 87.777 41.64 108.625 79.606 98.008 62.764 125.984 93.764 102.971 105.852 126.18 100.423 99.884 127.3 102.164 106.177 84.805"/>
    <path d="M52.482,115.192l-32,3,7-15-15,4v-20c0,2-5,15-5,15L4.566,84.339l-.084,69.853h89l-21-6,9-22-32,14Z"/>
    <polygon points="104.482 154.192 159.482 153.192 159.482 84.192 151.482 95.192 123.482 90.192 142.482 119.192 112.482 113.192 108.482 143.192 96.482 133.192 104.482 154.192"/>
    <polygon points="4.926 79.409 4.482 -0.808 82.482 -0.808 56.482 30.192 30.482 18.192 39.482 44.192 22.482 37.192 43.482 58.192 15.482 63.192 34.482 76.192 9.482 70.192 4.926 79.409"/>
    <polygon points="90.842 -0.385 82.482 29.192 106.482 7.192 106.482 22.192 133.482 11.192 108.482 34.192 146.482 34.192 128.482 51.192 142.482 51.192 114.482 61.192 153.482 63.192 159.482 76.192 159.482 -0.808 90.842 -0.385"/>
  </g>
  <g>
    <path d="M90.678,155.192s3-34-19-68,24-33,0-88h-10s22,30-4,67,23,3,25,89Z"/>
    <path d="M78.678,155.192s2-27-27-36,10-17-13-35,31-14,17-38,22.248-4,.124-46l-7.124-1s15,35-5,28,22,28-2,32-19,20-5,33-24,18,4,34,24,29,24,29Z"/>
    <path d="M61.678,155.192s-15-22-43-36,23-2,0-38,34-17,19-41-1-26,6-19S53.333,12.4,42.005.3H33.952s19.726,21.9,1.726,9.9-15,14-1,29-43-6-25,34-18,26,0,46,25,18,15,36Z"/>
    <path d="M20.678,154.192s14-10-16-34v35Z"/>
    <path d="M4.678,103.192s15-8,0-37Z"/>
    <path d="M4.678,51.192s4-12,14-11S8.2,5.192,23.94.192H4.678Z"/>
    <path d="M78.707.3s13.971,36.9-3.029,58.9,15,25,15,50V-.093Z"/>
    <path d="M85.619-.808s-2,27,27,36-10,17,13,35-31,14-17,38-22.248,4-.124,46l7.124,1s-15-35,5-28-22-28,2-32,19-20,5-33,24-18-4-34-24-29-24-29Z"/>
    <path d="M102.619-.808s15,22,43,36-23,2,0,38-34,17-19,41,1,26-6,19-9.655,8.792,1.673,20.9h8.053s-19.726-21.9-1.726-9.9,15-14,1-29,43,6,25-34,18-26,0-46-25-18-15-36Z"/>
    <path d="M143.619.192s-14,10,16,34v-35Z"/>
    <path d="M159.619,51.192s-15,8,0,37Z"/>
    <path d="M159.619,103.192s-4,12-14,11,10.475,35-5.262,40h19.262Z"/>
    <path d="M104.648,155.088s-18.97-41.9-1.97-63.9-10-20-10-45V155.476Z"/>
  </g>
  <g>
    <path d="M159.482,154.476s-61-26-37-52-58-35-35-60-41-9-32-26-7-16.507-7-16.507l16-.493s11,3,3,17,54-15,25,26,63-35,45,45,22,41,22,41Z"/>
    <path d="M159.285,124.234s-29.8,19.242-18.8-14.758,18-82-15-68-25-5-18-16-28-4-25-15S77.538-.261,77.538-.261L89.954-.808S79.482,13.476,92.482,14.476s28-6,22,8,38-13,38,18-11,84,7,65Z"/>
    <path d="M92.482-.524s-8,17,21,10-8,14,14,11,27,10,32,37v-58Z"/>
    <path d="M26.482-.524s39,25.716,15,51.716,72,22.284,57,59.284c-12.763,31.482,19,9.716,10,26.716s13,17.284,13,17.284l-22-.284s-11-3-3-17-54,15-25-26-63,35-45-45-22-41-22-41V-.524Z"/>
    <path d="M4.678,29.434s29.8-19.242,18.8,14.758-18,82,15,68,25,5,18,16,28,4,25,15,4.943,10.737,4.943,10.737l-12.416.547s10.473-14.284-2.527-15.284-28,6-22-8-38,13-38-18,11-84-7-65Z"/>
    <path d="M71.482,154.192s8-17-21-10,8-14-14-11-27-10-32-37v58Z"/>
  </g>
  <g>
    <path d="M158.482,43.089s-43-11.9-29,13.1-38-23-28,14-53-36-38,8-47-30-44,7-12,41-15,45v-18s14-10,7-53,43,49,45-8,36,44,33,0,39,14,30-13,38,5,22-39l18,1Z"/>
    <path d="M159.482,58.192s-42-22-24,7-41-16-30,13-50-24-38,6-46-8-40,23-22,28-16,48h21s-12-18,10-29,44,11,33-23,48,30,36-13,51,39,34-9,14-1,14-1Z"/>
    <path d="M159.482,113.543s-46-19.351-30,12.649-56-40-44-9-62,6-30,38h104Z"/>
    <path d="M119.482.192s10,25-12,16-18,39-39,9-14,51-37,14-16,14-27-7v-32Z"/>
  </g>
  <path d="M29.56,104.192s-22-72,42-83v-22s-84,3-64,105Z"/>
  <path d="M46.482,104.192s22-72-42-83v-22s84,3,64,105Z"/>
  <circle cx="22.482" cy="17.192" r="18"/>
  <circle cx="25.341" cy="20.051" r="20.86"/>
  <g>
    <path d="M142.705,78.033C198.7,8.33,93.57-21.379,70.717,25.47S27.3,78.033,27.3,78.033V78.2s20.568,5.713,43.421,52.563S198.7,147.905,142.705,78.2"/>
    <path d="M65.482,155.192s-11-5-19-23-9-41-42-50v73Z"/>
    <path d="M65.482-.808s-11,5-19,23-9,41-42,50v-73Z"/>
  </g>
  <g>
    <path d="M159.482-.808s-4,45-56,32-57,21-78,51-21,59,37,54,54,27,72,4-31-34,0-64S159.482-.808,159.482-.808Z"/>
    <path d="M153.482-.808s-12,36-67,18-43,60-82,55v-73Z"/>
    <path d="M160.482,48.192s-1,23-20,38c-18.524,14.624,13,34,7,50-6.926,18.467-25.927,18.711-25.927,18.711l38.927-.711Z"/>
  </g>
</svg>
