<svg xmlns="http://www.w3.org/2000/svg" viewBox="0 0 1920 1080">
  <title>P3</title>
  <g>
    <circle cx="54" cy="70" r="24"/>
    <circle cx="54" cy="128" r="24"/>
    <circle cx="54" cy="24" r="24"/>
    <path d="M108,121H93.67a39.67,39.67,0,0,0-79.34,0H0a54,54,0,0,1,108,0Z"/>
  </g>
  <g>
    <circle cx="72" cy="70" r="24"/>
    <circle cx="24" cy="128" r="24"/>
    <circle cx="120" cy="128" r="24"/>
    <circle cx="72" cy="24" r="24"/>
    <path d="M126,73H111.67a39.67,39.67,0,0,0-79.34,0H18a54,54,0,0,1,108,0Z"/>
    <path d="M126,121H111.67a39.67,39.67,0,0,0-79.34,0H18a54,54,0,0,1,108,0Z"/>
  </g>
  <g>
    <circle cx="66.26" cy="89.93" r="29.45"/>
    <circle cx="66.26" cy="24" r="24"/>
    <path d="M120.26,73H105.93a39.67,39.67,0,0,0-79.34,0H12.26a54,54,0,1,1,108,0Z"/>
    <path d="M132.52,152.51H114.94a48.68,48.68,0,0,0-97.36,0H0a66.26,66.26,0,0,1,132.52,0Z"/>
  </g>
  <g>
    <circle cx="66.25" cy="70" r="24"/>
    <circle cx="66.25" cy="115" r="16.25"/>
    <circle cx="16.25" cy="135" r="16.25"/>
    <circle cx="116.25" cy="135" r="16.25"/>
    <circle cx="66.25" cy="24" r="24"/>
    <path d="M120.25,73H105.92a39.67,39.67,0,0,0-79.34,0H12.25a54,54,0,0,1,108,0Z"/>
    <path d="M12.25,97H26.58a39.67,39.67,0,0,0,79.34,0h14.33a54,54,0,0,1-108,0Z"/>
  </g>
  <g>
    <circle cx="60.41" cy="78.3" r="26.85"/>
    <circle cx="60.41" cy="26.85" r="26.85"/>
    <path d="M120.81,81.66h-16a44.38,44.38,0,1,0-88.75,0H0a60.41,60.41,0,1,1,120.81,0Z"/>
    <path d="M0,88.37H16a44.38,44.38,0,1,0,88.75,0h16A60.41,60.41,0,1,1,0,88.37Z"/>
    <path d="M120.81,135.35h-16a44.38,44.38,0,0,0-88.75,0H0a60.41,60.41,0,0,1,120.81,0Z"/>
  </g>
  <g>
    <circle cx="78.4" cy="82" r="43.08"/>
    <circle cx="78.4" cy="24" r="24"/>
    <circle cx="24" cy="130" r="24"/>
    <circle cx="132" cy="130" r="24"/>
    <path d="M11.79,24.7H29.47a48.93,48.93,0,0,0,97.86,0H145a66.61,66.61,0,0,1-133.21,0Z"/>
  </g>
  <g>
    <circle cx="64" cy="82" r="24"/>
    <circle cx="64" cy="24" r="24"/>
    <circle cx="24" cy="127" r="24"/>
    <circle cx="107" cy="127" r="24"/>
    <path d="M10,31H24.33a39.67,39.67,0,0,0,79.34,0H118A54,54,0,0,1,10,31Z"/>
  </g>
  <g>
    <circle cx="61.12" cy="82" r="24"/>
    <circle cx="61.12" cy="24" r="24"/>
    <path d="M7.12,31H21.45a39.67,39.67,0,0,0,79.34,0h14.33a54,54,0,0,1-108,0Z"/>
    <path d="M0,90.88H16.22a44.9,44.9,0,0,0,89.8,0h16.22A61.12,61.12,0,0,1,0,90.88Z"/>
  </g>
  <g>
    <circle cx="78" cy="24" r="24"/>
    <circle cx="110" cy="64" r="24"/>
    <circle cx="42" cy="64" r="24"/>
    <path d="M134,109H119.67a39.67,39.67,0,0,0-79.34,0H26a54,54,0,0,1,108,0Z"/>
    <path d="M156,149H141.67a39.67,39.67,0,1,0-79.34,0H48a54,54,0,0,1,108,0Z"/>
    <path d="M108,148H93.67a39.67,39.67,0,0,0-79.34,0H0a54,54,0,0,1,108,0Z"/>
  </g>
  <g>
    <circle cx="78" cy="24" r="24"/>
    <path d="M134,109H119.67a39.67,39.67,0,0,0-79.34,0H26a54,54,0,0,1,108,0Z"/>
    <path d="M156,149H141.67a39.67,39.67,0,1,0-79.34,0H48a54,54,0,0,1,108,0Z"/>
    <path d="M108,148H93.67a39.67,39.67,0,0,0-79.34,0H0a54,54,0,0,1,108,0Z"/>
  </g>
  <g>
    <circle cx="71.09" cy="24" r="24"/>
    <path d="M17.09,33H31.42a39.67,39.67,0,0,0,79.34,0h14.33a54,54,0,0,1-108,0Z"/>
    <path d="M142.17,145H123.31a52.23,52.23,0,0,0-104.45,0H0a71.09,71.09,0,1,1,142.17,0Z"/>
  </g>
  <g>
    <circle cx="80" cy="58" r="24"/>
    <path d="M26,64H40.33a39.67,39.67,0,0,0,79.34,0H134A54,54,0,0,1,26,64Z"/>
    <path d="M134,54H119.67a39.67,39.67,0,0,0-79.34,0H26a54,54,0,0,1,108,0Z"/>
    <path d="M156,158H141.67a39.67,39.67,0,1,0-79.34,0H48a54,54,0,0,1,108,0Z"/>
    <path d="M108,157H93.67a39.67,39.67,0,0,0-79.34,0H0a54,54,0,0,1,108,0Z"/>
  </g>
  <g>
    <circle cx="55" cy="24" r="24"/>
    <path d="M108,111H93.67a39.67,39.67,0,0,0-79.34,0H0a54,54,0,0,1,108,0Z"/>
    <path d="M108,155H93.67a39.67,39.67,0,0,0-79.34,0H0a54,54,0,0,1,108,0Z"/>
    <rect x="40.28" y="52.6" width="29.44" height="101.81"/>
  </g>
  <g>
    <circle cx="50.72" cy="24" r="24"/>
    <rect x="72" y="52.6" width="29.44" height="101.81"/>
    <rect x="36" y="52.6" width="29.44" height="101.81"/>
    <rect y="52.6" width="29.44" height="101.81"/>
  </g>
  <g>
    <circle cx="69.72" cy="24" r="24"/>
    <rect x="108" y="53" width="29.44" height="55.4"/>
    <rect x="55" y="53" width="29.44" height="67.4"/>
    <rect y="52.6" width="29.44" height="101.81"/>
    <path d="M14.94,98.57l14.33.11a39.67,39.67,0,1,0,79.33.64l14.33.11a54,54,0,1,1-108-.86Z"/>
  </g>
  <g>
    <circle cx="74.12" cy="22.52" r="22.52"/>
    <circle cx="22.52" cy="22.52" r="22.52"/>
    <circle cx="123.85" cy="22.52" r="22.52"/>
    <rect x="110.04" y="49.73" width="27.62" height="51.98"/>
    <rect x="60.31" y="49.73" width="27.62" height="63.24"/>
    <rect x="8.71" y="49.35" width="27.62" height="95.52"/>
    <path d="M22.72,92.48l13.45.11a37.22,37.22,0,0,0,74.43.59l13.45.11a50.67,50.67,0,0,1-101.33-.81Z"/>
  </g>
  <g>
    <circle cx="44.77" cy="20.43" r="20.43"/>
    <circle cx="93.77" cy="20.43" r="20.43"/>
    <path d="M137.54,150.83H119.29a50.52,50.52,0,0,0-101,0H0a68.77,68.77,0,1,1,137.54,0Z"/>
    <rect x="30.05" y="49.02" width="29.44" height="101.81"/>
    <rect x="79.05" y="49.02" width="29.44" height="101.81"/>
  </g>
  <g>
    <circle cx="69.78" cy="18.78" r="18.78"/>
    <circle cx="116.78" cy="53.78" r="18.78"/>
    <circle cx="18.78" cy="41.78" r="18.78"/>
    <rect x="102.06" y="77.78" width="29.44" height="71.4"/>
    <rect x="55.06" y="47.38" width="29.44" height="101.81"/>
    <rect x="4.06" y="68.78" width="29.44" height="80.4"/>
  </g>
  <g>
    <circle cx="76.15" cy="82.15" r="24"/>
    <circle cx="21.15" cy="21.15" r="21.15"/>
    <circle cx="129.15" cy="21.15" r="21.15"/>
    <rect x="114.43" y="48.15" width="29.44" height="55.4"/>
    <rect x="6.43" y="47.74" width="29.44" height="101.81"/>
    <path d="M21.36,93.71l14.33.12a39.67,39.67,0,1,0,79.34.63l14.33.12a54,54,0,0,1-108-.87Z"/>
  </g>
  <g>
    <circle cx="77" cy="77" r="24"/>
    <circle cx="132" cy="130.4" r="24"/>
    <circle cx="24" cy="130.4" r="24"/>
    <rect x="9.28" y="46" width="29.44" height="55.4" transform="translate(48 147.4) rotate(-180)"/>
    <rect x="117.28" width="29.44" height="101.81" transform="translate(264 101.81) rotate(-180)"/>
    <path d="M131.78,55.83l-14.33-.11a39.67,39.67,0,1,0-79.33-.64L23.79,55a54,54,0,1,1,108,.86Z"/>
  </g>
</svg>
