<svg xmlns="http://www.w3.org/2000/svg" viewBox="0 0 1920 1080">
  <title>P4</title>
  <g>
    <polygon points="0 -1 0 65 148 -1 0 -1"/>
    <polygon points="156 153 156 87 8 153 156 153"/>
    <polygon points="0 70 155 18 155 63.76 0 149.76 0 70"/>
  </g>
  <g>
    <polygon points="0 -1 0 65 148 -1 0 -1"/>
    <polygon points="156 153 156 87 8 153 156 153"/>
    <polygon points="0 70 155 18 155 24.37 0 110.37 0 70"/>
    <polygon points="155 81.97 0 133.97 0 118 155 32 155 81.97"/>
  </g>
  <g>
    <polygon points="0 -1 0 65 148 -1 0 -1"/>
    <polygon points="156 153 156 88 29 153 156 153"/>
    <polygon points="0 70 155 18 155 24.07 0 94 0 70"/>
    <polygon points="155 56 0 108 0 101.93 155 28 155 56"/>
    <polygon points="0 111 155 59 155 65.07 0 135 0 111"/>
    <polygon points="155 82 0 149 0 142.93 155 69 155 82"/>
  </g>
  <g>
    <polygon points="0 -1 0 65 148 -1 0 -1"/>
    <polygon points="156 153 156 87 8 153 156 153"/>
    <path d="M156,62S122,95,84,92,36,145,1,139V128s17,10,51-29,68-5,104-54Z"/>
    <path d="M156,43S122,76,84,73,36,126,1,120V109s17,10,51-29,68-5,104-54Z"/>
    <path d="M156,24S122,57,84,54,36,107,1,101V90s17,10,51-29,68-5,104-54Z"/>
  </g>
  <g>
    <circle cx="20" cy="18" r="19"/>
    <circle cx="125" cy="125" r="19"/>
    <circle cx="126" cy="19" r="19"/>
    <circle cx="73" cy="71" r="45.96"/>
    <circle cx="19" cy="124" r="19"/>
  </g>
  <g>
    <circle cx="20" cy="18" r="19"/>
    <circle cx="125" cy="125" r="19"/>
    <rect x="67" y="22" width="10" height="99" transform="translate(-29.47 71.85) rotate(-45)"/>
    <rect x="78.5" y="10.5" width="10" height="99" transform="translate(-17.97 76.62) rotate(-45)"/>
    <rect x="56.5" y="32.5" width="10" height="99" transform="translate(-39.97 67.5) rotate(-45)"/>
    <circle cx="126" cy="19" r="19"/>
    <circle cx="19" cy="124" r="19"/>
    <rect x="67.5" y="21.5" width="10" height="99" transform="translate(71.44 -30.47) rotate(45)"/>
    <rect x="79" y="33" width="10" height="99" transform="translate(82.94 -35.23) rotate(45)"/>
    <rect x="57" y="11" width="10" height="99" transform="translate(60.94 -26.12) rotate(45)"/>
  </g>
  <g>
    <circle cx="108" cy="114.56" r="30.56"/>
    <circle cx="31" cy="29.56" r="30.56"/>
    <circle cx="126" cy="22.56" r="19"/>
    <circle cx="19" cy="127.56" r="19"/>
    <path d="M140.32,67.18s-28-39.66-72.32,0S2.68,64.85,2.68,64.85V53.18s28,35,67.65-7,70,9.33,70,9.33Z"/>
    <path d="M140.32,95.18s-28-39.66-72.32,0S2.68,92.84,2.68,92.84V81.18s28,35,67.65-7,70,9.33,70,9.33Z"/>
  </g>
  <g>
    <circle cx="20" cy="18" r="19"/>
    <circle cx="125" cy="125" r="19"/>
    <circle cx="126" cy="19" r="19"/>
    <circle cx="19" cy="124" r="19"/>
    <path d="M42,20s12,17,31,0,28,1,28,1v5S89,11,72,29s-30-4-30-4Z"/>
    <path d="M42,8S54,25,73,8s28,1,28,1v5S89-1,72,17s-30-4-30-4Z"/>
    <path d="M45,87.34s20,9.46,28.7-16.25,26.46-13.74,26.46-13.74L102.81,62s-19-7.61-25.29,18S47.65,92,47.65,92Z"/>
    <path d="M38.74,76.23s20,9.45,28.71-16.25S93.9,46.23,93.9,46.23l2.62,4.63s-19-7.6-25.28,18-29.88,12-29.88,12Z"/>
    <path d="M54.55,43.91s-9.46,20,16.24,28.71S84.54,99.08,84.54,99.08l-4.63,2.62s7.6-19-18-25.29-12-29.88-12-29.88Z"/>
    <path d="M65.66,37.62s-9.45,20,16.25,28.71S95.65,92.79,95.65,92.79L91,95.41s7.61-19-18-25.29S61,40.25,61,40.25Z"/>
    <path d="M101,120.78s-12-17-31,0-28-1-28-1v-5s12,15,29-3,30,4,30,4Z"/>
    <path d="M101,132.78s-12-17-31,0-28-1-28-1v-5s12,15,29-3,30,4,30,4Z"/>
    <path d="M17.89,42s-17,12,0,31-1,28-1,28h-5s15-12-3-29,4-30,4-30Z"/>
    <path d="M29.89,42s-17,12,0,31-1,28-1,28h-5s15-12-3-29,4-30,4-30Z"/>
    <path d="M123.89,42s-17,12,0,31-1,28-1,28h-5s15-12-3-29,4-30,4-30Z"/>
    <path d="M135.89,42s-17,12,0,31-1,28-1,28h-5s15-12-3-29,4-30,4-30Z"/>
  </g>
  <g>
    <path d="M0,56S32,73,63,46s38,37,91,8V74H0Z"/>
    <path d="M0,136s32,17,63-10,38,37,91,8v20H0Z"/>
    <path d="M154,97s-32-17-63,10S53,70,0,99V79H154Z"/>
    <path d="M154,17S122,0,91,27,53-10,0,19V-1H154Z"/>
  </g>
  <g>
    <path d="M0,94s32,17,63-10,38,37,91,8v62H0Z"/>
    <path d="M154,55S122,38,91,65,53,28,0,57V-1H154Z"/>
  </g>
  <g>
    <path d="M60-1S43,31,70,62s-37,38-8,91H0V-1Z"/>
    <path d="M99,153s17-32-10-63,37-38,8-91h58V153Z"/>
  </g>
  <g>
    <path d="M72.29,77.71c-1,19.68-38.22,32.48-14.79,75.29H0V93.5s32,17,63-10A29.17,29.17,0,0,1,72.29,77.71Z"/>
    <path d="M154,91.5V153H94.5s17-32-10-63c-4.32-5-6.31-9.3-6.72-13.31C98,76.49,110.52,115.29,154,91.5Z"/>
    <path d="M71,70.51c-17.46-5.38-31.37-35.69-71-14V-1H55.5s-17,32,10,63A30.43,30.43,0,0,1,71,70.51Z"/>
    <path d="M154-1V54.5s-32-17-63,10c-4.75,4.15-9,6.15-12.83,6.66C82.51,53.14,114.66,39.5,92.5-1Z"/>
    <path d="M154-1V54.5s-32-17-63,10c-4.75,4.15-9,6.15-12.83,6.66C82.51,53.14,114.66,39.5,92.5-1Z"/>
    <path d="M154,91.5V153H94.5s17-32-10-63c-4.32-5-6.31-9.3-6.72-13.31C98,76.49,110.52,115.29,154,91.5Z"/>
    <path d="M57.5,153H0V93.5s32,17,63-10a29.17,29.17,0,0,1,9.29-5.79C71.33,97.39,34.07,110.19,57.5,153Z"/>
    <path d="M0,56.5V-1H55.5s-17,32,10,63A30.43,30.43,0,0,1,71,70.51C53.54,65.13,39.63,34.82,0,56.5Z"/>
  </g>
  <g>
    <path d="M0,46.55s32,17,63-10,38,37,91,8v25H0Z"/>
    <path d="M155,32.55s-16,39-60-7-62,44-95,11v-13s9,17,46-15,53,28,109,12Z"/>
    <path d="M154,94s-32-17-63,10S53,67,0,96V69.55H154Z"/>
    <path d="M0,108s16-39,60,7,62-44,95-11v13s-9-17-46,15S56,104,0,120Z"/>
  </g>
  <g>
    <path d="M155,30.31s-29-13-55,34-65,20-65,20,41,20,60-33,60-36,60-36Z"/>
    <path d="M155,53.31s-29-13-55,34-65,20-65,20,41,20,60-33,60-36,60-36Z"/>
    <path d="M155,97.31s-30.5-20.5-56.5,26.5-65,20-65,20S68,163.31,87,110.31s68-50,68-50Z"/>
    <path d="M155,12.31s-36-10-62,37-65,20-65,20,41,20,60-33,67-34,67-34Z"/>
    <path d="M0,92s64,37.28,84-1.72c0,0-18,29.09-84-24.45Z"/>
    <path d="M0,50.31S60.36,99.46,85.18,39.89c0,0-22.18,31.42-85.18-20.58Z"/>
    <circle cx="62" cy="23.31" r="23"/>
    <circle cx="132" cy="126.31" r="23"/>
  </g>
  <g>
    <path d="M121.22,154s13-29-34-55-20-65-20-65-20,41,33,60,36,60,36,60Z"/>
    <path d="M98.22,154s13-29-34-55-20-65-20-65-20,41,33,60,36,60,36,60Z"/>
    <path d="M54.22,154s20.5-30.5-26.5-56.5-20-65-20-65S-11.78,67,41.22,86s50,68,50,68Z"/>
    <path d="M139.22,154s10-36-37-62-20-65-20-65-20,41,33,60,34,67,34,67Z"/>
    <path d="M59.5-1S22.22,63,61.22,83c0,0-29.09-18,24.45-84Z"/>
    <path d="M101.22-1S52.07,59.36,111.65,84.18c0,0-31.43-22.18,20.57-85.18Z"/>
    <circle cx="128.22" cy="61" r="23"/>
    <circle cx="25.22" cy="131" r="23"/>
  </g>
  <g>
    <path d="M31.31-1s-13,29,34,55,20,65,20,65,20-41-33-60-36-60-36-60Z"/>
    <path d="M54.31-1s-13,29,34,55,20,65,20,65,20-41-33-60-36-60-36-60Z"/>
    <path d="M98.31-1s-20.5,30.5,26.5,56.5,20,65,20,65S164.31,86,111.31,67s-50-68-50-68Z"/>
    <path d="M13.31-1s-10,36,37,62,20,65,20,65,20-41-33-60-34-67-34-67Z"/>
    <path d="M93,154s37.28-64-1.72-84c0,0,29.09,18-24.45,84Z"/>
    <path d="M51.31,154s49.15-60.36-10.42-85.18c0,0,31.42,22.18-20.58,85.18Z"/>
    <circle cx="128.77" cy="24.55" r="23"/>
    <circle cx="131.77" cy="135.55" r="15.56"/>
  </g>
</svg>
