<svg xmlns="http://www.w3.org/2000/svg" viewBox="0 0 1920 1080">
  <title>P6</title>
  <g>
    <path d="M143.58,1.64A147.14,147.14,0,0,0-3,149.28a146.73,146.73,0,0,0,103.51-43.1A146.71,146.71,0,0,0,143.58,1.64ZM47,96.13a30.9,30.9,0,1,1,43.7,0A30.9,30.9,0,0,1,47,96.13Z"/>
    <circle cx="69" cy="74.6" r="26"/>
  </g>
  <g>
    <path d="M143.58,1.64A147.14,147.14,0,0,0-3,149.28a146.73,146.73,0,0,0,103.51-43.1A146.71,146.71,0,0,0,143.58,1.64ZM47,96.13a30.9,30.9,0,1,1,43.7,0A30.9,30.9,0,0,1,47,96.13Z"/>
    <circle cx="69" cy="74.6" r="10.67"/>
  </g>
  <g>
    <path d="M143.58,1.64A147.14,147.14,0,0,0-3,149.28a146.73,146.73,0,0,0,103.51-43.1A146.71,146.71,0,0,0,143.58,1.64ZM47,96.13a30.9,30.9,0,1,1,43.7,0A30.9,30.9,0,0,1,47,96.13Z"/>
    <circle cx="69" cy="74.6" r="6.36"/>
  </g>
  <g>
    <path d="M143.58,1.64A147.14,147.14,0,0,0-3,149.28a146.73,146.73,0,0,0,103.51-43.1A146.71,146.71,0,0,0,143.58,1.64ZM47,96.13a30.9,30.9,0,1,1,43.7,0A30.9,30.9,0,0,1,47,96.13Z"/>
    <circle cx="69" cy="66.6" r="26"/>
  </g>
  <g>
    <ellipse cx="73.29" cy="118" rx="76.31" ry="38.36"/>
    <path d="M75.29,1.64C42.83,1.64,14.45,17-1,40,14.45,63,42.83,78.36,75.29,78.36S136.12,63,151.6,40C136.12,17,107.74,1.64,75.29,1.64Zm0,67.36a29,29,0,1,1,29-29A29,29,0,0,1,75.29,69Z"/>
  </g>
  <g>
    <path d="M6.09,10.76C-1.3,18.15-4.26,28.12-2.55,36.88c8.75,1.7,18.72-1.26,26.11-8.65S33.91,10.87,32.21,2.11C23.45.41,13.48,3.36,6.09,10.76ZM21.43,26.1a9.34,9.34,0,1,1,0-13.21A9.34,9.34,0,0,1,21.43,26.1Z"/>
    <path d="M43.94,10.76c-7.39,7.39-10.35,17.36-8.65,26.12,8.76,1.7,18.73-1.26,26.12-8.65S71.76,10.87,70.06,2.11C61.3.41,51.33,3.36,43.94,10.76ZM59.28,26.1a9.34,9.34,0,1,1,0-13.21A9.34,9.34,0,0,1,59.28,26.1Z"/>
    <path d="M81.79,10.76c-7.4,7.39-10.35,17.36-8.65,26.12,8.76,1.7,18.73-1.26,26.12-8.65s10.35-17.36,8.65-26.12C99.15.41,89.18,3.36,81.79,10.76ZM97.13,26.1a9.34,9.34,0,1,1,0-13.21A9.34,9.34,0,0,1,97.13,26.1Z"/>
    <path d="M119.64,10.76c-7.4,7.39-10.35,17.36-8.65,26.12,8.76,1.7,18.73-1.26,26.12-8.65s10.35-17.36,8.65-26.12C137,.41,127,3.36,119.64,10.76ZM135,26.1a9.34,9.34,0,1,1,0-13.21A9.34,9.34,0,0,1,135,26.1Z"/>
    <path d="M6.09,46.43C-1.3,53.82-4.26,63.79-2.55,72.55c8.75,1.7,18.72-1.25,26.11-8.65s10.35-17.36,8.65-26.12C23.45,36.08,13.48,39,6.09,46.43ZM21.43,61.77a9.34,9.34,0,1,1,0-13.21A9.34,9.34,0,0,1,21.43,61.77Z"/>
    <path d="M43.94,46.43c-7.39,7.39-10.35,17.36-8.65,26.12C44.05,74.25,54,71.3,61.41,63.9s10.35-17.36,8.65-26.12C61.3,36.08,51.33,39,43.94,46.43ZM59.28,61.77a9.34,9.34,0,1,1,0-13.21A9.34,9.34,0,0,1,59.28,61.77Z"/>
    <path d="M81.79,46.43c-7.4,7.39-10.35,17.36-8.65,26.12,8.76,1.7,18.73-1.25,26.12-8.65s10.35-17.36,8.65-26.12C99.15,36.08,89.18,39,81.79,46.43ZM97.13,61.77a9.34,9.34,0,1,1,0-13.21A9.34,9.34,0,0,1,97.13,61.77Z"/>
    <path d="M119.64,46.43c-7.4,7.39-10.35,17.36-8.65,26.12,8.76,1.7,18.73-1.25,26.12-8.65s10.35-17.36,8.65-26.12C137,36.08,127,39,119.64,46.43ZM135,61.77a9.34,9.34,0,1,1,0-13.21A9.34,9.34,0,0,1,135,61.77Z"/>
    <path d="M6.09,82.1C-1.3,89.49-4.26,99.46-2.55,108.22c8.75,1.7,18.72-1.25,26.11-8.65s10.35-17.36,8.65-26.12C23.45,71.75,13.48,74.71,6.09,82.1ZM21.43,97.44a9.34,9.34,0,1,1,0-13.21A9.34,9.34,0,0,1,21.43,97.44Z"/>
    <path d="M43.94,82.1c-7.39,7.39-10.35,17.36-8.65,26.12,8.76,1.7,18.73-1.25,26.12-8.65s10.35-17.36,8.65-26.12C61.3,71.75,51.33,74.71,43.94,82.1ZM59.28,97.44a9.34,9.34,0,1,1,0-13.21A9.34,9.34,0,0,1,59.28,97.44Z"/>
    <path d="M81.79,82.1c-7.4,7.39-10.35,17.36-8.65,26.12,8.76,1.7,18.73-1.25,26.12-8.65s10.35-17.36,8.65-26.12C99.15,71.75,89.18,74.71,81.79,82.1ZM97.13,97.44a9.34,9.34,0,1,1,0-13.21A9.34,9.34,0,0,1,97.13,97.44Z"/>
    <path d="M119.64,82.1c-7.4,7.39-10.35,17.36-8.65,26.12,8.76,1.7,18.73-1.25,26.12-8.65s10.35-17.36,8.65-26.12C137,71.75,127,74.71,119.64,82.1ZM135,97.44a9.34,9.34,0,1,1,0-13.21A9.34,9.34,0,0,1,135,97.44Z"/>
    <path d="M6.09,117.77c-7.39,7.39-10.35,17.36-8.64,26.12,8.75,1.7,18.72-1.25,26.11-8.65s10.35-17.36,8.65-26.11C23.45,107.42,13.48,110.38,6.09,117.77Zm15.34,15.34a9.34,9.34,0,1,1,0-13.21A9.34,9.34,0,0,1,21.43,133.11Z"/>
    <path d="M43.94,117.77c-7.39,7.39-10.35,17.36-8.65,26.12,8.76,1.7,18.73-1.25,26.12-8.65s10.35-17.36,8.65-26.11C61.3,107.42,51.33,110.38,43.94,117.77Zm15.34,15.34a9.34,9.34,0,1,1,0-13.21A9.34,9.34,0,0,1,59.28,133.11Z"/>
    <path d="M81.79,117.77c-7.4,7.39-10.35,17.36-8.65,26.12,8.76,1.7,18.73-1.25,26.12-8.65s10.35-17.36,8.65-26.11C99.15,107.42,89.18,110.38,81.79,117.77Zm15.34,15.34a9.34,9.34,0,1,1,0-13.21A9.34,9.34,0,0,1,97.13,133.11Z"/>
    <path d="M119.64,117.77c-7.4,7.39-10.35,17.36-8.65,26.12,8.76,1.7,18.73-1.25,26.12-8.65s10.35-17.36,8.65-26.11C137,107.42,127,110.38,119.64,117.77ZM135,133.11a9.34,9.34,0,1,1,0-13.21A9.34,9.34,0,0,1,135,133.11Z"/>
  </g>
  <path d="M-1.06,149.21C35.62,156.36,77.37,144,108.34,113S151.69,40.28,144.55,3.61C107.87-3.53,66.11,8.85,35.15,39.82S-8.2,112.54-1.06,149.21Zm45.14-45.13a39.13,39.13,0,1,1,55.33,0A39.13,39.13,0,0,1,44.08,104.08Z"/>
  <path d="M-1.06,3.61C-8.2,40.28,4.18,82,35.15,113s72.72,43.36,109.4,36.21c7.14-36.67-5.25-78.43-36.21-109.39S35.62-3.53-1.06,3.61ZM44.08,48.74a39.13,39.13,0,1,1,0,55.34A39.12,39.12,0,0,1,44.08,48.74Z"/>
  <path d="M-1.06,149.21C35.62,156.36,77.37,144,108.34,113S151.69,40.28,144.55,3.61C107.87-3.53,66.11,8.85,35.15,39.82S-8.2,112.54-1.06,149.21Zm45.14-45.13a39.13,39.13,0,1,1,55.33,0A39.13,39.13,0,0,1,44.08,104.08Z"/>
  <path d="M144.55,149.21c7.14-36.67-5.25-78.43-36.21-109.39S35.62-3.53-1.06,3.61C-8.2,40.28,4.18,82,35.15,113S107.87,156.36,144.55,149.21ZM99.41,104.08a39.13,39.13,0,1,1,0-55.34A39.12,39.12,0,0,1,99.41,104.08Z"/>
  <path d="M34,149.08c22.19-15,37.06-42.36,37.06-73.72S56.22,16.59,34,1.64C11.85,16.59-3,44-3,75.36S11.85,134.13,34,149.08Zm0-45.7a28,28,0,1,1,28-28A28,28,0,0,1,34,103.38Z"/>
  <g>
    <path d="M73.29,1.64C40.83,1.64,12.45,17-3,40,12.45,63,40.83,78.36,73.29,78.36S134.12,63,149.6,40C134.12,17,105.74,1.64,73.29,1.64Zm0,67.36a29,29,0,1,1,29-29A29,29,0,0,1,73.29,69Z"/>
    <path d="M73.29,79.64C40.83,79.64,12.45,95-3,118c15.47,23,43.85,38.36,76.31,38.36S134.12,141,149.6,118C134.12,95,105.74,79.64,73.29,79.64Zm0,67.36a29,29,0,1,1,29-29A29,29,0,0,1,73.29,147Z"/>
  </g>
  <g>
    <path d="M73,1.64c-28.45,0-53.31,13.49-66.88,33.62C19.69,55.38,44.55,68.87,73,68.87s53.31-13.49,66.87-33.61C126.31,15.13,101.44,1.64,73,1.64Zm0,59A25.42,25.42,0,1,1,98.41,35.26,25.42,25.42,0,0,1,73,60.67Z"/>
    <path d="M73,72.05c-32.34,0-60.61,15.33-76,38.21,15.41,22.87,43.68,38.21,76,38.21s60.6-15.34,76-38.21C133.6,87.38,105.33,72.05,73,72.05Zm0,67.1a28.89,28.89,0,1,1,28.89-28.89A28.89,28.89,0,0,1,73,139.15Z"/>
    <circle cx="73" cy="110.26" r="21.64"/>
  </g>
  <g>
    <path d="M73.29,1.64C40.83,1.64,12.45,17-3,40,12.45,63,40.83,78.36,73.29,78.36S134.12,63,149.6,40C134.12,17,105.74,1.64,73.29,1.64Zm0,67.36a29,29,0,1,1,29-29A29,29,0,0,1,73.29,69Z"/>
    <circle cx="73.29" cy="115" r="27.78"/>
  </g>
  <g>
    <path d="M70.24,52.91a22,22,0,1,0,22,22A22,22,0,0,0,70.24,52.91Zm0,37.07A15.07,15.07,0,1,1,85.31,74.91,15.07,15.07,0,0,1,70.24,90Z"/>
    <path d="M70.24,34.76a40.15,40.15,0,1,0,40.15,40.15A40.15,40.15,0,0,0,70.24,34.76Zm0,67.65a27.5,27.5,0,1,1,27.5-27.5A27.5,27.5,0,0,1,70.24,102.41Z"/>
    <path d="M70.24,1.64a73.27,73.27,0,1,0,73.27,73.27A73.26,73.26,0,0,0,70.24,1.64Zm0,123.45a50.18,50.18,0,1,1,50.18-50.18A50.18,50.18,0,0,1,70.24,125.09Z"/>
  </g>
  <g>
    <path d="M38.9,1.64C21.07,1.64,5.48,10.1-3,22.72,5.48,35.33,21.07,43.79,38.9,43.79s33.43-8.46,41.93-21.07C72.33,10.1,56.74,1.64,38.9,1.64Zm0,37A15.94,15.94,0,1,1,54.84,22.72,15.93,15.93,0,0,1,38.9,38.65Z"/>
    <path d="M110.9,1.64C93.07,1.64,77.48,10.1,69,22.72c8.5,12.61,24.09,21.07,41.92,21.07s33.43-8.46,41.93-21.07C144.33,10.1,128.74,1.64,110.9,1.64Zm0,37a15.94,15.94,0,1,1,15.94-15.93A15.93,15.93,0,0,1,110.9,38.65Z"/>
    <path d="M38.9,55.64C21.07,55.64,5.48,64.1-3,76.72,5.48,89.33,21.07,97.79,38.9,97.79s33.43-8.46,41.93-21.07C72.33,64.1,56.74,55.64,38.9,55.64Zm0,37A15.94,15.94,0,1,1,54.84,76.72,15.93,15.93,0,0,1,38.9,92.65Z"/>
    <path d="M110.9,55.64C93.07,55.64,77.48,64.1,69,76.72c8.5,12.61,24.09,21.07,41.92,21.07s33.43-8.46,41.93-21.07C144.33,64.1,128.74,55.64,110.9,55.64Zm0,37a15.94,15.94,0,1,1,15.94-15.93A15.93,15.93,0,0,1,110.9,92.65Z"/>
    <path d="M38.9,109.64c-17.83,0-33.42,8.46-41.92,21.08,8.5,12.61,24.09,21.07,41.92,21.07s33.43-8.46,41.93-21.07C72.33,118.1,56.74,109.64,38.9,109.64Zm0,37a15.94,15.94,0,1,1,15.94-15.93A15.93,15.93,0,0,1,38.9,146.65Z"/>
    <path d="M110.9,109.64c-17.83,0-33.42,8.46-41.92,21.08,8.5,12.61,24.09,21.07,41.92,21.07s33.43-8.46,41.93-21.07C144.33,118.1,128.74,109.64,110.9,109.64Zm0,37a15.94,15.94,0,1,1,15.94-15.93A15.93,15.93,0,0,1,110.9,146.65Z"/>
    <circle cx="74.9" cy="49.72" r="12"/>
    <circle cx="74.9" cy="104.72" r="12"/>
  </g>
</svg>
