<svg xmlns="http://www.w3.org/2000/svg" viewBox="0 0 1920 1080">
  <title>P8</title>
  <g><path d="M0,0V99S32-40,155,99V0Z"/></g>
  <g><path d="M155,0H74s96,26,55,96S32,96,0,121v34H156Z"/></g>
  <g><path d="M156,0H0S19,82,77,55s79,13,79,13Z"/></g>
  <g><path d="M0,0V155s20-45,99-72S136,0,136,0Z"/></g>
  <g><path d="M1,156H137s-18-18,0-55S84,0,84,0L0,1Z"/></g>
  <g><path d="M155,0H0S26,110,107,64s4,91,4,91h44Z"/></g>
  <g><path d="M140,0s0,44-65,54C28.47,61.16,0,99,0,99V0Z"/></g>
  <g><path d="M0,20.41s28,33,76-1,79-13,79-13v91H0Z"/></g>
  <g><path d="M129.56,0h-86s-98,59,0,155h86Z"/></g>
  <g><path d="M154,155H0V0S15,155,154,155Z"/></g>
  <g><path d="M129,0H32S93,20,45,77,0,155,0,155H129Z"/></g>
  <g><circle cx="66" cy="66" r="66"/></g>
</svg>
