<svg id="图层_1" data-name="图层 1" xmlns="http://www.w3.org/2000/svg" viewBox="0 0 1920 1080">
  <defs>
    <path id="su01" class="cls-1" d="M100,107l35.2,15.3A67.7,67.7,0,0,0,152.8,77c0-39.2-34.2-71-76.4-71S-.1,37.8-.1,77s34.2,71,76.5,71a83.1,83.1,0,0,0,27.9-4.9Z"/>
  <path id="su02" class="cls-2" d="M76,0S5,37,5,99s38,54.2,71,55c40,1,72,14,72-51S101,19,76,0Z"/>
  <g id="su03">
    <path class="cls-2" d="M51.5,0S1,29.3,15.8,50.1,46.2,45.4,51.5,0Z"/>
    <path class="cls-2" d="M51.5,48.3S1,77.6,15.8,98.4,46.2,93.7,51.5,48.3Z"/>
    <path class="cls-2" d="M51.5,96.5S1,125.8,15.8,146.7,46.2,141.9,51.5,96.5Z"/>
    <path class="cls-2" d="M105.9,0S55.5,29.3,70.2,50.1,100.7,45.4,105.9,0Z"/>
    <path class="cls-2" d="M105.9,48.3S55.5,77.6,70.2,98.4,100.7,93.7,105.9,48.3Z"/>
    <path class="cls-2" d="M105.9,96.5s-50.4,29.3-35.7,50.2S100.7,141.9,105.9,96.5Z"/>
    <path class="cls-2" d="M160.4,0s-50.5,29.3-35.8,50.1S155.1,45.4,160.4,0Z"/>
    <path class="cls-2" d="M160.4,48.3s-50.5,29.3-35.8,50.1S155.1,93.7,160.4,48.3Z"/>
    <path class="cls-2" d="M160.4,96.5s-50.5,29.3-35.8,50.2S155.1,141.9,160.4,96.5Z"/>
  </g>
  </defs>
  <title>su</title>
  
</svg>
