<svg xmlns="http://www.w3.org/2000/svg" xmlns:xlink="http://www.w3.org/1999/xlink" viewBox="0 0 1439 1439">
  <defs>
    <style>
      .a {
        fill: none;
      }

      .b {
        fill: url(#a);
      }
    </style>
    <pattern id="a" data-name="新建图案色板 1" width="150" height="150" patternUnits="userSpaceOnUse" viewBox="0 0 150 150">
      <rect class="a" width="150" height="150"/>
      <path d="M251.494,201.5l-53.247,67.446L144.856,200.4a32.668,32.668,0,0,1,1.572-42.1c20.4-22.31,57.855-46.751,102.977.232A32.741,32.741,0,0,1,251.494,201.5Z"/>
      <path d="M101.494,201.5,48.247,268.945-5.144,200.4a32.668,32.668,0,0,1,1.572-42.1c20.4-22.31,57.855-46.751,102.977.232A32.741,32.741,0,0,1,101.494,201.5Z"/>
      <path d="M251.494,51.5l-53.247,67.446L144.856,50.4a32.668,32.668,0,0,1,1.572-42.1c20.4-22.31,57.855-46.751,102.977.232A32.741,32.741,0,0,1,251.494,51.5Z"/>
      <g>
        <path d="M48.247,118.945"/>
        <path d="M101.494,51.5,48.247,118.945-5.144,50.4A32.668,32.668,0,0,1-3.572,8.3c20.4-22.31,57.855-46.751,102.977.232A32.741,32.741,0,0,1,101.494,51.5Z"/>
        <path d="M156.992,119.645l-38.423,48.67-38.527-49.46a23.574,23.574,0,0,1,1.134-30.379c14.718-16.1,41.749-33.736,74.309.167A23.627,23.627,0,0,1,156.992,119.645Z"/>
      </g>
      <path d="M6.992,119.645l-38.423,48.67-38.527-49.46a23.574,23.574,0,0,1,1.134-30.379c14.718-16.1,41.749-33.736,74.309.167A23.627,23.627,0,0,1,6.992,119.645Z"/>
      <path d="M156.992-30.355l-38.423,48.67L80.042-31.145a23.574,23.574,0,0,1,1.134-30.379c14.718-16.1,41.749-33.736,74.309.167A23.627,23.627,0,0,1,156.992-30.355Z"/>
      <path d="M6.992-30.355l-38.423,48.67-38.527-49.46a23.574,23.574,0,0,1,1.134-30.379c14.718-16.1,41.749-33.736,74.309.167A23.627,23.627,0,0,1,6.992-30.355Z"/>
    </pattern>
  </defs>
  <title>pat001</title>
  <rect class="b" width="1490" height="1499"/>
</svg>
