<svg id="图层_1" data-name="图层 1" xmlns="http://www.w3.org/2000/svg" viewBox="0 0 1661.988 884.692">
  <title>T1</title>
  <g id="T1D">
    <rect x="507.114" y="387.35" width="168.84" height="152.65" transform="translate(1049.978 834.693) rotate(180)" style="fill: #ff7452"/>
    <rect x="694.783" y="387.35" width="168.84" height="152.65" transform="translate(1425.317 834.693) rotate(180)" style="fill: #ff806d"/>
    <rect x="881.139" y="387.35" width="168.84" height="152.65" transform="translate(1798.028 834.693) rotate(180)" style="fill: #ffbc9c"/>
    <rect x="133.089" y="387.35" width="168.84" height="152.65" transform="translate(301.929 834.693) rotate(180)" style="fill: #f3859e"/>
    <rect x="1059.779" y="387.35" width="168.84" height="152.65" transform="translate(2155.308 834.693) rotate(180)" style="fill: #009303"/>
    <rect x="1420.17" y="387.35" width="168.84" height="152.65" transform="translate(2876.091 834.693) rotate(180)" style="fill: #00b2fc"/>
    <rect x="1618.071" y="387.35" width="168.84" height="152.65" transform="translate(3271.893 834.693) rotate(180)" style="fill: #0084d6"/>
    <rect x="1238.419" y="387.35" width="168.84" height="152.65" transform="translate(2512.588 834.693) rotate(180)" style="fill: #00b06f"/>
    <rect x="319.445" y="387.35" width="168.84" height="152.65" transform="translate(674.64 834.693) rotate(180)" style="fill: #bb386b"/>
  </g>
  <g id="T1G">
    <rect x="507.114" y="594.853" width="168.84" height="152.65" transform="translate(1049.978 1249.697) rotate(180)" style="fill: #fff598"/>
    <rect x="694.783" y="594.853" width="168.84" height="152.65" transform="translate(1425.317 1249.697) rotate(180)" style="fill: #f0907f"/>
    <rect x="881.139" y="594.853" width="168.84" height="152.65" transform="translate(1798.028 1249.697) rotate(180)" style="fill: #a394c6"/>
    <rect x="133.089" y="594.853" width="168.84" height="152.65" transform="translate(301.929 1249.697) rotate(180)" style="fill: #22ac38"/>
    <rect x="319.445" y="594.853" width="168.84" height="152.65" transform="translate(674.64 1249.697) rotate(180)" style="fill: #094"/>
  </g>
  <g id="T1M">
    <rect x="515.281" y="824.701" width="168.84" height="152.65" transform="translate(1066.312 1709.393) rotate(180)" style="fill: #9cb97b"/>
    <rect x="702.95" y="824.701" width="168.84" height="152.65" transform="translate(1441.651 1709.393) rotate(180)" style="fill: #b4ca6a"/>
    <rect x="889.306" y="824.701" width="168.84" height="152.65" transform="translate(1814.362 1709.393) rotate(180)" style="fill: #82f867"/>
    <rect x="141.256" y="824.701" width="168.84" height="152.65" transform="translate(318.263 1709.393) rotate(180)" style="fill: #eaf8d0"/>
    <rect x="1067.946" y="824.701" width="168.84" height="152.65" transform="translate(2171.642 1709.393) rotate(180)" style="fill: #70d98f"/>
    <rect x="1428.337" y="824.701" width="168.84" height="152.65" transform="translate(2892.425 1709.393) rotate(180)" style="fill: #b6bbb1"/>
    <rect x="1626.238" y="824.701" width="168.84" height="152.65" transform="translate(3288.226 1709.393) rotate(180)" style="fill: #c5a6a6"/>
    <rect x="1246.586" y="824.701" width="168.84" height="152.65" transform="translate(2528.922 1709.393) rotate(180)" style="fill: #b6c7bb"/>
    <rect x="327.612" y="824.701" width="168.84" height="152.65" transform="translate(690.974 1709.393) rotate(180)" style="fill: #bdce83"/>
  </g>
  <g id="T1N">
    <rect x="881.139" y="92.658" width="168.84" height="152.65" transform="translate(1798.028 245.307) rotate(180)" style="fill: #c77b58"/>
    <rect x="133.089" y="92.658" width="168.84" height="152.65" transform="translate(301.929 245.307) rotate(180)" style="fill: #834a49"/>
    <rect x="1059.779" y="92.658" width="168.84" height="152.65" transform="translate(2155.308 245.307) rotate(180)" style="fill: #5c3110"/>
    <rect x="1420.17" y="92.658" width="168.84" height="152.65" transform="translate(2876.091 245.307) rotate(180)" style="fill: #fff184"/>
    <rect x="1618.071" y="92.658" width="168.84" height="152.65" transform="translate(3271.893 245.307) rotate(180)" style="fill: #003e77"/>
    <rect x="1238.419" y="92.658" width="168.84" height="152.65" transform="translate(2512.588 245.307) rotate(180)" style="fill: #59cff2"/>
    <rect x="319.445" y="92.658" width="168.84" height="152.65" transform="translate(674.64 245.307) rotate(180)" style="fill: #002615"/>
  </g>
</svg>
