<svg id="T3" xmlns="http://www.w3.org/2000/svg" viewBox="0 0 877 651">
  <title>T3</title>
  <g id="T3N">
    <rect y="524" width="127" height="127" style="fill: #2b2b2c"/>
    <rect x="150" y="524" width="127" height="127" style="fill: #274279"/>
    <rect x="300" y="524" width="127" height="127" style="fill: #8400f0"/>
    <rect x="450" y="524" width="127" height="127" style="fill: #ffdf8b"/>
    <rect x="600" y="524" width="127" height="127" style="fill: #da4000"/>
    <rect x="750" y="524" width="127" height="127" style="fill: #631da1"/>
  </g>
  <g id="T3D">
    <rect x="150" y="354" width="127" height="127" style="fill: #2e3357"/>
    <rect x="300" y="354" width="127" height="127" style="fill: #5a53fe"/>
    <rect x="450" y="354" width="127" height="127" style="fill: #f7d100"/>
    <rect x="600" y="354" width="127" height="127" style="fill: #ff823b"/>
    <rect x="750" y="354" width="127" height="127" style="fill: #d877b2"/>
  </g>
  <g id="T3M">
    <rect width="127" height="127" style="fill: #a6c29e"/>
    <rect x="150" width="127" height="127" style="fill: #954035"/>
    <rect x="300" width="127" height="127" style="fill: #ffb7a2"/>
    <rect x="450" width="127" height="127" style="fill: #ea9138"/>
    <rect x="600" width="127" height="127" style="fill: #fafeda"/>
    <rect x="750" width="127" height="127" style="fill: #cb3700"/>
  </g>
  <g id="T3G">
    <rect y="177" width="127" height="127" style="fill: #35302e"/>
    <rect x="150" y="177" width="127" height="127" style="fill: #c54500"/>
    <rect x="300" y="177" width="127" height="127" style="fill: #a97a00"/>
    <rect x="450" y="177" width="127" height="127" style="fill: #f3e8ae"/>
    <rect x="600" y="177" width="127" height="127" style="fill: #ffe800"/>
    <rect x="750" y="177" width="127" height="127" style="fill: #8463ff"/>
  </g>
</svg>
